0
SECTION
2
HEADER
9
$INSUNITS
70
4
9
$ACADVER
1
AC1014
9
$HANDSEED
5
FFFF
0
ENDSEC
0
SECTION
2
TABLES
0
TABLE
2
VPORT
5
8
100
AcDbSymbolTable
0
ENDTAB
0
TABLE
2
LTYPE
5
5
100
AcDbSymbolTable
0
LTYPE
5
14
100
AcDbSymbolTableRecord
100
AcDbLinetypeTableRecord
2
BYBLOCK
70
0
0
LTYPE
5
15
100
AcDbSymbolTableRecord
100
AcDbLinetypeTableRecord
2
BYLAYER
70
0
0
ENDTAB
0
TABLE
2
LAYER
5
2
100
AcDbSymbolTable
70
2
0
LAYER
5
50
100
AcDbSymbolTableRecord
100
AcDbLayerTableRecord
2
0
70
0
6
CONTINUOUS
0
ENDTAB
0
TABLE
2
STYLE
5
3
100
AcDbSymbolTable
70
1
0
STYLE
5
11
100
AcDbSymbolTableRecord
100
AcDbTextStyleTableRecord
2
STANDARD
70
0
0
ENDTAB
0
TABLE
2
VIEW
5
6
100
AcDbSymbolTable
70
0
0
ENDTAB
0
TABLE
2
UCS
5
7
100
AcDbSymbolTable
70
0
0
ENDTAB
0
TABLE
2
APPID
5
9
100
AcDbSymbolTable
70
2
0
APPID
5
12
100
AcDbSymbolTableRecord
100
AcDbRegAppTableRecord
2
ACAD
70
0
0
ENDTAB
0
TABLE
2
DIMSTYLE
5
A
100
AcDbSymbolTable
70
1
0
ENDTAB
0
TABLE
2
BLOCK_RECORD
5
1
100
AcDbSymbolTable
70
1
0
BLOCK_RECORD
5
1F
100
AcDbSymbolTableRecord
100
AcDbBlockTableRecord
2
*MODEL_SPACE
0
BLOCK_RECORD
5
1B
100
AcDbSymbolTableRecord
100
AcDbBlockTableRecord
2
*PAPER_SPACE
0
ENDTAB
0
ENDSEC
0
SECTION
2
BLOCKS
0
BLOCK
5
20
100
AcDbEntity
100
AcDbBlockBegin
2
*MODEL_SPACE
0
ENDBLK
5
21
100
AcDbEntity
100
AcDbBlockEnd
0
BLOCK
5
1C
100
AcDbEntity
100
AcDbBlockBegin
2
*PAPER_SPACE
0
ENDBLK
5
1D
100
AcDbEntity
100
AcDbBlockEnd
0
ENDSEC
0
SECTION
2
ENTITIES
0
ELLIPSE
5
100
100
AcDbEntity
8
0
100
AcDbEllipse
10
149.19104556587499
20
-475.3040485085188
30
0
11
38.901809308893675
21
0.25740175467463244
31
0.0
40
0.92226297660232415
41
3.1090811606216016
42
3.1153636546641468
0
ELLIPSE
5
101
100
AcDbEntity
8
0
100
AcDbEllipse
10
129.7930469117953
20
-473.21217706365695
30
0
11
19.344816857152672
21
3.4273647752693801
31
0.0
40
0.71565479532564735
41
2.9978075639574735
42
3.3042411068952613
0
SPLINE
5
102
100
AcDbEntity
8
0
100
AcDbSpline
70
0
71
3
72
8
73
4
74
0
42
0.000000001
43
0.0000000001
44
0.0000000001
40
105
40
105
40
105
40
105
40
106
40
106
40
106
40
106
10
130.849227876681
20
-481.28441089809911
30
0
10
130.84927261167093
20
-481.28438856470092
30
0
10
130.87747765966714
20
-481.27030753845429
30
0
10
130.93035987537891
20
-481.23854806444115
30
0
0
SPLINE
5
103
100
AcDbEntity
8
0
100
AcDbSpline
70
0
71
3
72
11
73
7
74
0
42
0.000000001
43
0.0000000001
44
0.0000000001
40
102
40
102
40
102
40
102
40
103
40
103
40
103
40
104
40
104
40
104
40
104
10
111.10073476687205
20
-478.83613225904975
30
0
10
112.70589088123829
20
-482.64259672980586
30
0
10
116.41358877077823
20
-485.10146903747659
30
0
10
120.54460276817407
20
-485.10146903747659
30
0
10
121.91333920480602
20
-485.10146903747659
30
0
10
123.25391198583895
20
-484.8298232583968
30
0
10
124.52394643679386
20
-484.29008445495674
30
0
0
ELLIPSE
5
104
100
AcDbEntity
8
0
100
AcDbEllipse
10
119.08719088650081
20
-464.88151284714036
30
0
11
36.190696569944045
21
17.13684143913795
31
0.0
40
0.49796071594756053
41
4.6275683140702899
42
4.8026819059404326
0
SPLINE
5
105
100
AcDbEntity
8
0
100
AcDbSpline
70
0
71
3
72
8
73
4
74
0
42
0.000000001
43
0.0000000001
44
0.0000000001
40
106
40
106
40
106
40
106
40
107
40
107
40
107
40
107
10
130.93035987537891
20
-481.23854806444115
30
0
10
130.94095354399872
20
-481.23148561869465
30
0
10
130.95507843549174
20
-481.2244447047965
30
0
10
130.97273454985807
20
-481.2138510361745
30
0
0
SPLINE
5
106
100
AcDbEntity
8
0
100
AcDbSpline
70
0
71
3
72
8
73
4
74
0
42
0.000000001
43
0.0000000001
44
0.0000000001
40
94.078974813519878
40
94.078974813519878
40
94.078974813519878
40
94.078974813519878
40
94.921035741454702
40
94.921035741454702
40
94.921035741454702
40
94.921035741454702
10
55.43376286330151
20
-442.09558977842852
30
0
10
79.93571222459839
20
-451.92359253595129
30
0
10
107.30648143638724
20
-451.92346934341714
30
0
10
131.80835887723475
20
-442.09522020082636
30
0
0
ELLIPSE
5
107
100
AcDbEntity
8
0
100
AcDbEllipse
10
149.19104556587499
20
-475.3040485085188
30
0
11
38.901809308893675
21
0.25740175467463244
31
0.0
40
0.92226297660232415
41
2.8465154763278595
42
2.9675369567218848
0
ARC
5
108
100
AcDbEntity
8
0
100
AcDbCircle
10
132.69122976606246
20
-444.43909141923541
30
0
40
2.5046286988042987
210
0
220
0
230
1
100
AcDbArc
50
-64.206634457381369
51
110.63999168858813
0
ARC
5
109
100
AcDbEntity
8
0
100
AcDbCircle
10
54.549927538948815
20
-444.43909141923541
30
0
40
2.5046286792733392
210
0
220
-0
230
1
100
AcDbArc
50
69.336381879191379
51
249.68080387268097
0
SPLINE
5
110
100
AcDbEntity
8
0
100
AcDbSpline
70
0
71
3
72
8
73
4
74
0
42
0.000000001
43
0.0000000001
44
0.0000000001
40
99
40
99
40
99
40
99
40
100
40
100
40
100
40
100
10
133.65732520741017
20
-446.74041692701843
30
0
10
126.92280948746662
20
-448.84295870219205
30
0
10
114.071096094997
20
-458.40324939907651
30
0
10
111.90154721261851
20
-465.11659931362777
30
0
0
SPLINE
5
111
100
AcDbEntity
8
0
100
AcDbSpline
70
0
71
3
72
8
73
4
74
0
42
0.000000001
43
0.0000000001
44
0.0000000001
40
98.96259677029272
40
98.96259677029272
40
98.96259677029272
40
98.96259677029272
40
99
40
99
40
99
40
99
10
133.78106095149892
20
-446.69418186223857
30
0
10
133.73961812908763
20
-446.70864451407374
30
0
10
133.69836316272676
20
-446.72405441547568
30
0
10
133.65732520741017
20
-446.74041692701843
30
0
0
ARC
5
112
100
AcDbEntity
8
0
100
AcDbCircle
10
109.36062560259785
20
-469.07316010101005
30
0
40
1.5000000000000235
210
0
220
0
230
1
100
AcDbArc
50
291.74848396494622
51
349.58486865244299
0
ARC
5
113
100
AcDbEntity
8
0
100
AcDbCircle
10
108.80269217545568
20
-474.35214043227796
30
0
40
1.4999999999999951
210
0
220
0
230
1
100
AcDbArc
50
-1.6405512840772365
51
56.18517281978184
0
ARC
5
114
100
AcDbEntity
8
0
100
AcDbCircle
10
110.47222435786837
20
-471.85961860314279
30
0
40
1.5000004628044015
210
0
220
0
230
1
100
AcDbArc
50
111.74848396494706
51
236.18517281978006
0
SPLINE
5
115
100
AcDbEntity
8
0
100
AcDbSpline
70
0
71
3
72
12
73
8
74
0
42
0.000000001
43
0.0000000001
44
0.0000000001
40
0
40
0
40
0
40
0
40
0.058596671008034201
40
0.058596671008034201
40
0.11113993269248787
40
0.11113993269248787
40
0.1636831943769409
40
0.1636831943769409
40
0.1636831943769409
40
0.1636831943769409
10
56.237650414326943
20
-448.74101586457925
30
-4.163336342344337e-16
10
56.225688728226487
20
-448.54606024344321
30
-4.163336342344337e-16
10
56.175762234388515
20
-448.35530488758798
30
-4.0594334045635331e-16
10
56.014389474876012
20
-448.02183192412031
30
-4.0594334045635331e-16
10
55.911071655783303
20
-447.87875041078081
30
-3.8014915726268128e-16
10
55.659765817504336
20
-447.63472716047715
30
-3.8014915726268128e-16
10
55.513708740085661
20
-447.53566040854923
30
-3.4195708321755446e-16
10
55.353879088725186
20
-447.46403656261487
30
-3.4195708321755446e-16
0
SPLINE
5
116
100
AcDbEntity
8
0
100
AcDbSpline
70
0
71
3
72
12
73
8
74
0
42
0.000000001
43
0.0000000001
44
0.0000000001
40
0
40
0
40
0
40
0
40
0.058596671008040085
40
0.058596671008040085
40
0.11001567176556114
40
0.11001567176556114
40
0.16143467252308191
40
0.16143467252308191
40
0.16143467252308191
40
0.16143467252308191
10
60.016828393207291
20
-449.97120076582831
30
1.3877787807814454e-16
10
59.850417630944577
20
-449.86893525673514
30
1.3877787807814454e-16
10
59.665623118297269
20
-449.80015118394306
30
1.1799729052198383e-16
10
59.303683411983897
20
-449.74113927897929
30
1.1799729052198383e-16
10
59.131037819218491
20
-449.74275526448616
30
6.7793801726566521e-17
10
58.793803705975392
20
-449.80424043103255
30
6.7793801726566521e-17
10
58.631696465960729
20
-449.86365722028677
30
-6.3313432214684638e-18
10
58.483151715321412
20
-449.94916321579308
30
-6.3313432214684638e-18
0
ARC
5
117
100
AcDbEntity
8
0
100
AcDbCircle
10
57.734834979476602
20
-448.64915469279885
30
0
40
1.5000000323344256
210
-2.7703478411341527e-16
220
-1.6997730597124414e-17
230
1
100
AcDbArc
50
183.5110352075038
51
299.92578444524895
0
LINE
5
118
100
AcDbEntity
8
0
100
AcDbLine
10
60.068617158079967
20
-450.00306669007853
30
0
11
60.016828393207291
21
-449.97120076582831
31
1.3877787807814454e-16
0
SPLINE
5
119
100
AcDbEntity
8
0
100
AcDbSpline
70
0
71
3
72
8
73
4
74
0
42
0.000000001
43
0.0000000001
44
0.0000000001
40
89.898349842581268
40
89.898349842581268
40
89.898349842581268
40
89.898349842581268
40
89.972717875588984
40
89.972717875588984
40
89.972717875588984
40
89.972717875588984
10
55.353879088725222
20
-447.46403656261464
30
0
10
54.767099496904038
20
-447.20108528464891
30
0
10
54.206772675026258
20
-446.9742414128288
30
0
10
53.680195584973163
20
-446.7878636834775
30
0
0
SPLINE
5
120
100
AcDbEntity
8
0
100
AcDbSpline
70
0
71
3
72
8
73
4
74
0
42
0.000000001
43
0.0000000001
44
0.0000000001
40
89.547073407717946
40
89.547073407717946
40
89.547073407717946
40
89.547073407717946
40
89.556258758668974
40
89.556258758668974
40
89.556258758668974
40
89.556258758668974
10
64.670398817815169
20
-453.14763470517437
30
0
10
64.587167320048948
20
-453.08503781591639
30
0
10
64.503813561722993
20
-453.02267767223145
30
0
10
64.420351291816559
20
-452.9605624868762
30
0
0
SPLINE
5
121
100
AcDbEntity
8
0
100
AcDbSpline
70
0
71
3
72
12
73
8
74
0
42
0.000000001
43
0.0000000001
44
0.0000000001
40
0
40
0
40
0
40
0
40
0.058596671008041251
40
0.058596671008041251
40
0.10979232965720552
40
0.10979232965720552
40
0.16098798830636127
40
0.16098798830636127
40
0.16098798830636127
40
0.16098798830636127
10
60.779824428454425
20
-451.35774441799038
30
5.5511151231257827e-16
10
60.789926964188297
20
-451.16268361998459
30
5.5511151231257827e-16
10
60.761833202816504
20
-450.96751445964799
30
2.7755575615628914e-16
10
60.640588706694913
20
-450.62220726716936
30
2.7755575615628914e-16
10
60.556987728372064
20
-450.47201447989465
30
2.7755575615628914e-16
10
60.342867379171288
20
-450.2062304258767
30
2.7755575615628914e-16
10
60.213909768502099
20
-450.09257774629373
30
5.5511151231257827e-16
10
60.068617158080038
20
-450.00306669007864
30
5.5511151231257827e-16
0
SPLINE
5
122
100
AcDbEntity
8
0
100
AcDbSpline
70
0
71
3
72
12
73
8
74
0
42
0.000000001
43
0.0000000001
44
0.0000000001
40
0
40
0
40
0
40
0
40
0.058596671008032501
40
0.058596671008032501
40
0.10968374443963456
40
0.10968374443963456
40
0.1607708178712334
40
0.1607708178712334
40
0.1607708178712334
40
0.1607708178712334
10
65.253495015310563
20
-454.56018317289107
30
2.7755575615628914e-16
10
65.281328097047833
20
-454.36685418978726
30
2.7755575615628914e-16
10
65.271133629955983
20
-454.16993711735535
30
2.7755575615628914e-16
10
65.181943699964847
20
-453.81537027881643
30
2.7755575615628914e-16
10
65.112581006633107
20
-453.65849831405058
30
2.7755575615628914e-16
10
64.92417241286303
20
-453.37477790299147
30
2.7755575615628914e-16
10
64.806494901285149
20
-453.24999008377574
30
2.7755575615628914e-16
10
64.670398817815069
20
-453.14763470517448
30
2.7755575615628914e-16
0
ARC
5
123
100
AcDbEntity
8
0
100
AcDbCircle
10
66.738187589848479
20
-454.77393058478128
30
0
40
1.4999999989926118
210
1.8314887588400659e-16
220
-2.6367477605922497e-17
230
1
100
AcDbArc
50
171.80756346614177
51
289.1888652059136
0
SPLINE
5
124
100
AcDbEntity
8
0
100
AcDbSpline
70
0
71
3
72
12
73
8
74
0
42
0.000000001
43
0.0000000001
44
0.0000000001
40
0
40
0
40
0
40
0
40
0.058596671008040689
40
0.058596671008040689
40
0.10964741278367793
40
0.10964741278367793
40
0.16069815455931788
40
0.16069815455931788
40
0.16069815455931788
40
0.16069815455931788
10
64.420351291816175
20
-452.96056248687592
30
9.7144514654701197e-16
10
64.263660657422136
20
-452.84394850297986
30
9.7144514654701197e-16
10
64.085690766731545
20
-452.7590545775081
30
9.7144514654701197e-16
10
63.731596036609936
20
-452.66849593357648
30
9.7144514654701197e-16
10
63.560753860591532
20
-452.65469311271829
30
9.7144514654701197e-16
10
63.221766985121619
20
-452.68499232185627
30
9.7144514654701197e-16
10
63.056080799442256
20
-452.72887460581444
30
-4.163336342344337e-16
10
62.901308649413103
20
-452.79960732475814
30
-4.163336342344337e-16
0
ARC
5
125
100
AcDbEntity
8
0
100
AcDbCircle
10
62.277816735226146
20
-451.43532802762877
30
0
40
1.5000000558772684
210
3.6957898350732067e-16
220
-1.9141134074837218e-17
230
1
100
AcDbArc
50
177.03520160429309
51
294.56096611816429
0
SPLINE
5
126
100
AcDbEntity
8
0
100
AcDbSpline
70
0
71
3
72
8
73
4
74
0
42
0.000000001
43
0.0000000001
44
0.0000000001
40
89.203341444041442
40
89.203341444041442
40
89.203341444041442
40
89.203341444041442
40
89.224615403120978
40
89.224615403120978
40
89.224615403120978
40
89.224615403120978
10
72.780253788999019
20
-460.73930884261466
30
0
10
72.653269932671961
20
-460.57992882266603
30
0
10
72.52287030529331
20
-460.42017014251542
30
0
10
72.389225722707295
20
-460.26013483657607
30
0
0
SPLINE
5
127
100
AcDbEntity
8
0
100
AcDbSpline
70
0
71
3
72
12
73
8
74
0
42
0.000000001
43
0.0000000001
44
0.0000000001
40
0
40
0
40
0
40
0
40
0.058596671008038899
40
0.058596671008038899
40
0.10995046526600152
40
0.10995046526600152
40
0.1613042595239636
40
0.1613042595239636
40
0.1613042595239636
40
0.1613042595239636
10
68.732975347879929
20
-456.49709517387146
30
-1.3877787807814454e-16
10
68.58841655293206
20
-456.36574247709603
30
-1.3877787807814454e-16
10
68.419583716324638
20
-456.26388113085744
30
1.1799729052198383e-16
10
68.075070604149431
20
-456.13884472679166
30
1.1799729052198383e-16
10
67.905345347424529
20
-456.10841779701269
30
6.7873787101331801e-17
10
67.562994225276398
20
-456.10615072962491
30
6.7873787101331801e-17
10
67.392880893510863
20
-456.13432723014824
30
4.7654128766741454e-16
10
67.231212256829892
20
-456.19059097976896
30
4.7654128766741454e-16
0
SPLINE
5
128
100
AcDbEntity
8
0
100
AcDbSpline
70
0
71
3
72
12
73
8
74
0
42
0.000000001
43
0.0000000001
44
0.0000000001
40
0
40
0
40
0
40
0
40
0.058596671008039225
40
0.058596671008039225
40
0.10753855821915133
40
0.10753855821915133
40
0.15648044543026488
40
0.15648044543026488
40
0.15648044543026488
40
0.15648044543026488
10
69.142733127956149
20
-457.93104526699221
30
2.0856596838637167e-16
10
69.189528637740722
20
-457.74141152418542
30
2.0856596838637167e-16
10
69.198837070148599
20
-457.54445057967979
30
-1.2057852045009098e-28
10
69.146161125343511
20
-457.18988020523034
30
-1.2057852045009098e-28
10
69.096021937702432
20
-457.03349811970327
30
-6.363176635493376e-29
10
68.947369126682759
20
-456.74304934711199
30
-6.363176635493376e-29
10
68.849846235479149
20
-456.61091842528663
30
-1.7347234759768071e-16
10
68.732975347879929
20
-456.49709517387146
30
-1.7347234759768071e-16
0
ARC
5
129
100
AcDbEntity
8
0
100
AcDbCircle
10
70.599047678453289
20
-458.29041686820864
30
0
40
1.5000000059168461
210
1.3499451204594431e-16
220
-3.3312304634200031e-17
230
1
100
AcDbArc
50
166.13818410209495
51
282.29516670792316
0
SPLINE
5
130
100
AcDbEntity
8
0
100
AcDbSpline
70
0
71
3
72
12
73
8
74
0
42
0.000000001
43
0.0000000001
44
0.0000000001
40
0
40
0
40
0
40
0
40
0.058596671008036311
40
0.058596671008036311
40
0.11124483453818038
40
0.11124483453818038
40
0.163892998068324
40
0.163892998068324
40
0.163892998068324
40
0.163892998068324
10
72.389225722707209
20
-460.26013483657607
30
2.7755575615628914e-16
10
72.264027728797728
20
-460.11021406260534
30
2.7755575615628914e-16
10
72.110743835049419
20
-459.98618056514687
30
2.7755575615628914e-16
10
71.782796119441045
20
-459.81310576321044
30
2.7755575615628914e-16
10
71.614412913743706
20
-459.75906526580951
30
2.7755575615628914e-16
10
71.266642582531261
20
-459.71165005517651
30
2.7755575615628914e-16
10
71.089938297623192
20
-459.71864112200421
30
-4.163336342344337e-16
10
70.918469627243198
20
-459.75601218629009
30
-4.163336342344337e-16
0
ARC
5
131
100
AcDbEntity
8
0
100
AcDbCircle
10
76.229874369791474
20
-468.46463489184316
30
0
40
1.5000009576751616
210
0
220
0
230
1
100
AcDbArc
50
134.22305296672965
51
249.69477797736209
0
ARC
5
132
100
AcDbEntity
8
0
100
AcDbCircle
10
73.925694712619659
20
-465.62717860443371
30
0
40
1.5000000000000302
210
0
220
-0
230
1
100
AcDbArc
50
19.900422541009053
51
80.195085298736913
0
SPLINE
5
133
100
AcDbEntity
8
0
100
AcDbSpline
70
0
71
3
72
8
73
4
74
0
42
0.000000001
43
0.0000000001
44
0.0000000001
40
87.815453161462543
40
87.815453161462543
40
87.815453161462543
40
87.815453161462543
40
88
40
88
40
88
40
88
10
76.871554884580149
20
-476.11511457794967
30
0
10
76.931685547803482
20
-475.62251198807814
30
0
10
76.956488427804373
20
-475.12211014424099
30
0
10
76.944766206759084
20
-474.61690228536128
30
0
0
ARC
5
134
100
AcDbEntity
8
0
100
AcDbCircle
10
74.436576771514481
20
-462.67099880633066
30
0
40
1.4999999128021158
210
0
220
0
230
1
100
AcDbArc
50
160.58986495737514
51
260.19508529873622
0
SPLINE
5
135
100
AcDbEntity
8
0
100
AcDbSpline
70
0
71
3
72
8
73
4
74
0
42
0.000000001
43
0.0000000001
44
0.0000000001
40
87.644358257275144
40
87.644358257275144
40
87.644358257275144
40
87.644358257275144
40
87.81545316027595
40
87.81545316027595
40
87.81545316027595
40
87.81545316027595
10
76.614170244816066
20
-477.46270609741998
30
0
10
76.729694328985985
20
-477.02180278094687
30
0
10
76.815807246935009
20
-476.5718105297002
30
0
10
76.871554883420302
20
-476.11511458745161
30
0
0
ARC
5
136
100
AcDbEntity
8
0
100
AcDbCircle
10
74.137513215290426
20
-466.31474407015332
30
0
40
1.5000000000000024
210
0
220
0
230
1
100
AcDbArc
50
-45.776947033269387
51
16.544798856786702
0
SPLINE
5
137
100
AcDbEntity
8
0
100
AcDbSpline
70
0
71
3
72
12
73
8
74
0
42
0.000000001
43
0.0000000001
44
0.0000000001
40
0
40
0
40
0
40
0
40
0.058596671008030898
40
0.058596671008030898
40
0.10534802819769802
40
0.10534802819769802
40
0.15209938538736406
40
0.15209938538736406
40
0.15209938538736406
40
0.15209938538736406
10
73.021831022875617
20
-462.17250687548864
30
-4.163336342344337e-16
10
73.086742065919481
20
-461.98828599546169
30
-4.163336342344337e-16
10
73.115050089680125
20
-461.79314779734256
30
-4.0594334045635331e-16
10
73.097272284396141
20
-461.44243800099798
30
-4.0594334045635331e-16
10
73.065176524734952
20
-461.28897582264563
30
-3.8365704156549486e-16
10
72.954886158286342
20
-460.9974663268506
30
-3.8365704156549486e-16
10
72.877362183418214
20
-460.86119156288612
30
-3.5118771590292641e-16
10
72.780253788998905
20
-460.73930884261449
30
-3.5118771590292641e-16
0
ELLIPSE
5
138
100
AcDbEntity
8
0
100
AcDbEllipse
10
42.84755675590236
20
-475.98518176973982
30
0
11
28.637376063623972
21
18.883273433689837
31
0.0
40
0.98095134588613453
41
5.7317982256672444
42
5.8366279784196147
0
ELLIPSE
5
139
100
AcDbEntity
8
0
100
AcDbEllipse
10
42.84755675590236
20
-475.98518176973982
30
0
11
28.637376063623972
21
18.883273433689837
31
0.0
40
0.98095134588613453
41
5.9942912852276544
42
6.0182476560653413
0
ARC
5
140
100
AcDbEntity
8
0
100
AcDbCircle
10
75.18881064528037
20
-471.27820772146032
30
0
40
1.5000000000000036
210
0
220
-0
230
1
100
AcDbArc
50
7.3829099772321145
51
69.694777977364566
0
SPLINE
5
141
100
AcDbEntity
8
0
100
AcDbSpline
70
0
71
3
72
8
73
4
74
0
42
0.000000001
43
0.0000000001
44
0.0000000001
40
86.5278180718351
40
86.5278180718351
40
86.5278180718351
40
86.5278180718351
40
86.715877232670309
40
86.715877232670309
40
86.715877232670309
40
86.715877232670309
10
71.040077314748103
20
-484.14014954474021
30
0
10
71.492683295252561
20
-483.92845828040379
30
0
10
71.929859186931537
20
-483.68303926988574
30
0
10
72.348507884233271
20
-483.40530028036233
30
0
0
SPLINE
5
142
100
AcDbEntity
8
0
100
AcDbSpline
70
0
71
3
72
8
73
4
74
0
42
0.000000001
43
0.0000000001
44
0.0000000001
40
87.268308642276381
40
87.268308642276381
40
87.268308642276381
40
87.268308642276381
40
87.644358256324864
40
87.644358256324864
40
87.644358256324864
40
87.644358256324864
10
75.436333662094398
20
-480.2128462450512
30
0
10
75.964270790323397
20
-479.35692302380568
30
0
10
76.360259771998543
20
-478.43176783043106
30
0
10
76.614170242891163
20
-477.46270610476637
30
0
0
SPLINE
5
143
100
AcDbEntity
8
0
100
AcDbSpline
70
0
71
3
72
11
73
7
74
0
42
0.000000001
43
0.0000000001
44
0.0000000001
40
86.715877232670479
40
86.715877232670479
40
86.715877232670479
40
86.715877232670479
40
87
40
87
40
87
40
87.085822312294269
40
87.085822312294269
40
87.085822312294269
40
87.085822312294269
10
72.348507884234309
20
-483.40530028036147
30
0
10
72.981008985951306
20
-482.98568780337172
30
0
10
73.571220568988295
20
-482.49230288528503
30
0
10
74.108462156737403
20
-481.93000026035179
30
0
10
74.270742631474107
20
-481.76014978897967
30
0
10
74.426527092277979
20
-481.58575224621296
30
0
10
74.575695121469792
20
-481.40710867065422
30
0
0
SPLINE
5
144
100
AcDbEntity
8
0
100
AcDbSpline
70
0
71
3
72
8
73
4
74
0
42
0.000000001
43
0.0000000001
44
0.0000000001
40
87.085822312294269
40
87.085822312294269
40
87.085822312294269
40
87.085822312294269
40
87.268308642276267
40
87.268308642276267
40
87.268308642276267
40
87.268308642276267
10
74.575695121469792
20
-481.40710867065422
30
0
10
74.892875181877983
20
-481.02725394981206
30
0
10
75.180140581732488
20
-480.62820177675968
30
0
10
75.436333662093801
20
-480.21284624505222
30
0
0
LINE
5
145
100
AcDbEntity
8
0
100
AcDbLine
10
45.0924899345152
20
-464.80262192376125
30
0
11
43.64610965836502
21
-457.9622771768544
31
0
0
ELLIPSE
5
146
100
AcDbEntity
8
0
100
AcDbEllipse
10
28.520659190113751
20
-461.52927400746478
30
0
11
13.875238922542255
21
7.095423675916126
31
0.0
40
0.95385209598689435
41
6.0308898816659298
42
6.5788346802485469
0
LINE
5
147
100
AcDbEntity
8
0
100
AcDbLine
10
39.821967541394486
20
-450.88555581590742
30
0
11
21.974951821450968
21
-432.9115237317572
31
0
0
SPLINE
5
148
100
AcDbEntity
8
0
100
AcDbSpline
70
0
71
3
72
11
73
7
74
0
42
0.000000001
43
0.0000000001
44
0.0000000001
40
84
40
84
40
84
40
84
40
85
40
85
40
85
40
86
40
86
40
86
40
86
10
62.713722709037789
20
-484.29008445495674
30
0
10
63.983714096299032
20
-484.82629203552528
30
0
10
65.324286877332057
20
-485.09793781460553
30
0
10
66.7001288234041
20
-485.09793781460553
30
0
10
66.777729599228749
20
-485.09793781460553
30
0
10
66.85537343874698
20
-485.09793781460553
30
0
10
66.93297421457163
20
-485.09440659173003
30
0
0
SPLINE
5
149
100
AcDbEntity
8
0
100
AcDbSpline
70
0
71
3
72
8
73
4
74
0
42
0.000000001
43
0.0000000001
44
0.0000000001
40
86.152749480233396
40
86.152749480233396
40
86.152749480233396
40
86.152749480233396
40
86.5278180718351
40
86.5278180718351
40
86.5278180718351
40
86.5278180718351
10
68.172461669232234
20
-484.99310717725251
30
0
10
69.17332988972575
20
-484.85039234311813
30
0
10
70.137391761412786
20
-484.56235043097388
30
0
10
71.040077314748103
20
-484.14014954474021
30
0
0
SPLINE
5
150
100
AcDbEntity
8
0
100
AcDbSpline
70
0
71
3
72
8
73
4
74
0
42
0.000000001
43
0.0000000001
44
0.0000000001
40
86
40
86
40
86
40
86
40
86.152749480233382
40
86.152749480233382
40
86.152749480233382
40
86.152749480233382
10
66.93297421457163
20
-485.09440659173003
30
0
10
67.3511349290293
20
-485.08524678687081
30
0
10
67.764850624517123
20
-485.05122885745658
30
0
10
68.172461669231993
20
-484.99310717725257
30
0
0
SPLINE
5
151
100
AcDbEntity
8
0
100
AcDbSpline
70
0
71
3
72
14
73
10
74
0
42
0.000000001
43
0.0000000001
44
0.0000000001
40
81
40
81
40
81
40
81
40
82
40
82
40
82
40
83
40
83
40
83
40
84
40
84
40
84
40
84
10
45.0924899345152
20
-464.80262192376125
30
0
10
46.984454709277976
20
-470.35381911338897
30
0
10
49.324446164805941
20
-474.17587558089025
30
0
10
51.378738741954812
20
-476.73038400966004
30
0
10
53.27943669726551
20
-479.09389785447678
30
0
10
55.700680584159215
20
-480.97956820732406
30
0
10
58.419590864944134
20
-482.32358357070223
30
0
10
59.833927578731689
20
-483.02272038509443
30
0
10
61.26760961689083
20
-483.6785109736428
30
0
10
62.713722709037789
20
-484.29008445495674
30
0
0
SPLINE
5
152
100
AcDbEntity
8
0
100
AcDbSpline
70
0
71
3
72
11
73
7
74
0
42
0.000000001
43
0.0000000001
44
0.0000000001
40
74
40
74
40
74
40
74
40
75
40
75
40
75
40
76
40
76
40
76
40
76
10
21.780928350042551
20
-432.7175002603517
30
0
10
21.833832097601146
20
-432.77393523078331
30
0
10
21.879694931259998
20
-432.81626684156606
30
0
10
21.911454405272583
20
-432.8480263155792
30
0
10
21.922026542045593
20
-432.85859845235268
30
0
10
21.929088987792117
20
-432.86919212097428
30
0
10
21.939682656411904
20
-432.87623303487237
30
0
0
SPLINE
5
153
100
AcDbEntity
8
0
100
AcDbSpline
70
0
71
3
72
14
73
10
74
0
42
0.000000001
43
0.0000000001
44
0.0000000001
40
70
40
70
40
70
40
70
40
71
40
71
40
71
40
72
40
72
40
72
40
73
40
73
40
73
40
73
10
48.860175549207057
20
-298.0022519828978
30
0
10
27.756624234253632
20
-332.07048105790648
30
0
10
16.117180950358545
20
-371.10957366636251
30
0
10
15.107605854776953
20
-411.13163427382204
30
0
10
15.086853698125857
20
-411.95430123034259
30
0
10
15.115562290102496
20
-412.78027127566588
30
0
10
15.192773214723957
20
-413.59956978444222
30
0
10
16.386110335979946
20
-426.26227689094748
30
0
10
20.750195119355826
20
-431.61159583949927
30
0
10
21.763293767523024
20
-432.69633445495685
30
0
0
ELLIPSE
5
154
100
AcDbEntity
8
0
100
AcDbEllipse
10
26.614247090269735
20
-283.98943393786516
30
0
11
23.547610489529003
21
-12.050279726349928
31
0.0
40
0.62687057927439982
41
6.1415914019580278
42
6.3977440219429349
0
LINE
5
155
100
AcDbEntity
8
0
100
AcDbLine
10
21.974951821450968
20
-432.9115237317572
30
0
11
21.971421035371918
21
-432.90799294597616
31
0
0
LINE
5
156
100
AcDbEntity
8
0
100
AcDbLine
10
21.971421035371918
20
-432.90799294597616
30
0
11
21.939682656411904
21
-432.87623303487237
31
0
0
SPLINE
5
157
100
AcDbEntity
8
0
100
AcDbSpline
70
0
71
3
72
8
73
4
74
0
42
0.000000001
43
0.0000000001
44
0.0000000001
40
73
40
73
40
73
40
73
40
74
40
74
40
74
40
74
10
21.763293767523024
20
-432.69633445495685
30
0
10
21.770334681422767
20
-432.70337536885893
30
0
10
21.77386590429602
20
-432.71043781460548
30
0
10
21.780928350042551
20
-432.7175002603517
30
0
0
LINE
5
158
100
AcDbEntity
8
0
100
AcDbLine
10
30.642991662239094
20
-288.45741858502998
30
0
11
30.649745764564091
21
-288.47018822557754
31
0
0
SPLINE
5
159
100
AcDbEntity
8
0
100
AcDbSpline
70
0
71
3
72
8
73
4
74
0
42
0.000000001
43
0.0000000001
44
0.0000000001
40
52
40
52
40
52
40
52
40
53
40
53
40
53
40
53
10
38.075734766871989
20
-303.45618264696031
30
0
10
38.100453326984848
20
-303.41385103617495
30
0
10
38.121597600530812
20
-303.37151942538918
30
0
10
38.146273096950111
20
-303.32565659173036
30
0
0
SPLINE
5
160
100
AcDbEntity
8
0
100
AcDbSpline
70
0
71
3
72
8
73
4
74
0
42
0.000000001
43
0.0000000001
44
0.0000000001
40
68
40
68
40
68
40
68
40
69
40
69
40
69
40
69
10
43.822498547253936
20
-281.16415400790902
30
0
10
49.378748547253934
20
-282.83631722948036
30
0
10
52.53962365576087
20
-288.71713828796504
30
0
10
50.870991657062959
20
-294.27338828796508
30
0
0
SPLINE
5
161
100
AcDbEntity
8
0
100
AcDbSpline
70
0
71
3
72
11
73
7
74
0
42
0.000000001
43
0.0000000001
44
0.0000000001
40
66
40
66
40
66
40
66
40
67
40
67
40
67
40
68
40
68
40
68
40
68
10
30.642991662239094
20
-288.45741858502998
30
0
10
31.887454512031145
20
-283.91382625662789
30
0
10
36.100213862044747
20
-280.71614087178693
30
0
10
40.788575207410176
20
-280.71614087178693
30
0
10
41.811639375704452
20
-280.71614087178693
30
0
10
42.831172321125457
20
-280.86783273240957
30
0
10
43.822498547253936
20
-281.16415400790902
30
0
0
SPLINE
5
162
100
AcDbEntity
8
0
100
AcDbSpline
70
0
71
3
72
11
73
7
74
0
42
0.000000001
43
0.0000000001
44
0.0000000001
40
61.03090088218385
40
61.03090088218385
40
61.03090088218385
40
61.03090088218385
40
62
40
62
40
62
40
63
40
63
40
63
40
63
10
43.1236955761308
20
-292.14178325547056
30
0
10
43.580242119795159
20
-290.95058421042813
30
0
10
43.029679842147686
20
-289.54114845932293
30
0
10
41.86831235840495
20
-288.98773131333206
30
0
10
40.605059458719701
20
-288.38576352605116
30
0
10
39.097135387631567
20
-288.93456665133562
30
0
10
38.52023821196746
20
-290.20231895202755
30
0
0
ARC
5
163
100
AcDbEntity
8
0
100
AcDbCircle
10
-3.7515409436486813
20
-277.97933774983289
30
0
40
48.967976272413978
210
0
220
0
230
1
100
AcDbArc
50
328.8279225136265
51
343.18882426147206
0
ARC
5
164
100
AcDbEntity
8
0
100
AcDbCircle
10
34.628075792110899
20
-289.1404884842463
30
0
40
4.0344035798184654
210
0
220
0
230
1
100
AcDbArc
50
170.43618211904126
51
344.74033756317351
0
SPLINE
5
165
100
AcDbEntity
8
0
100
AcDbSpline
70
0
71
3
72
8
73
4
74
0
42
0.000000001
43
0.0000000001
44
0.0000000001
40
47
40
47
40
47
40
47
40
48
40
48
40
48
40
48
10
17.49113851443057
20
-439.07100995137512
30
0
10
17.882738211967467
20
-438.68296300856088
30
0
10
17.882738211967467
20
-438.04796731493002
30
0
10
17.494669737303838
20
-437.65638914924079
30
0
0
SPLINE
5
166
100
AcDbEntity
8
0
100
AcDbSpline
70
0
71
3
72
8
73
4
74
0
42
0.000000001
43
0.0000000001
44
0.0000000001
40
51
40
51
40
51
40
51
40
52
40
52
40
52
40
52
10
8.5164709864900381
20
-414.70113656541884
30
0
10
8.8798424328876067
20
-375.72623303487256
30
0
10
19.043369349391511
20
-337.47100995137629
30
0
10
38.075734766871989
20
-303.45618264696031
30
0
0
ELLIPSE
5
167
100
AcDbEntity
8
0
100
AcDbEllipse
10
21.694481127348975
20
-424.0184534493585
30
0
11
-4.317276126952855
21
11.867364100159568
31
0.0
40
0.99614313097123641
41
1.3587745383055396
42
2.0060761266813256
0
SPLINE
5
168
100
AcDbEntity
8
0
100
AcDbSpline
70
0
71
3
72
8
73
4
74
0
42
0.000000001
43
0.0000000001
44
0.0000000001
40
45
40
45
40
45
40
45
40
46
40
46
40
46
40
46
10
10.520267712292988
20
-439.40615314663665
30
0
10
12.672203543998721
20
-440.10817747931696
30
0
10
14.997018573566852
20
-440.06937709140567
30
0
10
17.124257377006529
20
-439.30385534254344
30
0
0
ELLIPSE
5
169
100
AcDbEntity
8
0
100
AcDbEllipse
10
10.858069584271258
20
-438.40984178365767
30
0
11
-0.56738203259743303
21
-0.88836129791826368
31
0.0
40
0.96723006544216739
41
5.6083179292408856
42
6.5325272429406969
0
ELLIPSE
5
170
100
AcDbEntity
8
0
100
AcDbEllipse
10
15.31251013985996
20
-436.42237338395751
30
0
11
2.0839495850588654
21
-2.7300813225345903
31
0.0
40
0.55736377993661768
41
6.1214648713921891
42
6.3483603521220564
0
LINE
5
171
100
AcDbEntity
8
0
100
AcDbLine
10
12.795667630401484
20
-432.92209634801679
30
0
11
17.494669737303838
21
-437.65638914924079
31
0
0
ELLIPSE
5
172
100
AcDbEntity
8
0
100
AcDbEllipse
10
73.238706502511562
20
-412.84111916919386
30
0
11
14.578099388867303
21
68.890301042766808
31
0.0
40
0.91539685832952422
41
1.7886466572808613
42
1.9467978060258648
0
SPLINE
5
173
100
AcDbEntity
8
0
100
AcDbSpline
70
0
71
3
72
8
73
4
74
0
42
0.000000001
43
0.0000000001
44
0.0000000001
40
38
40
38
40
38
40
38
40
38.999999991222808
40
38.999999991222808
40
38.999999991222808
40
38.999999991222808
10
18.60945957291581
20
-444.19335017489942
30
0
10
13.963360777432465
20
-445.99957065872115
30
0
10
8.68581905412311
20
-444.70135105896372
30
0
10
5.4120309346188797
20
-440.94074949809897
30
0
0
SPLINE
5
174
100
AcDbEntity
8
0
100
AcDbSpline
70
0
71
3
72
8
73
4
74
0
42
0.000000001
43
0.0000000001
44
0.0000000001
40
41
40
41
40
41
40
41
40
42
40
42
40
42
40
42
10
3.5987694348407304
20
-435.116384842868
30
0
10
3.2424604341896894
20
-433.78287450758364
30
0
10
4.0362104341896892
20
-432.41409500725894
30
0
10
5.3732304605026222
20
-432.05780753845431
30
0
0
SPLINE
5
175
100
AcDbEntity
8
0
100
AcDbSpline
70
0
71
3
72
8
73
4
74
0
42
0.000000001
43
0.0000000001
44
0.0000000001
40
42
40
42
40
42
40
42
40
43
40
43
40
43
40
43
10
5.3732304605026222
20
-432.05780753845431
30
0
10
6.7067407957890799
20
-431.70149853780123
30
0
10
8.0754987642678167
20
-432.49524853780144
30
0
10
8.4318077649188545
20
-433.82873734124161
30
0
0
ELLIPSE
5
176
100
AcDbEntity
8
0
100
AcDbEllipse
10
32.917411566872985
20
-434.74359706545852
30
0
11
-19.106392512174047
21
52.553215021633946
31
0.0
40
0.50259938577398799
41
1.3970418363058943
42
1.4997466322752824
0
SPLINE
5
177
100
AcDbEntity
8
0
100
AcDbSpline
70
0
71
3
72
8
73
4
74
0
42
0.000000001
43
0.0000000001
44
0.0000000001
40
43
40
43
40
43
40
43
40
44
40
44
40
44
40
44
10
8.4318077649188545
20
-433.82873734124161
30
0
10
8.872779987141076
20
-435.48679720316608
30
0
10
9.3560838201488892
20
-437.13073217359749
30
0
10
9.8782095729158179
20
-438.76058531623192
30
0
0
ELLIPSE
5
178
100
AcDbEntity
8
0
100
AcDbEllipse
10
10.407392143895846
20
-438.26630476042061
30
0
11
5.1448320128369298
21
2.4461046715315833
31
0.0
40
0.41745807777865612
41
3.0869601492100731
42
3.2555408348972694
0
LINE
5
179
100
AcDbEntity
8
0
100
AcDbLine
10
25.418066377657574
20
-445.63622076002366
30
0
11
34.15637882340409
21
-454.43800909010344
31
0
0
LINE
5
180
100
AcDbEntity
8
0
100
AcDbLine
10
37.567755437444923
20
-460.75273992506368
30
0
11
40.523991874076842
21
-474.68393092441408
31
0
0
SPLINE
5
181
100
AcDbEntity
8
0
100
AcDbSpline
70
0
71
3
72
8
73
4
74
0
42
0.000000001
43
0.0000000001
44
0.0000000001
40
33
40
33
40
33
40
33
40
34
40
34
40
34
40
34
10
45.89679053944144
20
-482.61439001051252
30
0
10
43.141618488117636
20
-480.77287881395227
30
0
10
41.211934378959647
20
-477.92949078633882
30
0
10
40.523991874076842
20
-474.68393092441408
30
0
0
ELLIPSE
5
182
100
AcDbEntity
8
0
100
AcDbEllipse
10
24.900187326015487
20
-463.5439186684269
30
0
11
10.839583918761084
21
7.157835127193426
31
0.0
40
0.98923892054933693
41
5.9128129374116725
42
6.4788409099450481
0
SPLINE
5
183
100
AcDbEntity
8
0
100
AcDbSpline
70
0
71
3
72
11
73
7
74
0
42
0.000000001
43
0.0000000001
44
0.0000000001
40
31
40
31
40
31
40
31
40
32
40
32
40
32
40
33
40
33
40
33
40
33
10
91.620356126343722
20
-497.29699939907653
30
0
10
91.620356118369926
20
-497.15880740672873
30
0
10
91.510520772453091
20
-497.04656751534935
30
0
10
91.372375884015412
20
-497.0429596700825
30
0
10
75.155519233079389
20
-496.61943397782238
30
0
10
59.390248427012942
20
-491.61706936370621
30
0
10
45.89679053944144
20
-482.61439001051252
30
0
0
SPLINE
5
184
100
AcDbEntity
8
0
100
AcDbSpline
70
0
71
3
72
8
73
4
74
0
42
0.000000001
43
0.0000000001
44
0.0000000001
40
37
40
37
40
37
40
37
40
38
40
38
40
38
40
38
10
25.418066377657574
20
-445.63622076002366
30
0
10
23.636542906249147
20
-443.84410361999693
30
0
10
20.96248132177648
20
-443.27613656541877
30
0
10
18.60945957291581
20
-444.19335017489942
30
0
0
LINE
5
185
100
AcDbEntity
8
0
100
AcDbLine
10
91.620356126343722
20
-497.29699939907653
30
0
11
91.620356213269517
21
-498.80334586853081
31
0
0
ELLIPSE
5
186
100
AcDbEntity
8
0
100
AcDbEllipse
10
75.552491022741123
20
-428.67031545991165
30
0
11
77.878840554170012
21
-41.711255572385717
31
0.0
40
0.77630560681967398
41
5.227336318936846
42
5.3223233789107658
0
ELLIPSE
5
187
100
AcDbEntity
8
0
100
AcDbEllipse
10
84.014900758232201
20
-499.54554376132393
30
0
11
0.381428203968872
21
-0.0035274587166464148
31
0.0
40
0.79886043959819442
41
3.1487330348609897
42
3.7509575305328715
0
SPLINE
5
188
100
AcDbEntity
8
0
100
AcDbSpline
70
0
71
3
72
8
73
4
74
0
42
0.000000001
43
0.0000000001
44
0.0000000001
40
27
40
27
40
27
40
27
40
28
40
28
40
28
40
28
10
83.91212731787023
20
-498.60932239712128
30
0
10
86.388634208061205
20
-498.85980237080992
30
0
10
88.872203543998722
20
-499.00796300856086
30
0
10
91.362835325682767
20
-499.05735706509017
30
0
0
LINE
5
189
100
AcDbEntity
8
0
100
AcDbLine
10
83.700512339211173
20
-499.71704980048628
30
0
11
85.556083820148871
21
-501.74905323208549
31
0
0
SPLINE
5
190
100
AcDbEntity
8
0
100
AcDbSpline
70
0
71
3
72
8
73
4
74
0
42
0.000000001
43
0.0000000001
44
0.0000000001
40
25
40
25
40
25
40
25
40
26
40
26
40
26
40
26
10
83.633462156737423
20
-498.86333359368507
30
0
10
83.633462156737423
20
-498.72221386983261
30
0
10
83.746332097601126
20
-498.60932239712128
30
0
10
83.887451821450995
20
-498.60932239712128
30
0
0
SPLINE
5
191
100
AcDbEntity
8
0
100
AcDbSpline
70
0
71
3
72
11
73
7
74
0
42
0.000000001
43
0.0000000001
44
0.0000000001
40
28
40
28
40
28
40
28
40
29
40
29
40
29
40
30
40
30
40
30
40
30
10
91.362835325682767
20
-499.05735706509017
30
0
10
91.36288532568274
20
-499.05735706509017
30
0
10
91.36293532568277
20
-499.05735706509017
30
0
10
91.366366548556002
20
-499.05735706509017
30
0
10
91.507443208712274
20
-499.05735706509017
30
0
10
91.620356213269517
20
-498.94446559238304
30
0
10
91.620356213269517
20
-498.80334586853081
30
0
0
LINE
5
192
100
AcDbEntity
8
0
100
AcDbLine
10
83.633462156737423
20
-498.86333359368507
30
0
11
83.633462156737423
21
-499.54419212097434
31
0
0
LINE
5
193
100
AcDbEntity
8
0
100
AcDbLine
10
83.91212731787023
20
-498.60932239712128
30
0
11
83.887451821450995
21
-498.60932239712128
31
0
0
ELLIPSE
5
194
100
AcDbEntity
8
0
100
AcDbEllipse
10
85.694982188890407
20
-501.56432171412894
30
0
11
-0.13107709001763101
21
0.24419406292928772
31
0.0
40
0.8079960470765799
41
1.9286420899738803
42
2.6842043764229064
0
SPLINE
5
195
100
AcDbEntity
8
0
100
AcDbSpline
70
0
71
3
72
8
73
4
74
0
42
0.000000001
43
0.0000000001
44
0.0000000001
40
19
40
19
40
19
40
19
40
20
40
20
40
20
40
20
10
101.51579010541366
20
-501.83018523078317
30
0
10
98.887569822753051
20
-502.0348023708101
30
0
10
96.255818317219195
20
-502.13356895202816
30
0
10
93.620578652505642
20
-502.11946559238294
30
0
0
ELLIPSE
5
196
100
AcDbEntity
8
0
100
AcDbEllipse
10
101.54034151872105
20
-501.62647697887053
30
0
11
0.16309230422452967
21
0.15128821021952388
31
0.0
40
0.83923021506590978
41
3.9318356810628314
42
4.8032735551197545
0
LINE
5
197
100
AcDbEntity
8
0
100
AcDbLine
10
101.68158532568276
20
-501.74905323208549
30
0
11
103.54073110476249
21
-499.71704978698801
31
0
0
ELLIPSE
5
198
100
AcDbEntity
8
0
100
AcDbEllipse
10
103.22751335979015
20
-499.54694139569915
30
0
11
0.38017891729749242
21
0.0073955602776242871
31
0.0
40
0.79924881373887924
41
5.6648713111043962
42
6.2678965568144847
0
LINE
5
199
100
AcDbEntity
8
0
100
AcDbLine
10
103.60773821196744
20
-499.54419212097406
30
0
11
103.60773821196744
21
-498.86333359368507
31
0
0
ELLIPSE
5
200
100
AcDbEntity
8
0
100
AcDbEllipse
10
86.422956681321466
20
-440.49296857514264
30
0
11
74.060393572100722
21
-14.528169565340647
31
0.0
40
0.76630631423681483
41
4.9881863490575116
42
5.0892958287538885
0
SPLINE
5
201
100
AcDbEntity
8
0
100
AcDbSpline
70
0
71
3
72
8
73
4
74
0
42
0.000000001
43
0.0000000001
44
0.0000000001
40
11
40
11
40
11
40
11
40
12
40
12
40
12
40
12
10
95.620844155435364
20
-498.80687709140551
30
0
10
95.624375378308613
20
-498.94799681525427
30
0
10
95.737245319172345
20
-499.06088828796555
30
0
10
95.878365043022157
20
-499.05735706509017
30
0
0
SPLINE
5
202
100
AcDbEntity
8
0
100
AcDbSpline
70
0
71
3
72
8
73
4
74
0
42
0.000000001
43
0.0000000001
44
0.0000000001
40
13
40
13
40
13
40
13
40
14
40
14
40
14
40
14
10
103.32902998714107
20
-498.60932239712128
30
0
10
103.46661848811763
20
-498.59521903747657
30
0
10
103.59008209760114
20
-498.69751684156603
30
0
10
103.60420698909421
20
-498.83510534254361
30
0
0
SPLINE
5
203
100
AcDbEntity
8
0
100
AcDbSpline
70
0
71
3
72
8
73
4
74
0
42
0.000000001
43
0.0000000001
44
0.0000000001
40
14
40
14
40
14
40
14
40
15
40
15
40
15
40
15
10
103.60420698909421
20
-498.83510534254361
30
0
10
103.60773821196744
20
-498.84567747931698
30
0
10
103.60773821196744
20
-498.85273992506342
30
0
10
103.60773821196744
20
-498.86333359368507
30
0
0
LINE
5
204
100
AcDbEntity
8
0
100
AcDbLine
10
95.620844155435364
20
-498.80687709140551
30
0
11
95.620844243093956
21
-497.29699939907653
31
0
0
SPLINE
5
205
100
AcDbEntity
8
0
100
AcDbSpline
70
0
71
3
72
8
73
4
74
0
42
0.000000001
43
0.0000000001
44
0.0000000001
40
7
40
7
40
7
40
7
40
8
40
8
40
8
40
8
10
146.71716543093447
20
-474.68393092441408
30
0
10
146.02926598974528
20
-477.92949078633882
30
0
10
144.09958188058727
20
-480.77287881395227
30
0
10
141.34083554269662
20
-482.61439001051252
30
0
0
ELLIPSE
5
206
100
AcDbEntity
8
0
100
AcDbEllipse
10
176.74718187120803
20
-438.20713115238169
30
0
11
5.2300218991053358
21
-2.5082353095449368
31
0.0
40
0.41397409142659386
41
6.1716584669152521
42
6.338651463852341
0
LINE
5
207
100
AcDbEntity
8
0
100
AcDbLine
10
153.08482106319886
20
-454.43800957614661
30
0
11
161.82313399104729
21
-445.63622076002366
31
0
0
SPLINE
5
208
100
AcDbEntity
8
0
100
AcDbSpline
70
0
71
3
72
8
73
4
74
0
42
0.000000001
43
0.0000000001
44
0.0000000001
40
3
40
3
40
3
40
3
40
4
40
4
40
4
40
4
10
168.63176232763581
20
-444.19335017489942
30
0
10
166.27514476036154
20
-443.27613656541877
30
0
10
163.60114777142928
20
-443.84410361999693
30
0
10
161.82313399104729
20
-445.63622076002366
30
0
0
LINE
5
209
100
AcDbEntity
8
0
100
AcDbLine
10
146.71716543093447
20
-474.68393092441408
30
0
11
149.67344493126001
21
-460.75273992506339
31
0
0
SPLINE
5
210
100
AcDbEntity
8
0
100
AcDbSpline
70
0
71
3
72
11
73
7
74
0
42
0.000000001
43
0.0000000001
44
0.0000000001
40
8
40
8
40
8
40
8
40
9
40
9
40
9
40
10
40
10
40
10
40
10
10
141.34083554269662
20
-482.61439001051252
30
0
10
127.84736582162117
20
-491.61707725888363
30
0
10
112.08565333546127
20
-496.61944275177603
30
0
10
95.868824879268871
20
-497.04296078431042
30
0
10
95.730680561968086
20
-497.04656855568402
30
0
10
95.620844251117845
20
-497.15880797960097
30
0
10
95.620844243093956
20
-497.29699939907653
30
0
0
SPLINE
5
211
100
AcDbEntity
8
0
100
AcDbSpline
70
0
71
3
72
8
73
4
74
0
42
0.000000001
43
0.0000000001
44
0.0000000001
40
2
40
2
40
2
40
2
40
3
40
3
40
3
40
3
10
181.82914798844314
20
-440.94074939907659
30
0
10
178.55535987537888
20
-444.70135103617446
30
0
10
173.27781810020528
20
-445.99957067457467
30
0
10
168.63176232763581
20
-444.19335017489942
30
0
0
ELLIPSE
5
212
100
AcDbEntity
8
0
100
AcDbEllipse
10
154.33507134161431
20
-434.74560066650849
30
0
11
19.103400016331133
21
52.554404658695688
31
0.0
40
0.50239794170915231
41
4.7833742784692808
42
4.8860784462061178
0
ELLIPSE
5
213
100
AcDbEntity
8
0
100
AcDbEllipse
10
162.22756695975374
20
-463.35598618485159
30
0
11
12.823750701732429
21
0.27054147762317121
31
0.0
40
0.99165880173332144
41
2.3433581037513842
42
2.9142018859952339
0
ELLIPSE
5
214
100
AcDbEntity
8
0
100
AcDbEllipse
10
114.4438461838353
20
-414.8832122588459
30
0
11
-3.4538386233804008
21
69.375676540768708
31
0.0
40
0.9252219069230313
41
4.509601126559188
42
4.6689814472691067
0
ELLIPSE
5
215
100
AcDbEntity
8
0
100
AcDbEllipse
10
170.12011333098374
20
-438.14331712049437
30
0
11
-0.42745680722592655
21
-0.65040427430495296
31
0.0
40
0.77111038229772932
41
4.4502101395669493
42
5.0160609775764087
0
LINE
5
216
100
AcDbEntity
8
0
100
AcDbLine
10
169.74650907046356
20
-437.65638917832632
30
0
11
174.44553321522261
21
-432.92209586853073
31
0
0
SPLINE
5
217
100
AcDbEntity
8
0
100
AcDbSpline
70
0
71
3
72
8
73
4
74
0
42
0.000000001
43
0.0000000001
44
0.0000000001
40
140
40
140
40
140
40
140
40
141
40
141
40
141
40
141
10
169.5137067720803
20
-438.02327028666343
30
0
10
169.3267242145717
20
-438.54184328470842
30
0
10
169.59483877077818
20
-439.11336309400963
30
0
10
170.11694299169829
20
-439.30385534254344
30
0
0
ELLIPSE
5
218
100
AcDbEntity
8
0
100
AcDbEllipse
10
165.47594466292367
20
-423.89549293449392
30
0
11
-4.1304106152953244
21
12.055418438803766
31
0.0
40
0.992635827370135
41
3.5966501626997984
42
4.2403545988121767
0
SPLINE
5
219
100
AcDbEntity
8
0
100
AcDbSpline
70
0
71
3
72
11
73
7
74
0
42
0.000000001
43
0.0000000001
44
0.0000000001
40
144
40
144
40
144
40
144
40
145
40
145
40
145
40
146
40
146
40
146
40
146
10
178.80934954009246
20
-433.82873734124161
30
0
10
179.16565854074352
20
-432.49524853780144
30
0
10
180.5344769851541
20
-431.70151395592967
30
0
10
181.86794837635549
20
-432.05780753845431
30
0
10
183.20145459192574
20
-432.41411042578994
30
0
10
183.99520871164199
20
-433.78287450758364
30
0
10
183.64243093386409
20
-435.116384842868
30
0
0
SPLINE
5
220
100
AcDbEntity
8
0
100
AcDbSpline
70
0
71
3
72
14
73
10
74
0
42
0.000000001
43
0.0000000001
44
0.0000000001
40
141
40
141
40
141
40
141
40
142
40
142
40
142
40
143
40
143
40
143
40
144
40
144
40
144
40
144
10
170.11694299169829
20
-439.30385534254344
30
0
10
172.24420026131642
20
-440.06937598818496
30
0
10
174.56894706045705
20
-440.10817736748288
30
0
10
176.72092394203366
20
-439.40615618702338
30
0
10
177.0321358133944
20
-439.30463217569576
30
0
10
177.27046637901549
20
-439.04971508393038
30
0
10
177.37026168227703
20
-438.73794457345923
30
0
10
177.88959086832224
20
-437.11550824485812
30
0
10
178.37041912495795
20
-435.4791199885762
30
0
10
178.80934954009246
20
-433.82873734124161
30
0
0
SPLINE
5
221
100
AcDbEntity
8
0
100
AcDbSpline
70
0
71
3
72
8
73
4
74
0
42
0.000000001
43
0.0000000001
44
0.0000000001
40
135
40
135
40
135
40
135
40
136
40
136
40
136
40
136
10
149.16542253813938
20
-303.45618264696031
30
0
10
168.19427826459332
20
-337.4710099513768
30
0
10
178.36131487212373
20
-375.72623303487256
30
0
10
178.72115509564804
20
-414.70113656541884
30
0
0
ELLIPSE
5
222
100
AcDbEntity
8
0
100
AcDbEllipse
10
146.47183352683928
20
-291.21754425864322
30
0
11
2.131521929742564
21
-1.2560332578940385
31
0.0
40
0.99611946651568928
41
0.95832551904697461
42
0.97692809945085834
0
ARC
5
223
100
AcDbEntity
8
0
100
AcDbCircle
10
152.71284273597774
20
-289.55669966847285
30
0
40
4.0437525663934846
210
0
220
0
230
1
100
AcDbArc
50
-170.81292776039305
51
19.360105289746425
0
ELLIPSE
5
224
100
AcDbEntity
8
0
100
AcDbEllipse
10
129.34186677913462
20
-300.67410708898547
30
0
11
26.321142749017596
21
14.518397787305716
31
0.0
40
0.58879242585426628
41
6.1573115807622907
42
6.2073608873975976
0
SPLINE
5
225
100
AcDbEntity
8
0
100
AcDbSpline
70
0
71
3
72
8
73
4
74
0
42
0.000000001
43
0.0000000001
44
0.0000000001
40
125.20429746739424
40
125.20429746739424
40
125.20429746739424
40
125.20429746739424
40
126
40
126
40
126
40
126
10
146.77985296923779
20
-288.76520079290316
30
0
10
145.74864065500188
20
-288.62580664752051
30
0
10
144.69734659523766
20
-289.14649482077749
30
0
10
144.20892059857772
20
-290.13175909010283
30
0
0
SPLINE
5
226
100
AcDbEntity
8
0
100
AcDbSpline
70
0
71
3
72
8
73
4
74
0
42
0.000000001
43
0.0000000001
44
0.0000000001
40
62.360626841088411
40
62.360626841088411
40
62.360626841088411
40
62.360626841088411
40
62.988980566480741
40
62.988980566480741
40
62.988980566480741
40
62.988980566480741
10
146.77985296923674
20
-288.7652007929114
30
0
10
147.58843194518948
20
-288.87319645775437
30
0
10
148.32621143334057
20
-289.37406391658567
30
0
10
148.70151026801801
20
-290.16067169474309
30
0
0
ARC
5
227
100
AcDbEntity
8
0
100
AcDbCircle
10
190.25469460174446
20
-278.34077031382566
30
0
40
48.157161620889113
210
0
220
0
230
1
100
AcDbArc
50
196.68110536634327
51
211.43494785991675
0
SPLINE
5
228
100
AcDbEntity
8
0
100
AcDbSpline
70
0
71
3
72
8
73
4
74
0
42
0.000000001
43
0.0000000001
44
0.0000000001
40
126
40
126
40
126
40
126
40
126.53430131807413
40
126.53430131807413
40
126.53430131807413
40
126.53430131807413
10
144.20892059857772
20
-290.13175909010283
30
0
10
143.8809504802189
20
-290.7914728008916
30
0
10
143.87223630748002
20
-291.52772729174222
30
0
10
144.12412086091283
20
-292.1640254197016
30
0
0
SPLINE
5
229
100
AcDbEntity
8
0
100
AcDbSpline
70
0
71
3
72
11
73
7
74
0
42
0.000000001
43
0.0000000001
44
0.0000000001
40
117
40
117
40
117
40
117
40
118
40
118
40
118
40
119
40
119
40
119
40
119
10
138.38106788319141
20
-298.0022519828978
30
0
10
136.60305410280944
20
-295.88205409335791
30
0
10
135.74209288900244
20
-293.2009177136747
30
0
10
135.953911985839
20
-290.43869556606887
30
0
10
136.16898081270381
20
-287.63409538743616
30
0
10
137.46381121001431
20
-285.08350995137675
30
0
10
139.59813399104729
20
-283.252592423436
30
0
0
SPLINE
5
230
100
AcDbEntity
8
0
100
AcDbSpline
70
0
71
3
72
8
73
4
74
0
42
0.000000001
43
0.0000000001
44
0.0000000001
40
66.08172649932888
40
66.08172649932888
40
66.08172649932888
40
66.08172649932888
40
66.855986257860451
40
66.855986257860451
40
66.855986257860451
40
66.855986257860451
10
156.2349318292473
20
-287.37140255646813
30
0
10
154.90863217426298
20
-284.03338960030317
30
0
10
151.92502876581062
20
-281.59294312946633
30
0
10
148.44111030998454
20
-280.90956948882427
30
0
0
SPLINE
5
231
100
AcDbEntity
8
0
100
AcDbSpline
70
0
71
3
72
11
73
7
74
0
42
0.000000001
43
0.0000000001
44
0.0000000001
40
119
40
119
40
119
40
119
40
120
40
120
40
120
40
120.21964238949387
40
120.21964238949387
40
120.21964238949387
40
120.21964238949387
10
139.59813399104729
20
-283.252592423436
30
0
10
141.50663076296576
20
-281.61925112162419
30
0
10
143.93731788319138
20
-280.71965056281351
30
0
10
146.4455196518546
20
-280.71965056281351
30
0
10
147.12118618129062
20
-280.71965056281351
30
0
10
147.78902464451812
20
-280.78415316356882
30
0
10
148.44111030997411
20
-280.90956948883445
30
0
0
LINE
5
232
100
AcDbEntity
8
0
100
AcDbLine
10
165.83417253813931
20
-432.33649423143248
30
0
11
147.41565854074346
21
-450.8855558159072
31
0
0
ELLIPSE
5
233
100
AcDbEntity
8
0
100
AcDbEllipse
10
158.62519168669027
20
-461.4557118412007
30
0
11
13.872820568244057
21
-6.8374717067186985
31
0.0
40
0.95823183250936117
41
2.8312764570997366
42
3.3807802234119078
0
SPLINE
5
234
100
AcDbEntity
8
0
100
AcDbSpline
70
0
71
3
72
8
73
4
74
0
42
0.000000001
43
0.0000000001
44
0.0000000001
40
108
40
108
40
108
40
108
40
109
40
109
40
109
40
109
10
131.0220855426966
20
-481.18562278503691
30
0
10
132.10852447322554
20
-480.53660986493867
30
0
10
138.24180828285398
20
-476.43480524928236
30
0
10
142.24237446779441
20
-464.35941628166682
30
0
0
LINE
5
235
100
AcDbEntity
8
0
100
AcDbLine
10
165.84476620675912
20
-432.32590056281452
30
0
11
165.83417253813931
21
-432.33649423143248
31
0
0
SPLINE
5
236
100
AcDbEntity
8
0
100
AcDbSpline
70
0
71
3
72
8
73
4
74
0
42
0.000000001
43
0.0000000001
44
0.0000000001
40
107
40
107
40
107
40
107
40
108
40
108
40
108
40
108
10
130.97273454985807
20
-481.2138510361745
30
0
10
130.9868163776575
20
-481.20678859042778
30
0
10
131.0044294283303
20
-481.19621645365487
30
0
10
131.0220855426966
20
-481.18562278503691
30
0
0
SPLINE
5
237
100
AcDbEntity
8
0
100
AcDbSpline
70
0
71
3
72
14
73
10
74
0
42
0.000000001
43
0.0000000001
44
0.0000000001
40
114
40
114
40
114
40
114
40
115
40
115
40
115
40
116
40
116
40
116
40
117
40
117
40
117
40
117
10
165.84476620675912
20
-432.32590056281452
30
0
10
167.23138423182874
20
-430.66811275892127
30
0
10
170.89528086308971
20
-425.32554094110878
30
0
10
172.04309563471242
20
-414.05334927783173
30
0
10
172.13090048174945
20
-413.19105591025846
30
0
10
172.16535609509666
20
-412.32082588536917
30
0
10
172.1446308821985
20
-411.45432140847845
30
0
10
171.18462464753858
20
-371.31723310828073
30
0
10
159.5419475271807
20
-332.16084601203772
30
0
10
138.38106788319141
20
-298.0022519828978
30
0
0
LINE
5
238
100
AcDbEntity
8
0
100
AcDbLine
10
142.24749884558011
20
-464.34048395917847
30
0
11
142.24237446779441
21
-464.35941628166682
31
0
0
LINE
5
239
100
AcDbEntity
8
0
100
AcDbLine
10
143.595090545353
20
-457.96227795577209
30
0
11
142.24749884558011
21
-464.34048395917847
31
0
0
ENDSEC
0
SECTION
2
OBJECTS
0
DICTIONARY
5
C
100
AcDbDictionary
3
ACAD_GROUP
350
D
3
ACAD_MLINESTYLE
350
17
0
DICTIONARY
5
D
100
AcDbDictionary
0
DICTIONARY
5
1A
330
C
100
AcDbDictionary
0
DICTIONARY
5
17
100
AcDbDictionary
0
ENDSEC
0
EOF
