0
SECTION
2
HEADER
9
$INSUNITS
70
4
9
$ACADVER
1
AC1014
9
$HANDSEED
5
FFFF
0
ENDSEC
0
SECTION
2
TABLES
0
TABLE
2
VPORT
5
8
100
AcDbSymbolTable
0
ENDTAB
0
TABLE
2
LTYPE
5
5
100
AcDbSymbolTable
0
LTYPE
5
14
100
AcDbSymbolTableRecord
100
AcDbLinetypeTableRecord
2
BYBLOCK
70
0
0
LTYPE
5
15
100
AcDbSymbolTableRecord
100
AcDbLinetypeTableRecord
2
BYLAYER
70
0
0
ENDTAB
0
TABLE
2
LAYER
5
2
100
AcDbSymbolTable
70
2
0
LAYER
5
50
100
AcDbSymbolTableRecord
100
AcDbLayerTableRecord
2
0
70
0
6
CONTINUOUS
0
ENDTAB
0
TABLE
2
STYLE
5
3
100
AcDbSymbolTable
70
1
0
STYLE
5
11
100
AcDbSymbolTableRecord
100
AcDbTextStyleTableRecord
2
STANDARD
70
0
0
ENDTAB
0
TABLE
2
VIEW
5
6
100
AcDbSymbolTable
70
0
0
ENDTAB
0
TABLE
2
UCS
5
7
100
AcDbSymbolTable
70
0
0
ENDTAB
0
TABLE
2
APPID
5
9
100
AcDbSymbolTable
70
2
0
APPID
5
12
100
AcDbSymbolTableRecord
100
AcDbRegAppTableRecord
2
ACAD
70
0
0
ENDTAB
0
TABLE
2
DIMSTYLE
5
A
100
AcDbSymbolTable
70
1
0
ENDTAB
0
TABLE
2
BLOCK_RECORD
5
1
100
AcDbSymbolTable
70
1
0
BLOCK_RECORD
5
1F
100
AcDbSymbolTableRecord
100
AcDbBlockTableRecord
2
*MODEL_SPACE
0
BLOCK_RECORD
5
1B
100
AcDbSymbolTableRecord
100
AcDbBlockTableRecord
2
*PAPER_SPACE
0
ENDTAB
0
ENDSEC
0
SECTION
2
BLOCKS
0
BLOCK
5
20
100
AcDbEntity
100
AcDbBlockBegin
2
*MODEL_SPACE
0
ENDBLK
5
21
100
AcDbEntity
100
AcDbBlockEnd
0
BLOCK
5
1C
100
AcDbEntity
100
AcDbBlockBegin
2
*PAPER_SPACE
0
ENDBLK
5
1D
100
AcDbEntity
100
AcDbBlockEnd
0
ENDSEC
0
SECTION
2
ENTITIES
0
SPLINE
5
100
100
AcDbEntity
8
0
100
AcDbSpline
70
0
71
3
72
8
73
4
74
0
42
0.000000001
43
0.0000000001
44
0.0000000001
40
87.815453161462543
40
87.815453161462543
40
87.815453161462543
40
87.815453161462543
40
88
40
88
40
88
40
88
10
-76.871554884580164
20
-476.11511457794961
30
0
10
-76.931685547803468
20
-475.62251198807809
30
0
10
-76.956488427804373
20
-475.12211014424082
30
0
10
-76.944766206759112
20
-474.61690228536133
30
0
0
ELLIPSE
5
101
100
AcDbEntity
8
0
100
AcDbEllipse
10
-42.84755675590236
20
-475.98518176973977
30
0
11
-28.637376063623972
21
18.883273433689844
31
0.0
40
0.98095134588613442
41
0.2649376521538418
42
0.55138708151234106
0
SPLINE
5
102
100
AcDbEntity
8
0
100
AcDbSpline
70
0
71
3
72
8
73
4
74
0
42
0.000000001
43
0.0000000001
44
0.0000000001
40
89
40
89
40
89
40
89
40
89.050036322412993
40
89.050036322412993
40
89.050036322412993
40
89.050036322412993
10
-75.33612193321315
20
-465.11659931362777
30
0
10
-75.227740220501076
20
-464.78068797283214
30
0
10
-75.091430897005225
20
-464.43728683649175
30
0
10
-74.929416450291697
20
-464.08772347592208
30
0
0
SPLINE
5
103
100
AcDbEntity
8
0
100
AcDbSpline
70
0
71
3
72
8
73
4
74
0
42
0.000000001
43
0.0000000001
44
0.0000000001
40
89.050036322412993
40
89.050036322412993
40
89.050036322412993
40
89.050036322412993
40
89.166086000455422
40
89.166086000455422
40
89.166086000455422
40
89.166086000455422
10
-74.929416450291697
20
-464.08772347592208
30
0
10
-74.553654934004555
20
-463.27697813147529
30
0
10
-74.039620602434894
20
-462.43308499445072
30
0
10
-73.415041230050946
20
-461.57260685628097
30
0
0
SPLINE
5
104
100
AcDbEntity
8
0
100
AcDbSpline
70
0
71
3
72
8
73
4
74
0
42
0.000000001
43
0.0000000001
44
0.0000000001
40
89.166086000502247
40
89.166086000502247
40
89.166086000502247
40
89.166086000502247
40
89.263396918581961
40
89.263396918581961
40
89.263396918581961
40
89.263396918581961
10
-73.415041229295156
20
-461.57260685523994
30
0
10
-72.891313863788952
20
-460.85107174177318
30
0
10
-72.289859029622761
20
-460.11787522634029
30
0
10
-71.6270248500348
20
-459.38278262767659
30
0
0
SPLINE
5
105
100
AcDbEntity
8
0
100
AcDbSpline
70
0
71
3
72
8
73
4
74
0
42
0.000000001
43
0.0000000001
44
0.0000000001
40
89.263396918581961
40
89.263396918581961
40
89.263396918581961
40
89.263396918581961
40
89.391276299539811
40
89.391276299539811
40
89.391276299539811
40
89.391276299539811
10
-71.627024850034843
20
-459.38278262767659
30
0
10
-70.755973315057417
20
-458.41677399967432
30
0
10
-69.778923171780832
20
-457.44749094470825
30
0
10
-68.732975347883027
20
-456.49709517387407
30
0
0
ARC
5
106
100
AcDbEntity
8
0
100
AcDbCircle
10
-66.738187589848465
20
-454.7739305847814
30
0
40
1.4999999989927737
210
0
220
0
230
1
100
AcDbArc
50
-109.18886520591403
51
8.1924365338616862
0
SPLINE
5
107
100
AcDbEntity
8
0
100
AcDbSpline
70
0
71
3
72
12
73
8
74
0
42
0.000000001
43
0.0000000001
44
0.0000000001
40
0
40
0
40
0
40
0
40
0.058596671008040051
40
0.058596671008040051
40
0.10995046526600157
40
0.10995046526600157
40
0.16130425952396565
40
0.16130425952396565
40
0.16130425952396565
40
0.16130425952396565
10
-67.231212256829878
20
-456.19059097976896
30
0
10
-67.415682441609746
20
-456.12639185925923
30
0
10
-67.61092850669084
20
-456.09883764642717
30
1.1102230246251563e-15
10
-67.976885702699363
20
-456.11880555798325
30
1.1102230246251563e-15
10
-68.14495987547302
20
-456.15732222025508
30
1.1102230246251563e-15
10
-68.460818490819534
20
-456.28939328272514
30
1.1102230246251563e-15
10
-68.606284829694772
20
-456.38197840615419
30
-1.1102230246251563e-15
10
-68.732975347879901
20
-456.49709517387134
30
-1.1102230246251563e-15
0
SPLINE
5
108
100
AcDbEntity
8
0
100
AcDbSpline
70
0
71
3
72
12
73
8
74
0
42
0.000000001
43
0.0000000001
44
0.0000000001
40
0
40
0
40
0
40
0
40
0.058596671008029684
40
0.058596671008029684
40
0.10968374443963252
40
0.10968374443963252
40
0.16077081787123346
40
0.16077081787123346
40
0.16077081787123346
40
0.16077081787123346
10
-64.670398817815069
20
-453.14763470517443
30
-1.1102230246251563e-15
10
-64.826500486846001
20
-453.26503591927678
30
-1.1102230246251563e-15
10
-64.958178671110062
20
-453.41180484093013
30
5.5511151231257817e-16
10
-65.145068918605347
20
-453.72604125192436
30
5.5511151231257817e-16
10
-65.206560178156735
20
-453.88616252332372
30
5.5511151231257817e-16
10
-65.273148069453555
20
-454.22017019178452
30
5.5511151231257817e-16
10
-65.27776108138697
20
-454.3916307314916
30
-5.5511151231257817e-16
10
-65.253495015310563
20
-454.56018317289102
30
-5.5511151231257817e-16
0
SPLINE
5
109
100
AcDbEntity
8
0
100
AcDbSpline
70
0
71
3
72
8
73
4
74
0
42
0.000000001
43
0.0000000001
44
0.0000000001
40
89.547073407717946
40
89.547073407717946
40
89.547073407717946
40
89.547073407717946
40
89.556258758668974
40
89.556258758668974
40
89.556258758668974
40
89.556258758668974
10
-64.670398817815155
20
-453.14763470517426
30
0
10
-64.587167320048962
20
-453.08503781591634
30
0
10
-64.503813561722978
20
-453.02267767223123
30
0
10
-64.420351291816559
20
-452.9605624868762
30
0
0
ARC
5
110
100
AcDbEntity
8
0
100
AcDbCircle
10
-62.277816735226139
20
-451.43532802762866
30
0
40
1.5000000558774327
210
0
220
0
230
1
100
AcDbArc
50
-114.56096611816443
51
2.9647983957065374
0
SPLINE
5
111
100
AcDbEntity
8
0
100
AcDbSpline
70
0
71
3
72
12
73
8
74
0
42
0.000000001
43
0.0000000001
44
0.0000000001
40
0
40
0
40
0
40
0
40
0.058596671008041674
40
0.058596671008041674
40
0.1096474127836805
40
0.1096474127836805
40
0.16069815455931721
40
0.16069815455931721
40
0.16069815455931721
40
0.16069815455931721
10
-62.901308649413096
20
-452.79960732475809
30
5.5511151231257817e-16
10
-63.078958031988634
20
-452.71841943762297
30
5.5511151231257817e-16
10
-63.270766789348016
20
-452.67270662569138
30
0
10
-63.635976650432454
20
-452.65836426684507
30
0
10
-63.80591784385544
20
-452.68067026936279
30
0
10
-64.131027892472829
20
-452.78133605353617
30
0
10
-64.283838876050893
20
-452.85896575318958
30
0
10
-64.420351291816175
20
-452.96056248687597
30
0
0
LINE
5
112
100
AcDbEntity
8
0
100
AcDbLine
10
-60.068617158080031
20
-450.00306669007853
30
-1.1102230246251563e-15
11
-60.016828393178372
21
-449.97120076581035
31
0
0
SPLINE
5
113
100
AcDbEntity
8
0
100
AcDbSpline
70
0
71
3
72
12
73
8
74
0
42
0.000000001
43
0.0000000001
44
0.0000000001
40
0
40
0
40
0
40
0
40
0.058596671008042001
40
0.058596671008042001
40
0.10979232965720218
40
0.10979232965720218
40
0.16098798830636113
40
0.16098798830636113
40
0.16098798830636113
40
0.16098798830636113
10
-60.068617158080031
20
-450.00306669007853
30
-1.1102230246251563e-15
10
-60.23491374488917
20
-450.10551775821631
30
-1.1102230246251563e-15
10
-60.379609473909504
20
-450.23947075959262
30
0
10
-60.594991509703497
20
-450.53535564206294
30
0
10
-60.671145787696823
20
-450.68945795505408
30
0
10
-60.768329940992125
20
-451.01663363822809
30
0
10
-60.788650970338537
20
-451.18732064034657
30
-5.5511151231257817e-16
10
-60.779824428454418
20
-451.35774441799043
30
-5.5511151231257817e-16
0
SPLINE
5
114
100
AcDbEntity
8
0
100
AcDbSpline
70
0
71
3
72
12
73
8
74
0
42
0.000000001
43
0.0000000001
44
0.0000000001
40
0
40
0
40
0
40
0
40
0.058596671008041112
40
0.058596671008041112
40
0.11001567176556216
40
0.11001567176556216
40
0.16143467252308136
40
0.16143467252308136
40
0.16143467252308136
40
0.16143467252308136
10
-58.483151715321419
20
-449.94916321579319
30
-1.1102230246251563e-15
10
-58.652432093293562
20
-449.85172128549345
30
-1.1102230246251563e-15
10
-58.839126634361214
20
-449.78827517521103
30
5.5511151231257817e-16
10
-59.202612457019335
20
-449.73968698055205
30
5.5511151231257817e-16
10
-59.375140340975278
20
-449.74626279747167
30
5.5511151231257817e-16
10
-59.710468616878998
20
-449.81741207870152
30
5.5511151231257817e-16
10
-59.870801751016771
20
-449.88146204519671
30
-2.2204460492503127e-15
10
-60.016828393207305
20
-449.97120076582814
30
-2.2204460492503127e-15
0
ARC
5
115
100
AcDbEntity
8
0
100
AcDbCircle
10
-57.734834979476602
20
-448.64915469279873
30
0
40
1.500000032334434
210
-3.6924374845744524e-16
220
-6.4146636987235502e-16
230
1
100
AcDbArc
50
240.07421555475517
51
356.48896479249174
0
SPLINE
5
116
100
AcDbEntity
8
0
100
AcDbSpline
70
0
71
3
72
12
73
8
74
0
42
0.000000001
43
0.0000000001
44
0.0000000001
40
0
40
0
40
0
40
0
40
0.058596671008036325
40
0.058596671008036325
40
0.11113993269249201
40
0.11113993269249201
40
0.16368319437694098
40
0.16368319437694098
40
0.16368319437694098
40
0.16368319437694098
10
-55.353879088725186
20
-447.46403656261469
30
-5.5511151231257817e-16
10
-55.532122410472965
20
-447.54391205572284
30
-5.5511151231257817e-16
10
-55.69306016894383
20
-447.65783877986064
30
5.5511151231257817e-16
10
-55.948304852880455
20
-447.92634489934159
30
5.5511151231257817e-16
10
-56.045815914117803
20
-448.07344515133991
30
5.5511151231257817e-16
10
-56.185662977708965
20
-448.39460674594108
30
5.5511151231257817e-16
10
-56.226924446585905
20
-448.56620040079969
30
-1.1102230246251563e-15
10
-56.237650414326943
20
-448.74101586457937
30
-1.1102230246251563e-15
0
ARC
5
117
100
AcDbEntity
8
0
100
AcDbCircle
10
-54.549927538948808
20
-444.43909141923541
30
0
40
2.5046286792734969
210
0
220
0
230
1
100
AcDbArc
50
-69.680803872680528
51
110.66361812080906
0
SPLINE
5
118
100
AcDbEntity
8
0
100
AcDbSpline
70
0
71
3
72
8
73
4
74
0
42
0.000000001
43
0.0000000001
44
0.0000000001
40
89.898349842581268
40
89.898349842581268
40
89.898349842581268
40
89.898349842581268
40
89.972717875588984
40
89.972717875588984
40
89.972717875588984
40
89.972717875588984
10
-55.353879088725215
20
-447.46403656261469
30
0
10
-54.767099496904031
20
-447.20108528464885
30
0
10
-54.206772675026265
20
-446.97424141282875
30
0
10
-53.680195584973156
20
-446.7878636834775
30
0
0
SPLINE
5
119
100
AcDbEntity
8
0
100
AcDbSpline
70
0
71
3
72
8
73
4
74
0
42
0.000000001
43
0.0000000001
44
0.0000000001
40
94.078974813519878
40
94.078974813519878
40
94.078974813519878
40
94.078974813519878
40
94.921035741454702
40
94.921035741454702
40
94.921035741454702
40
94.921035741454702
10
-55.43376286330151
20
-442.09558977842846
30
0
10
-79.93571222459839
20
-451.92359253595129
30
0
10
-107.30648143638724
20
-451.92346934341714
30
0
10
-131.80835887723475
20
-442.09522020082625
30
0
0
ARC
5
120
100
AcDbEntity
8
0
100
AcDbCircle
10
-132.69122976606243
20
-444.43909141923541
30
0
40
2.5046343635002524
210
0
220
-0
230
1
100
AcDbArc
50
69.360008311412216
51
244.20663445738094
0
SPLINE
5
121
100
AcDbEntity
8
0
100
AcDbSpline
70
0
71
3
72
11
73
7
74
0
42
0.000000001
43
0.0000000001
44
0.0000000001
40
86.715877232670479
40
86.715877232670479
40
86.715877232670479
40
86.715877232670479
40
87
40
87
40
87
40
87.085822312294269
40
87.085822312294269
40
87.085822312294269
40
87.085822312294269
10
-72.348507884234309
20
-483.40530028036147
30
0
10
-72.98100898595132
20
-482.98568780337149
30
0
10
-73.571220568988295
20
-482.49230288528497
30
0
10
-74.108462156737417
20
-481.93000026035173
30
0
10
-74.270742631474121
20
-481.76014978897962
30
0
10
-74.426527092277979
20
-481.58575224621291
30
0
10
-74.575695121469806
20
-481.40710867065417
30
0
0
SPLINE
5
122
100
AcDbEntity
8
0
100
AcDbSpline
70
0
71
3
72
8
73
4
74
0
42
0.000000001
43
0.0000000001
44
0.0000000001
40
87.085822312294269
40
87.085822312294269
40
87.085822312294269
40
87.085822312294269
40
87.268308642276267
40
87.268308642276267
40
87.268308642276267
40
87.268308642276267
10
-74.575695121469806
20
-481.40710867065417
30
0
10
-74.892875181877983
20
-481.02725394981189
30
0
10
-75.180140581732488
20
-480.62820177675962
30
0
10
-75.436333662093787
20
-480.21284624505211
30
0
0
SPLINE
5
123
100
AcDbEntity
8
0
100
AcDbSpline
70
0
71
3
72
8
73
4
74
0
42
0.000000001
43
0.0000000001
44
0.0000000001
40
87.268308642276381
40
87.268308642276381
40
87.268308642276381
40
87.268308642276381
40
87.644358256324864
40
87.644358256324864
40
87.644358256324864
40
87.644358256324864
10
-75.436333662094398
20
-480.21284624505114
30
0
10
-75.964270790323383
20
-479.35692302380551
30
0
10
-76.360259771998543
20
-478.43176783043089
30
0
10
-76.614170242891177
20
-477.46270610476631
30
0
0
SPLINE
5
124
100
AcDbEntity
8
0
100
AcDbSpline
70
0
71
3
72
8
73
4
74
0
42
0.000000001
43
0.0000000001
44
0.0000000001
40
87.644358257275144
40
87.644358257275144
40
87.644358257275144
40
87.644358257275144
40
87.81545316027595
40
87.81545316027595
40
87.81545316027595
40
87.81545316027595
10
-76.614170244816052
20
-477.46270609741987
30
0
10
-76.729694328985985
20
-477.02180278094681
30
0
10
-76.815807246935023
20
-476.5718105297002
30
0
10
-76.871554883420288
20
-476.1151145874515
30
0
0
SPLINE
5
125
100
AcDbEntity
8
0
100
AcDbSpline
70
0
71
3
72
11
73
7
74
0
42
0.000000001
43
0.0000000001
44
0.0000000001
40
61.03090088218385
40
61.03090088218385
40
61.03090088218385
40
61.03090088218385
40
62
40
62
40
62
40
63
40
63
40
63
40
63
10
-43.123695576130778
20
-292.14178325547056
30
0
10
-43.580242119795159
20
-290.95058421042813
30
0
10
-43.029679842147679
20
-289.54114845932298
30
0
10
-41.868312358404943
20
-288.98773131333212
30
0
10
-40.605059458719708
20
-288.38576352605122
30
0
10
-39.09713538763156
20
-288.93456665133556
30
0
10
-38.52023821196746
20
-290.20231895202755
30
0
0
ARC
5
126
100
AcDbEntity
8
0
100
AcDbCircle
10
-34.628075792110899
20
-289.14048848424625
30
0
40
4.0344035798184787
210
0
220
0
230
1
100
AcDbArc
50
-164.74033756317269
51
9.5638178809579024
0
LINE
5
127
100
AcDbEntity
8
0
100
AcDbLine
10
-30.64974576456407
20
-288.47018822557754
30
0
11
-30.642991662239091
21
-288.45741858502998
31
0
0
SPLINE
5
128
100
AcDbEntity
8
0
100
AcDbSpline
70
0
71
3
72
11
73
7
74
0
42
0.000000001
43
0.0000000001
44
0.0000000001
40
66
40
66
40
66
40
66
40
67
40
67
40
67
40
68
40
68
40
68
40
68
10
-30.642991662239091
20
-288.45741858502998
30
0
10
-31.887454512031141
20
-283.91382625662783
30
0
10
-36.100213862044754
20
-280.71614087178693
30
0
10
-40.788575207410176
20
-280.71614087178693
30
0
10
-41.811639375704445
20
-280.71614087178693
30
0
10
-42.831172321125464
20
-280.86783273240951
30
0
10
-43.822498547253929
20
-281.16415400790896
30
0
0
SPLINE
5
129
100
AcDbEntity
8
0
100
AcDbSpline
70
0
71
3
72
8
73
4
74
0
42
0.000000001
43
0.0000000001
44
0.0000000001
40
68
40
68
40
68
40
68
40
69
40
69
40
69
40
69
10
-43.822498547253929
20
-281.16415400790896
30
0
10
-49.378748547253927
20
-282.83631722948041
30
0
10
-52.53962365576087
20
-288.71713828796504
30
0
10
-50.870991657062959
20
-294.27338828796502
30
0
0
ELLIPSE
5
130
100
AcDbEntity
8
0
100
AcDbEllipse
10
-26.614247090269728
20
-283.98943393786521
30
0
11
-23.547610489528999
21
-12.050279726349924
31
0.0
40
0.62687057927439982
41
6.1686265924162358
42
6.4247792124011376
0
SPLINE
5
131
100
AcDbEntity
8
0
100
AcDbSpline
70
0
71
3
72
14
73
10
74
0
42
0.000000001
43
0.0000000001
44
0.0000000001
40
70
40
70
40
70
40
70
40
71
40
71
40
71
40
72
40
72
40
72
40
73
40
73
40
73
40
73
10
-48.860175549207057
20
-298.00225198289786
30
0
10
-27.756624234253625
20
-332.07048105790648
30
0
10
-16.117180950358549
20
-371.10957366636251
30
0
10
-15.107605854776953
20
-411.13163427382199
30
0
10
-15.08685369812585
20
-411.95430123034259
30
0
10
-15.115562290102494
20
-412.78027127566588
30
0
10
-15.192773214723957
20
-413.59956978444222
30
0
10
-16.386110335979943
20
-426.26227689094753
30
0
10
-20.750195119355823
20
-431.61159583949916
30
0
10
-21.763293767523024
20
-432.69633445495674
30
0
0
SPLINE
5
132
100
AcDbEntity
8
0
100
AcDbSpline
70
0
71
3
72
8
73
4
74
0
42
0.000000001
43
0.0000000001
44
0.0000000001
40
73
40
73
40
73
40
73
40
74
40
74
40
74
40
74
10
-21.763293767523024
20
-432.69633445495674
30
0
10
-21.770334681422764
20
-432.70337536885893
30
0
10
-21.773865904296024
20
-432.71043781460537
30
0
10
-21.78092835004254
20
-432.7175002603517
30
0
0
SPLINE
5
133
100
AcDbEntity
8
0
100
AcDbSpline
70
0
71
3
72
11
73
7
74
0
42
0.000000001
43
0.0000000001
44
0.0000000001
40
74
40
74
40
74
40
74
40
75
40
75
40
75
40
76
40
76
40
76
40
76
10
-21.78092835004254
20
-432.7175002603517
30
0
10
-21.833832097601142
20
-432.77393523078325
30
0
10
-21.879694931259998
20
-432.81626684156612
30
0
10
-21.911454405272586
20
-432.8480263155792
30
0
10
-21.922026542045593
20
-432.85859845235257
30
0
10
-21.929088987792113
20
-432.86919212097422
30
0
10
-21.939682656411907
20
-432.87623303487243
30
0
0
LINE
5
134
100
AcDbEntity
8
0
100
AcDbLine
10
-21.939682656411907
20
-432.87623303487243
30
0
11
-21.971421035371907
21
-432.90799294597616
31
0
0
LINE
5
135
100
AcDbEntity
8
0
100
AcDbLine
10
-21.971421035371907
20
-432.90799294597616
30
0
11
-21.974951821450972
21
-432.91152373175714
31
0
0
ELLIPSE
5
136
100
AcDbEntity
8
0
100
AcDbEllipse
10
-28.520659190113751
20
-461.52927400746472
30
0
11
-13.87523892254225
21
7.0954236759161224
31
0.0
40
0.95385209598689435
41
5.9875359341106238
42
6.5354807326932383
0
LINE
5
137
100
AcDbEntity
8
0
100
AcDbLine
10
-21.974951821450972
20
-432.91152373175714
30
0
11
-39.821967541394521
21
-450.88555581590725
31
0
0
LINE
5
138
100
AcDbEntity
8
0
100
AcDbLine
10
-43.646109658365035
20
-457.96227717685434
30
0
11
-45.092489934515186
21
-464.80262192376131
31
0
0
SPLINE
5
139
100
AcDbEntity
8
0
100
AcDbSpline
70
0
71
3
72
14
73
10
74
0
42
0.000000001
43
0.0000000001
44
0.0000000001
40
81
40
81
40
81
40
81
40
82
40
82
40
82
40
83
40
83
40
83
40
84
40
84
40
84
40
84
10
-45.092489934515186
20
-464.80262192376131
30
0
10
-46.984454709277976
20
-470.35381911338902
30
0
10
-49.324446164805948
20
-474.17587558089019
30
0
10
-51.378738741954812
20
-476.73038400966004
30
0
10
-53.279436697265496
20
-479.09389785447684
30
0
10
-55.700680584159208
20
-480.97956820732412
30
0
10
-58.419590864944126
20
-482.32358357070217
30
0
10
-59.833927578731689
20
-483.02272038509443
30
0
10
-61.267609616890809
20
-483.6785109736428
30
0
10
-62.713722709037789
20
-484.29008445495668
30
0
0
SPLINE
5
140
100
AcDbEntity
8
0
100
AcDbSpline
70
0
71
3
72
11
73
7
74
0
42
0.000000001
43
0.0000000001
44
0.0000000001
40
84
40
84
40
84
40
84
40
85
40
85
40
85
40
86
40
86
40
86
40
86
10
-62.713722709037789
20
-484.29008445495668
30
0
10
-63.983714096299032
20
-484.82629203552506
30
0
10
-65.324286877332057
20
-485.09793781460559
30
0
10
-66.7001288234041
20
-485.09793781460559
30
0
10
-66.777729599228749
20
-485.09793781460559
30
0
10
-66.85537343874698
20
-485.09793781460559
30
0
10
-66.93297421457163
20
-485.09440659172992
30
0
0
SPLINE
5
141
100
AcDbEntity
8
0
100
AcDbSpline
70
0
71
3
72
8
73
4
74
0
42
0.000000001
43
0.0000000001
44
0.0000000001
40
86
40
86
40
86
40
86
40
86.152749480233382
40
86.152749480233382
40
86.152749480233382
40
86.152749480233382
10
-66.93297421457163
20
-485.09440659172992
30
0
10
-67.351134929029286
20
-485.08524678687081
30
0
10
-67.764850624517123
20
-485.05122885745641
30
0
10
-68.172461669231978
20
-484.99310717725251
30
0
0
SPLINE
5
142
100
AcDbEntity
8
0
100
AcDbSpline
70
0
71
3
72
8
73
4
74
0
42
0.000000001
43
0.0000000001
44
0.0000000001
40
86.152749480233396
40
86.152749480233396
40
86.152749480233396
40
86.152749480233396
40
86.5278180718351
40
86.5278180718351
40
86.5278180718351
40
86.5278180718351
10
-68.17246166923222
20
-484.99310717725251
30
0
10
-69.173329889725764
20
-484.85039234311813
30
0
10
-70.1373917614128
20
-484.56235043097394
30
0
10
-71.040077314748089
20
-484.1401495447401
30
0
0
SPLINE
5
143
100
AcDbEntity
8
0
100
AcDbSpline
70
0
71
3
72
8
73
4
74
0
42
0.000000001
43
0.0000000001
44
0.0000000001
40
86.5278180718351
40
86.5278180718351
40
86.5278180718351
40
86.5278180718351
40
86.715877232670309
40
86.715877232670309
40
86.715877232670309
40
86.715877232670309
10
-71.040077314748089
20
-484.1401495447401
30
0
10
-71.492683295252547
20
-483.92845828040373
30
0
10
-71.929859186931537
20
-483.68303926988551
30
0
10
-72.348507884233257
20
-483.4053002803621
30
0
0
ELLIPSE
5
144
100
AcDbEntity
8
0
100
AcDbEllipse
10
-32.917411566872985
20
-434.74359706545852
30
0
11
19.106392512174043
21
52.553215021633939
31
0.0
40
0.50259938577398799
41
4.7834386726049676
42
4.8861434708736891
0
SPLINE
5
145
100
AcDbEntity
8
0
100
AcDbSpline
70
0
71
3
72
8
73
4
74
0
42
0.000000001
43
0.0000000001
44
0.0000000001
40
38
40
38
40
38
40
38
40
38.999999991222808
40
38.999999991222808
40
38.999999991222808
40
38.999999991222808
10
-18.609459572915814
20
-444.19335017489942
30
0
10
-13.963360777432465
20
-445.99957065872104
30
0
10
-8.6858190541231082
20
-444.70135105896367
30
0
10
-5.4120309346188789
20
-440.94074949809885
30
0
0
ELLIPSE
5
146
100
AcDbEntity
8
0
100
AcDbEllipse
10
-10.407392143895846
20
-438.26630476042061
30
0
11
-5.1448320128369298
21
2.4461046715315833
31
0.0
40
0.41745807777865607
41
3.0276443651629457
42
3.1962249972002521
0
SPLINE
5
147
100
AcDbEntity
8
0
100
AcDbSpline
70
0
71
3
72
8
73
4
74
0
42
0.000000001
43
0.0000000001
44
0.0000000001
40
41
40
41
40
41
40
41
40
42
40
42
40
42
40
42
10
-3.5987694348407304
20
-435.116384842868
30
0
10
-3.2424604341896899
20
-433.78287450758359
30
0
10
-4.0362104341896901
20
-432.41409500725894
30
0
10
-5.3732304605026222
20
-432.05780753845431
30
0
0
SPLINE
5
148
100
AcDbEntity
8
0
100
AcDbSpline
70
0
71
3
72
8
73
4
74
0
42
0.000000001
43
0.0000000001
44
0.0000000001
40
42
40
42
40
42
40
42
40
43
40
43
40
43
40
43
10
-5.3732304605026222
20
-432.05780753845431
30
0
10
-6.706740795789079
20
-431.70149853780123
30
0
10
-8.0754987642678149
20
-432.49524853780144
30
0
10
-8.4318077649188545
20
-433.82873734124161
30
0
0
SPLINE
5
149
100
AcDbEntity
8
0
100
AcDbSpline
70
0
71
3
72
8
73
4
74
0
42
0.000000001
43
0.0000000001
44
0.0000000001
40
43
40
43
40
43
40
43
40
44
40
44
40
44
40
44
10
-8.4318077649188545
20
-433.82873734124161
30
0
10
-8.8727799871410777
20
-435.48679720316613
30
0
10
-9.3560838201488892
20
-437.13073217359744
30
0
10
-9.8782095729158161
20
-438.76058531623187
30
0
0
ELLIPSE
5
150
100
AcDbEntity
8
0
100
AcDbEllipse
10
-10.858069584271258
20
-438.40984178365761
30
0
11
0.56738203259743303
21
-0.88836129791826368
31
0.0
40
0.96723006544216705
41
6.0338433714185582
42
6.9580526851182647
0
SPLINE
5
151
100
AcDbEntity
8
0
100
AcDbSpline
70
0
71
3
72
8
73
4
74
0
42
0.000000001
43
0.0000000001
44
0.0000000001
40
45
40
45
40
45
40
45
40
46
40
46
40
46
40
46
10
-10.520267712292988
20
-439.4061531466366
30
0
10
-12.67220354399872
20
-440.10817747931696
30
0
10
-14.997018573566852
20
-440.06937709140561
30
0
10
-17.124257377006529
20
-439.30385534254344
30
0
0
ELLIPSE
5
152
100
AcDbEntity
8
0
100
AcDbEllipse
10
-15.312510139859958
20
-436.42237338395745
30
0
11
-2.0839495850588658
21
-2.7300813225345903
31
0.0
40
0.55736377993661756
41
6.2180102622370876
42
6.444905742966986
0
SPLINE
5
153
100
AcDbEntity
8
0
100
AcDbSpline
70
0
71
3
72
8
73
4
74
0
42
0.000000001
43
0.0000000001
44
0.0000000001
40
47
40
47
40
47
40
47
40
48
40
48
40
48
40
48
10
-17.491138514430567
20
-439.07100995137512
30
0
10
-17.882738211967467
20
-438.68296300856093
30
0
10
-17.882738211967467
20
-438.04796731492991
30
0
10
-17.49466973730383
20
-437.65638914924074
30
0
0
LINE
5
154
100
AcDbEntity
8
0
100
AcDbLine
10
-17.49466973730383
20
-437.65638914924074
30
0
11
-12.795667630401477
21
-432.92209634801679
31
0
0
ELLIPSE
5
155
100
AcDbEntity
8
0
100
AcDbEllipse
10
-21.694481127348975
20
-424.01845344935845
30
0
11
4.3172761269528541
21
11.867364100159563
31
0.0
40
0.99614313097123641
41
4.2771090733186741
42
4.924411064460803
0
ELLIPSE
5
156
100
AcDbEntity
8
0
100
AcDbEllipse
10
-73.238706502511576
20
-412.84111916919369
30
0
11
-14.578099388867303
21
68.890301042766794
31
0.0
40
0.91539685832952422
41
4.3363874475639266
42
4.4945384891293445
0
SPLINE
5
157
100
AcDbEntity
8
0
100
AcDbSpline
70
0
71
3
72
8
73
4
74
0
42
0.000000001
43
0.0000000001
44
0.0000000001
40
51
40
51
40
51
40
51
40
52
40
52
40
52
40
52
10
-8.5164709864900381
20
-414.70113656541884
30
0
10
-8.8798424328876067
20
-375.72623303487256
30
0
10
-19.043369349391511
20
-337.47100995137629
30
0
10
-38.075734766871989
20
-303.45618264696031
30
0
0
SPLINE
5
158
100
AcDbEntity
8
0
100
AcDbSpline
70
0
71
3
72
8
73
4
74
0
42
0.000000001
43
0.0000000001
44
0.0000000001
40
52
40
52
40
52
40
52
40
53
40
53
40
53
40
53
10
-38.075734766871989
20
-303.45618264696031
30
0
10
-38.100453326984841
20
-303.41385103617495
30
0
10
-38.121597600530819
20
-303.37151942538912
30
0
10
-38.146273096950111
20
-303.32565659173036
30
0
0
ARC
5
159
100
AcDbEntity
8
0
100
AcDbCircle
10
3.7515409436486813
20
-277.97933774983289
30
0
40
48.967976272413964
210
0
220
0
230
1
100
AcDbArc
50
196.81117573852788
51
211.17207748637352
0
SPLINE
5
160
100
AcDbEntity
8
0
100
AcDbSpline
70
0
71
3
72
8
73
4
74
0
42
0.000000001
43
0.0000000001
44
0.0000000001
40
13
40
13
40
13
40
13
40
14
40
14
40
14
40
14
10
-103.32902998714107
20
-498.60932239712133
30
0
10
-103.46661848811762
20
-498.59521903747645
30
0
10
-103.59008209760114
20
-498.69751684156603
30
0
10
-103.60420698909421
20
-498.83510534254361
30
0
0
SPLINE
5
161
100
AcDbEntity
8
0
100
AcDbSpline
70
0
71
3
72
8
73
4
74
0
42
0.000000001
43
0.0000000001
44
0.0000000001
40
14
40
14
40
14
40
14
40
15
40
15
40
15
40
15
10
-103.60420698909421
20
-498.83510534254361
30
0
10
-103.60773821196743
20
-498.84567747931703
30
0
10
-103.60773821196743
20
-498.85273992506342
30
0
10
-103.60773821196743
20
-498.86333359368507
30
0
0
LINE
5
162
100
AcDbEntity
8
0
100
AcDbLine
10
-103.60773821196743
20
-498.86333359368507
30
0
11
-103.60773821196743
21
-499.54419212097412
31
0
0
ELLIPSE
5
163
100
AcDbEntity
8
0
100
AcDbEllipse
10
-103.22751335979014
20
-499.54694139569909
30
0
11
-0.38017891729749254
21
0.0073955602776242906
31
0.0
40
0.79924881373887913
41
0.015288750365557371
42
0.61831399607554427
0
LINE
5
164
100
AcDbEntity
8
0
100
AcDbLine
10
-103.54073110476239
20
-499.71704978698801
30
0
11
-101.6815853256827
21
-501.74905323208549
31
0
0
ELLIPSE
5
165
100
AcDbEntity
8
0
100
AcDbEllipse
10
-101.54034151872104
20
-501.62647697887053
30
0
11
-0.16309230422452972
21
0.15128821021952388
31
0.0
40
0.83923021506590978
41
1.4799117520595229
42
2.3513494653478491
0
SPLINE
5
166
100
AcDbEntity
8
0
100
AcDbSpline
70
0
71
3
72
8
73
4
74
0
42
0.000000001
43
0.0000000001
44
0.0000000001
40
19
40
19
40
19
40
19
40
20
40
20
40
20
40
20
10
-101.51579010541361
20
-501.83018523078323
30
0
10
-98.887569822753051
20
-502.03480237081004
30
0
10
-96.255818317219195
20
-502.1335689520281
30
0
10
-93.620578652505642
20
-502.11946559238288
30
0
0
LINE
5
167
100
AcDbEntity
8
0
100
AcDbLine
10
-85.556083830431916
20
-501.74905324235482
30
0
11
-83.700512339211187
21
-499.71704980048617
31
0
0
LINE
5
168
100
AcDbEntity
8
0
100
AcDbLine
10
-83.63346215673235
20
-499.54419213730438
30
0
11
-83.633462156737409
21
-498.86333359368507
31
0
0
ELLIPSE
5
169
100
AcDbEntity
8
0
100
AcDbEllipse
10
-75.552491022741123
20
-428.67031545991159
30
0
11
-77.878840554170012
21
-41.711255572385717
31
0.0
40
0.77630560681967398
41
0.96086192826882078
42
1.0558489882427384
0
ELLIPSE
5
170
100
AcDbEntity
8
0
100
AcDbEllipse
10
-84.014900758232216
20
-499.54554376132376
30
0
11
-0.381428203968872
21
-0.0035274587166464122
31
0.0
40
0.79886043959819442
41
2.5322276694668382
42
3.1344521115490305
0
ELLIPSE
5
171
100
AcDbEntity
8
0
100
AcDbEllipse
10
-85.694982188890407
20
-501.56432171412894
30
0
11
0.13107709001763101
21
0.24419406292928772
31
0.0
40
0.80799604707657979
41
3.5989808235459613
42
4.3545430564363929
0
SPLINE
5
172
100
AcDbEntity
8
0
100
AcDbSpline
70
0
71
3
72
8
73
4
74
0
42
0.000000001
43
0.0000000001
44
0.0000000001
40
25
40
25
40
25
40
25
40
26
40
26
40
26
40
26
10
-83.633462156737409
20
-498.86333359368507
30
0
10
-83.633462156737409
20
-498.72221386983261
30
0
10
-83.746332097601112
20
-498.60932239712133
30
0
10
-83.887451821450981
20
-498.60932239712133
30
0
0
LINE
5
173
100
AcDbEntity
8
0
100
AcDbLine
10
-83.887451821450981
20
-498.60932239712133
30
0
11
-83.912127317870244
21
-498.60932239712133
31
0
0
SPLINE
5
174
100
AcDbEntity
8
0
100
AcDbSpline
70
0
71
3
72
8
73
4
74
0
42
0.000000001
43
0.0000000001
44
0.0000000001
40
27
40
27
40
27
40
27
40
28
40
28
40
28
40
28
10
-83.912127317870244
20
-498.60932239712133
30
0
10
-86.388634208061205
20
-498.85980237080986
30
0
10
-88.872203543998722
20
-499.00796300856086
30
0
10
-91.362835325682767
20
-499.05735706509017
30
0
0
LINE
5
175
100
AcDbEntity
8
0
100
AcDbLine
10
-91.620356213269517
20
-498.80334586853053
30
0
11
-91.620356126343708
21
-497.29699939907647
31
0
0
SPLINE
5
176
100
AcDbEntity
8
0
100
AcDbSpline
70
0
71
3
72
11
73
7
74
0
42
0.000000001
43
0.0000000001
44
0.0000000001
40
28
40
28
40
28
40
28
40
29
40
29
40
29
40
30
40
30
40
30
40
30
10
-91.362835325682767
20
-499.05735706509017
30
0
10
-91.36288532568274
20
-499.05735706509017
30
0
10
-91.362935325682756
20
-499.05735706509017
30
0
10
-91.366366548556002
20
-499.05735706509017
30
0
10
-91.50744320871226
20
-499.05735706509017
30
0
10
-91.620356213269517
20
-498.94446559238304
30
0
10
-91.620356213269517
20
-498.80334586853076
30
0
0
SPLINE
5
177
100
AcDbEntity
8
0
100
AcDbSpline
70
0
71
3
72
11
73
7
74
0
42
0.000000001
43
0.0000000001
44
0.0000000001
40
31
40
31
40
31
40
31
40
32
40
32
40
32
40
33
40
33
40
33
40
33
10
-91.620356126343708
20
-497.29699939907647
30
0
10
-91.620356118369912
20
-497.15880740672867
30
0
10
-91.510520772453049
20
-497.04656751534924
30
0
10
-91.372375884015412
20
-497.0429596700825
30
0
10
-75.155519233079403
20
-496.61943397782244
30
0
10
-59.390248427012935
20
-491.61706936370598
30
0
10
-45.896790539441426
20
-482.61439001051247
30
0
0
SPLINE
5
178
100
AcDbEntity
8
0
100
AcDbSpline
70
0
71
3
72
8
73
4
74
0
42
0.000000001
43
0.0000000001
44
0.0000000001
40
33
40
33
40
33
40
33
40
34
40
34
40
34
40
34
10
-45.896790539441426
20
-482.61439001051247
30
0
10
-43.141618488117636
20
-480.77287881395227
30
0
10
-41.211934378959654
20
-477.92949078633876
30
0
10
-40.523991874076835
20
-474.68393092441408
30
0
0
LINE
5
179
100
AcDbEntity
8
0
100
AcDbLine
10
-34.156378823404097
20
-454.43800909010326
30
0
11
-25.418066377657567
21
-445.63622076002355
31
0
0
LINE
5
180
100
AcDbEntity
8
0
100
AcDbLine
10
-40.523991874076835
20
-474.68393092441408
30
0
11
-37.567755437444916
21
-460.75273992506339
31
0
0
ELLIPSE
5
181
100
AcDbEntity
8
0
100
AcDbEllipse
10
-24.900187326015491
20
-463.5439186684269
30
0
11
-10.839583918761079
21
7.1578351271934251
31
0.0
40
0.98923892054933671
41
6.087529704414119
42
6.6535576769475018
0
SPLINE
5
182
100
AcDbEntity
8
0
100
AcDbSpline
70
0
71
3
72
8
73
4
74
0
42
0.000000001
43
0.0000000001
44
0.0000000001
40
37
40
37
40
37
40
37
40
38
40
38
40
38
40
38
10
-25.418066377657567
20
-445.63622076002355
30
0
10
-23.636542906249147
20
-443.84410361999693
30
0
10
-20.96248132177648
20
-443.27613656541865
30
0
10
-18.609459572915814
20
-444.19335017489942
30
0
0
SPLINE
5
183
100
AcDbEntity
8
0
100
AcDbSpline
70
0
71
3
72
8
73
4
74
0
42
0.000000001
43
0.0000000001
44
0.0000000001
40
7
40
7
40
7
40
7
40
8
40
8
40
8
40
8
10
-146.71716543093441
20
-474.68393092441408
30
0
10
-146.02926598974526
20
-477.92949078633876
30
0
10
-144.09958188058721
20
-480.77287881395227
30
0
10
-141.34083554269665
20
-482.61439001051247
30
0
0
LINE
5
184
100
AcDbEntity
8
0
100
AcDbLine
10
-95.620844243093956
20
-497.29699939907641
30
0
11
-95.620844155435364
21
-498.8068770914054
31
0
0
SPLINE
5
185
100
AcDbEntity
8
0
100
AcDbSpline
70
0
71
3
72
11
73
7
74
0
42
0.000000001
43
0.0000000001
44
0.0000000001
40
8
40
8
40
8
40
8
40
9
40
9
40
9
40
10
40
10
40
10
40
10
10
-141.34083554269665
20
-482.61439001051247
30
0
10
-127.84736582162117
20
-491.61707725888357
30
0
10
-112.08565333546126
20
-496.61944275177603
30
0
10
-95.868824879268871
20
-497.04296078431037
30
0
10
-95.730680561968057
20
-497.04656855568396
30
0
10
-95.62084425111783
20
-497.15880797960085
30
0
10
-95.62084424309397
20
-497.29699939907647
30
0
0
SPLINE
5
186
100
AcDbEntity
8
0
100
AcDbSpline
70
0
71
3
72
8
73
4
74
0
42
0.000000001
43
0.0000000001
44
0.0000000001
40
11
40
11
40
11
40
11
40
12
40
12
40
12
40
12
10
-95.620844155435364
20
-498.8068770914054
30
0
10
-95.624375378308585
20
-498.94799681525433
30
0
10
-95.737245319172345
20
-499.06088828796544
30
0
10
-95.878365043022143
20
-499.05735706509017
30
0
0
ELLIPSE
5
187
100
AcDbEntity
8
0
100
AcDbEllipse
10
-86.422956681321438
20
-440.49296857514264
30
0
11
-74.060393572100679
21
-14.528169565340644
31
0.0
40
0.76630631423681528
41
1.1938894784256986
42
1.2949989581220742
0
SPLINE
5
188
100
AcDbEntity
8
0
100
AcDbSpline
70
0
71
3
72
8
73
4
74
0
42
0.000000001
43
0.0000000001
44
0.0000000001
40
105
40
105
40
105
40
105
40
106
40
106
40
106
40
106
10
-130.849227876681
20
-481.28441089809911
30
0
10
-130.84927261167093
20
-481.28438856470092
30
0
10
-130.87747765966714
20
-481.27030753845429
30
0
10
-130.93035987537891
20
-481.23854806444109
30
0
0
SPLINE
5
189
100
AcDbEntity
8
0
100
AcDbSpline
70
0
71
3
72
8
73
4
74
0
42
0.000000001
43
0.0000000001
44
0.0000000001
40
106
40
106
40
106
40
106
40
107
40
107
40
107
40
107
10
-130.93035987537891
20
-481.23854806444109
30
0
10
-130.94095354399872
20
-481.23148561869465
30
0
10
-130.95507843549174
20
-481.22444470479644
30
0
10
-130.97273454985807
20
-481.2138510361745
30
0
0
SPLINE
5
190
100
AcDbEntity
8
0
100
AcDbSpline
70
0
71
3
72
8
73
4
74
0
42
0.000000001
43
0.0000000001
44
0.0000000001
40
107
40
107
40
107
40
107
40
108
40
108
40
108
40
108
10
-130.97273454985807
20
-481.2138510361745
30
0
10
-130.98681637765753
20
-481.20678859042766
30
0
10
-131.0044294283303
20
-481.19621645365476
30
0
10
-131.0220855426966
20
-481.18562278503674
30
0
0
SPLINE
5
191
100
AcDbEntity
8
0
100
AcDbSpline
70
0
71
3
72
8
73
4
74
0
42
0.000000001
43
0.0000000001
44
0.0000000001
40
108
40
108
40
108
40
108
40
109
40
109
40
109
40
109
10
-131.0220855426966
20
-481.18562278503674
30
0
10
-132.10852447322554
20
-480.53660986493861
30
0
10
-138.24180828285398
20
-476.43480524928236
30
0
10
-142.24237446779441
20
-464.35941628166677
30
0
0
LINE
5
192
100
AcDbEntity
8
0
100
AcDbLine
10
-142.24749884558014
20
-464.34048395917847
30
0
11
-143.595090545353
21
-457.96227795577192
31
0
0
LINE
5
193
100
AcDbEntity
8
0
100
AcDbLine
10
-142.24237446779441
20
-464.35941628166677
30
0
11
-142.24749884558014
21
-464.34048395917847
31
0
0
ELLIPSE
5
194
100
AcDbEntity
8
0
100
AcDbEllipse
10
-158.62519168669024
20
-461.4557118412007
30
0
11
-13.872820568244057
21
-6.8374717067186968
31
0.0
40
0.95823183250936117
41
2.9024049765880915
42
3.4519086893104558
0
LINE
5
195
100
AcDbEntity
8
0
100
AcDbLine
10
-147.41565797938256
20
-450.88555638238148
30
0
11
-165.83417253813928
21
-432.33649423143254
31
0
0
LINE
5
196
100
AcDbEntity
8
0
100
AcDbLine
10
-165.83417253813928
20
-432.33649423143254
30
0
11
-165.84476620675906
21
-432.32590056281452
31
0
0
SPLINE
5
197
100
AcDbEntity
8
0
100
AcDbSpline
70
0
71
3
72
14
73
10
74
0
42
0.000000001
43
0.0000000001
44
0.0000000001
40
114
40
114
40
114
40
114
40
115
40
115
40
115
40
116
40
116
40
116
40
117
40
117
40
117
40
117
10
-165.84476620675906
20
-432.32590056281452
30
0
10
-167.23138423182871
20
-430.66811275892127
30
0
10
-170.89528086308971
20
-425.32554094110884
30
0
10
-172.04309563471242
20
-414.05334927783179
30
0
10
-172.13090048174945
20
-413.19105591025846
30
0
10
-172.16535609509666
20
-412.32082588536923
30
0
10
-172.1446308821985
20
-411.45432140847845
30
0
10
-171.18462464753861
20
-371.31723310828067
30
0
10
-159.5419475271807
20
-332.16084601203772
30
0
10
-138.38106788319141
20
-298.00225198289786
30
0
0
SPLINE
5
198
100
AcDbEntity
8
0
100
AcDbSpline
70
0
71
3
72
11
73
7
74
0
42
0.000000001
43
0.0000000001
44
0.0000000001
40
117
40
117
40
117
40
117
40
118
40
118
40
118
40
119
40
119
40
119
40
119
10
-138.38106788319141
20
-298.00225198289786
30
0
10
-136.60305410280944
20
-295.88205409335791
30
0
10
-135.74209288900244
20
-293.2009177136747
30
0
10
-135.953911985839
20
-290.43869556606887
30
0
10
-136.16898081270378
20
-287.63409538743616
30
0
10
-137.46381121001431
20
-285.08350995137675
30
0
10
-139.59813399104729
20
-283.252592423436
30
0
0
SPLINE
5
199
100
AcDbEntity
8
0
100
AcDbSpline
70
0
71
3
72
11
73
7
74
0
42
0.000000001
43
0.0000000001
44
0.0000000001
40
119
40
119
40
119
40
119
40
120
40
120
40
120
40
120.21964238949387
40
120.21964238949387
40
120.21964238949387
40
120.21964238949387
10
-139.59813399104729
20
-283.252592423436
30
0
10
-141.50663076296573
20
-281.61925112162419
30
0
10
-143.93731788319138
20
-280.71965056281351
30
0
10
-146.44551965185457
20
-280.71965056281351
30
0
10
-147.12118618129062
20
-280.71965056281351
30
0
10
-147.78902464451807
20
-280.78415316356876
30
0
10
-148.44111030997414
20
-280.90956948883451
30
0
0
SPLINE
5
200
100
AcDbEntity
8
0
100
AcDbSpline
70
0
71
3
72
8
73
4
74
0
42
0.000000001
43
0.0000000001
44
0.0000000001
40
-66.855986257860451
40
-66.855986257860451
40
-66.855986257860451
40
-66.855986257860451
40
-66.08172649932888
40
-66.08172649932888
40
-66.08172649932888
40
-66.08172649932888
10
-148.44111030998451
20
-280.90956948882422
30
0
10
-151.92502876581062
20
-281.59294312946633
30
0
10
-154.90863217426295
20
-284.03338960030317
30
0
10
-156.2349318292473
20
-287.37140255646813
30
0
0
ELLIPSE
5
201
100
AcDbEntity
8
0
100
AcDbEllipse
10
-129.34186677913462
20
-300.67410708898547
30
0
11
-26.321142749017589
21
14.518397787305712
31
0.0
40
0.58879242585426628
41
0.075824419781877789
42
0.12587372641729871
0
ARC
5
202
100
AcDbEntity
8
0
100
AcDbCircle
10
-152.71284273597777
20
-289.5566996684729
30
0
40
4.0437525663934633
210
0
220
0
230
1
100
AcDbArc
50
160.6398947102542
51
350.81292776039385
0
ELLIPSE
5
203
100
AcDbEntity
8
0
100
AcDbEllipse
10
-146.47183352683925
20
-291.21754425864316
30
0
11
-2.1315219297425632
21
-1.2560332578940381
31
0.0
40
0.99611946651568939
41
5.306257207728704
42
5.3248597881325965
0
SPLINE
5
204
100
AcDbEntity
8
0
100
AcDbSpline
70
0
71
3
72
8
73
4
74
0
42
0.000000001
43
0.0000000001
44
0.0000000001
40
-62.988980566480741
40
-62.988980566480741
40
-62.988980566480741
40
-62.988980566480741
40
-62.360626841088411
40
-62.360626841088411
40
-62.360626841088411
40
-62.360626841088411
10
-148.70151026801801
20
-290.16067169474303
30
0
10
-148.32621143334055
20
-289.37406391658561
30
0
10
-147.58843194518943
20
-288.87319645775437
30
0
10
-146.77985296923671
20
-288.76520079291134
30
0
0
SPLINE
5
205
100
AcDbEntity
8
0
100
AcDbSpline
70
0
71
3
72
8
73
4
74
0
42
0.000000001
43
0.0000000001
44
0.0000000001
40
125.20429746739424
40
125.20429746739424
40
125.20429746739424
40
125.20429746739424
40
126
40
126
40
126
40
126
10
-146.77985296923785
20
-288.76520079290316
30
0
10
-145.74864065500185
20
-288.62580664752045
30
0
10
-144.69734659523766
20
-289.14649482077743
30
0
10
-144.20892059857769
20
-290.13175909010283
30
0
0
SPLINE
5
206
100
AcDbEntity
8
0
100
AcDbSpline
70
0
71
3
72
8
73
4
74
0
42
0.000000001
43
0.0000000001
44
0.0000000001
40
126
40
126
40
126
40
126
40
126.53430131807413
40
126.53430131807413
40
126.53430131807413
40
126.53430131807413
10
-144.20892059857769
20
-290.13175909010283
30
0
10
-143.88095048021893
20
-290.7914728008916
30
0
10
-143.87223630748002
20
-291.52772729174228
30
0
10
-144.12412086091285
20
-292.16402541970149
30
0
0
ARC
5
207
100
AcDbEntity
8
0
100
AcDbCircle
10
-190.25469460174452
20
-278.34077031382566
30
0
40
48.157161620889077
210
0
220
0
230
1
100
AcDbArc
50
328.56505214008337
51
343.31889463365684
0
LINE
5
208
100
AcDbEntity
8
0
100
AcDbLine
10
-174.44553369396652
20
-432.92209538722523
30
0
11
-169.74650907046356
21
-437.65638917832638
31
0
0
ELLIPSE
5
209
100
AcDbEntity
8
0
100
AcDbEllipse
10
-114.4438461838353
20
-414.8832122588459
30
0
11
3.4538386233804008
21
69.375676540768694
31
0.0
40
0.92522190692303141
41
1.6142038063206874
42
1.7735840296966312
0
ELLIPSE
5
210
100
AcDbEntity
8
0
100
AcDbEllipse
10
-170.12011333098377
20
-438.14331712049437
30
0
11
0.42745680722592638
21
-0.65040427430495273
31
0.0
40
0.77111038229772944
41
1.2671243296033403
42
1.8329750604329313
0
SPLINE
5
211
100
AcDbEntity
8
0
100
AcDbSpline
70
0
71
3
72
8
73
4
74
0
42
0.000000001
43
0.0000000001
44
0.0000000001
40
135
40
135
40
135
40
135
40
136
40
136
40
136
40
136
10
-149.16542253813935
20
-303.45618264696031
30
0
10
-168.19427826459332
20
-337.4710099513768
30
0
10
-178.36131487212373
20
-375.72623303487256
30
0
10
-178.72115509564804
20
-414.70113656541884
30
0
0
ELLIPSE
5
212
100
AcDbEntity
8
0
100
AcDbEllipse
10
-165.47594466292369
20
-423.89549293449386
30
0
11
4.1304106152953253
21
12.055418438803764
31
0.0
40
0.99263582737013489
41
2.042830363082762
42
2.6865349837103967
0
SPLINE
5
213
100
AcDbEntity
8
0
100
AcDbSpline
70
0
71
3
72
8
73
4
74
0
42
0.000000001
43
0.0000000001
44
0.0000000001
40
140
40
140
40
140
40
140
40
141
40
141
40
141
40
141
10
-169.5137067720803
20
-438.02327028666343
30
0
10
-169.32672421457167
20
-438.54184328470836
30
0
10
-169.59483877077815
20
-439.11336309400963
30
0
10
-170.11694299169832
20
-439.30385534254344
30
0
0
SPLINE
5
214
100
AcDbEntity
8
0
100
AcDbSpline
70
0
71
3
72
14
73
10
74
0
42
0.000000001
43
0.0000000001
44
0.0000000001
40
141
40
141
40
141
40
141
40
142
40
142
40
142
40
143
40
143
40
143
40
144
40
144
40
144
40
144
10
-170.11694299169832
20
-439.30385534254344
30
0
10
-172.24420026131642
20
-440.0693759881849
30
0
10
-174.56894706045702
20
-440.10817736748277
30
0
10
-176.72092394203366
20
-439.40615618702338
30
0
10
-177.03213581339435
20
-439.3046321756957
30
0
10
-177.27046637901549
20
-439.04971508393038
30
0
10
-177.37026168227703
20
-438.73794457345929
30
0
10
-177.88959086832224
20
-437.11550824485812
30
0
10
-178.37041912495795
20
-435.47911998857614
30
0
10
-178.80934954009248
20
-433.82873734124161
30
0
0
ELLIPSE
5
215
100
AcDbEntity
8
0
100
AcDbEllipse
10
-154.33507134161428
20
-434.74560066650849
30
0
11
-19.103400016331125
21
52.554404658695674
31
0.0
40
0.50239794170915242
41
1.3971068609734647
42
1.499811028710299
0
SPLINE
5
216
100
AcDbEntity
8
0
100
AcDbSpline
70
0
71
3
72
11
73
7
74
0
42
0.000000001
43
0.0000000001
44
0.0000000001
40
144
40
144
40
144
40
144
40
145
40
145
40
145
40
146
40
146
40
146
40
146
10
-178.80934954009248
20
-433.82873734124161
30
0
10
-179.16565854074352
20
-432.49524853780144
30
0
10
-180.53447698515407
20
-431.7015139559295
30
0
10
-181.86794837635549
20
-432.05780753845431
30
0
10
-183.20145459192577
20
-432.41411042578994
30
0
10
-183.99520871164196
20
-433.78287450758359
30
0
10
-183.64243093386406
20
-435.116384842868
30
0
0
ELLIPSE
5
217
100
AcDbEntity
8
0
100
AcDbEllipse
10
-176.74718187120803
20
-438.20713115238169
30
0
11
-5.2300218991053367
21
-2.5082353095449355
31
0.0
40
0.41397409142659392
41
6.2277191505066885
42
6.394712147443836
0
SPLINE
5
218
100
AcDbEntity
8
0
100
AcDbSpline
70
0
71
3
72
8
73
4
74
0
42
0.000000001
43
0.0000000001
44
0.0000000001
40
2
40
2
40
2
40
2
40
3
40
3
40
3
40
3
10
-181.82914798844314
20
-440.94074939907648
30
0
10
-178.55535987537888
20
-444.7013510361744
30
0
10
-173.27781810020528
20
-445.99957067457467
30
0
10
-168.63176232763581
20
-444.19335017489942
30
0
0
ELLIPSE
5
219
100
AcDbEntity
8
0
100
AcDbEllipse
10
-162.22756695975374
20
-463.35598618485142
30
0
11
-12.823750701732429
21
0.27054147762317116
31
0.0
40
0.99165880173332144
41
3.3689833140047574
42
3.9398271498383979
0
SPLINE
5
220
100
AcDbEntity
8
0
100
AcDbSpline
70
0
71
3
72
8
73
4
74
0
42
0.000000001
43
0.0000000001
44
0.0000000001
40
3
40
3
40
3
40
3
40
4
40
4
40
4
40
4
10
-168.63176232763581
20
-444.19335017489942
30
0
10
-166.27514476036154
20
-443.27613656541865
30
0
10
-163.60114777142928
20
-443.84410361999693
30
0
10
-161.82313399104729
20
-445.63622076002355
30
0
0
LINE
5
221
100
AcDbEntity
8
0
100
AcDbLine
10
-161.82313399104729
20
-445.63622076002355
30
0
11
-153.08482154530077
21
-454.43800909010326
31
0
0
LINE
5
222
100
AcDbEntity
8
0
100
AcDbLine
10
-149.67344493125998
20
-460.75273992506339
30
0
11
-146.71716543093441
21
-474.68393092441408
31
0
0
SPLINE
5
223
100
AcDbEntity
8
0
100
AcDbSpline
70
0
71
3
72
8
73
4
74
0
42
0.000000001
43
0.0000000001
44
0.0000000001
40
98.96259677029272
40
98.96259677029272
40
98.96259677029272
40
98.96259677029272
40
99
40
99
40
99
40
99
10
-133.78106095149892
20
-446.69418186223857
30
0
10
-133.73961812908763
20
-446.70864451407368
30
0
10
-133.69836316272676
20
-446.72405441547568
30
0
10
-133.65732520741017
20
-446.74041692701826
30
0
0
ARC
5
224
100
AcDbEntity
8
0
100
AcDbCircle
10
-109.36062560259784
20
-469.07316010100988
30
0
40
1.4999999999999927
210
0
220
0
230
1
100
AcDbArc
50
190.41513134755718
51
248.25151603505395
0
ARC
5
225
100
AcDbEntity
8
0
100
AcDbCircle
10
-110.47222435786836
20
-471.85961860314274
30
0
40
1.5000004628044614
210
0
220
0
230
1
100
AcDbArc
50
-56.185172819780043
51
68.251516035054351
0
ELLIPSE
5
226
100
AcDbEntity
8
0
100
AcDbEllipse
10
-149.19104556587496
20
-475.30404850851875
30
0
11
-38.901809308893668
21
0.25740175467463233
31
0.0
40
0.92226297660232415
41
3.3156482432781087
42
3.4366697772619244
0
SPLINE
5
227
100
AcDbEntity
8
0
100
AcDbSpline
70
0
71
3
72
8
73
4
74
0
42
0.000000001
43
0.0000000001
44
0.0000000001
40
99
40
99
40
99
40
99
40
100
40
100
40
100
40
100
10
-133.65732520741017
20
-446.74041692701826
30
0
10
-126.92280948746659
20
-448.84295870219199
30
0
10
-114.07109609499699
20
-458.40324939907646
30
0
10
-111.9015472126185
20
-465.11659931362777
30
0
0
ELLIPSE
5
228
100
AcDbEntity
8
0
100
AcDbEllipse
10
-119.08719088650081
20
-464.8815128471403
30
0
11
-36.190696569944045
21
17.136841439137953
31
0.0
40
0.49796071594756042
41
1.4805034012391525
42
1.6556169395195028
0
SPLINE
5
229
100
AcDbEntity
8
0
100
AcDbSpline
70
0
71
3
72
11
73
7
74
0
42
0.000000001
43
0.0000000001
44
0.0000000001
40
102
40
102
40
102
40
102
40
103
40
103
40
103
40
104
40
104
40
104
40
104
10
-111.10073476687204
20
-478.83613225904969
30
0
10
-112.70589088123829
20
-482.6425967298058
30
0
10
-116.41358877077823
20
-485.10146903747659
30
0
10
-120.54460276817403
20
-485.10146903747659
30
0
10
-121.91333920480601
20
-485.10146903747659
30
0
10
-123.25391198583894
20
-484.82982325839669
30
0
10
-124.52394643679386
20
-484.29008445495668
30
0
0
ELLIPSE
5
230
100
AcDbEntity
8
0
100
AcDbEllipse
10
-149.19104556587496
20
-475.30404850851875
30
0
11
-38.901809308893668
21
0.25740175467463233
31
0.0
40
0.92226297660232415
41
3.1678215453476199
42
3.174104039378395
0
ARC
5
231
100
AcDbEntity
8
0
100
AcDbCircle
10
-108.80269217545566
20
-474.35214043227779
30
0
40
1.4999999999999303
210
0
220
0
230
1
100
AcDbArc
50
123.8148271802206
51
181.640551284075
0
ELLIPSE
5
232
100
AcDbEntity
8
0
100
AcDbEllipse
10
-129.79304691179527
20
-473.21217706365695
30
0
11
-19.344816857152672
21
3.4273647752693814
31
0.0
40
0.71565479532564735
41
2.9789440931047433
42
3.2853776360425262
0
ENDSEC
0
SECTION
2
OBJECTS
0
DICTIONARY
5
C
100
AcDbDictionary
3
ACAD_GROUP
350
D
3
ACAD_MLINESTYLE
350
17
0
DICTIONARY
5
D
100
AcDbDictionary
0
DICTIONARY
5
1A
330
C
100
AcDbDictionary
0
DICTIONARY
5
17
100
AcDbDictionary
0
ENDSEC
0
EOF
