0
SECTION
2
HEADER
9
$INSUNITS
70
4
9
$ACADVER
1
AC1014
9
$HANDSEED
5
FFFF
0
ENDSEC
0
SECTION
2
TABLES
0
TABLE
2
VPORT
5
8
100
AcDbSymbolTable
0
ENDTAB
0
TABLE
2
LTYPE
5
5
100
AcDbSymbolTable
0
LTYPE
5
14
100
AcDbSymbolTableRecord
100
AcDbLinetypeTableRecord
2
BYBLOCK
70
0
0
LTYPE
5
15
100
AcDbSymbolTableRecord
100
AcDbLinetypeTableRecord
2
BYLAYER
70
0
0
ENDTAB
0
TABLE
2
LAYER
5
2
100
AcDbSymbolTable
70
2
0
LAYER
5
50
100
AcDbSymbolTableRecord
100
AcDbLayerTableRecord
2
0
70
0
6
CONTINUOUS
0
ENDTAB
0
TABLE
2
STYLE
5
3
100
AcDbSymbolTable
70
1
0
STYLE
5
11
100
AcDbSymbolTableRecord
100
AcDbTextStyleTableRecord
2
STANDARD
70
0
0
ENDTAB
0
TABLE
2
VIEW
5
6
100
AcDbSymbolTable
70
0
0
ENDTAB
0
TABLE
2
UCS
5
7
100
AcDbSymbolTable
70
0
0
ENDTAB
0
TABLE
2
APPID
5
9
100
AcDbSymbolTable
70
2
0
APPID
5
12
100
AcDbSymbolTableRecord
100
AcDbRegAppTableRecord
2
ACAD
70
0
0
ENDTAB
0
TABLE
2
DIMSTYLE
5
A
100
AcDbSymbolTable
70
1
0
ENDTAB
0
TABLE
2
BLOCK_RECORD
5
1
100
AcDbSymbolTable
70
1
0
BLOCK_RECORD
5
1F
100
AcDbSymbolTableRecord
100
AcDbBlockTableRecord
2
*MODEL_SPACE
0
BLOCK_RECORD
5
1B
100
AcDbSymbolTableRecord
100
AcDbBlockTableRecord
2
*PAPER_SPACE
0
ENDTAB
0
ENDSEC
0
SECTION
2
BLOCKS
0
BLOCK
5
20
100
AcDbEntity
100
AcDbBlockBegin
2
*MODEL_SPACE
0
ENDBLK
5
21
100
AcDbEntity
100
AcDbBlockEnd
0
BLOCK
5
1C
100
AcDbEntity
100
AcDbBlockBegin
2
*PAPER_SPACE
0
ENDBLK
5
1D
100
AcDbEntity
100
AcDbBlockEnd
0
ENDSEC
0
SECTION
2
ENTITIES
0
ELLIPSE
5
100
100
AcDbEntity
8
0
100
AcDbEllipse
10
154.33507134161431
20
434.74560066650849
30
0
11
19.103400016331125
21
-52.55440465869566
31
0.0
40
0.50239794170915242
41
1.3971068609734658
42
1.4998110287103004
0
ELLIPSE
5
101
100
AcDbEntity
8
0
100
AcDbEllipse
10
176.74718187120803
20
438.20713115238169
30
0
11
5.2300218991053367
21
2.5082353095449368
31
0.0
40
0.4139740914265938
41
6.2277191505067737
42
6.3947121474438653
0
SPLINE
5
102
100
AcDbEntity
8
0
100
AcDbSpline
70
0
71
3
72
8
73
4
74
0
42
0.000000001
43
0.0000000001
44
0.0000000001
40
2
40
2
40
2
40
2
40
3
40
3
40
3
40
3
10
181.82914798844314
20
440.94074939907648
30
0
10
178.55535987537888
20
444.7013510361744
30
0
10
173.27781810020528
20
445.99957067457467
30
0
10
168.63176232763581
20
444.19335017489942
30
0
0
SPLINE
5
103
100
AcDbEntity
8
0
100
AcDbSpline
70
0
71
3
72
8
73
4
74
0
42
0.000000001
43
0.0000000001
44
0.0000000001
40
3
40
3
40
3
40
3
40
4
40
4
40
4
40
4
10
168.63176232763581
20
444.19335017489942
30
0
10
166.27514476036154
20
443.27613656541871
30
0
10
163.60114777142928
20
443.84410361999693
30
0
10
161.82313399104729
20
445.63622076002355
30
0
0
ELLIPSE
5
104
100
AcDbEntity
8
0
100
AcDbEllipse
10
162.22756695975374
20
463.35598618485153
30
0
11
12.823750701732429
21
-0.27054147762317116
31
0.0
40
0.99165880173332144
41
3.3689833140047645
42
3.9398271498384076
0
LINE
5
105
100
AcDbEntity
8
0
100
AcDbLine
10
149.67344493125998
20
460.75273992506339
30
0
11
146.71716543093444
21
474.68393092441408
31
0
0
LINE
5
106
100
AcDbEntity
8
0
100
AcDbLine
10
161.82313399104729
20
445.63622076002355
30
0
11
153.08482154530077
21
454.43800909010326
31
0
0
SPLINE
5
107
100
AcDbEntity
8
0
100
AcDbSpline
70
0
71
3
72
8
73
4
74
0
42
0.000000001
43
0.0000000001
44
0.0000000001
40
7
40
7
40
7
40
7
40
8
40
8
40
8
40
8
10
146.71716543093444
20
474.68393092441408
30
0
10
146.02926598974526
20
477.92949078633876
30
0
10
144.09958188058724
20
480.77287881395227
30
0
10
141.34083554269665
20
482.61439001051247
30
0
0
SPLINE
5
108
100
AcDbEntity
8
0
100
AcDbSpline
70
0
71
3
72
11
73
7
74
0
42
0.000000001
43
0.0000000001
44
0.0000000001
40
8
40
8
40
8
40
8
40
9
40
9
40
9
40
10
40
10
40
10
40
10
10
141.34083554269665
20
482.61439001051247
30
0
10
127.84736582162117
20
491.61707725888357
30
0
10
112.08565333546127
20
496.61944275177603
30
0
10
95.868824879268885
20
497.04296078431037
30
0
10
95.730680561968086
20
497.04656855568396
30
0
10
95.62084425111783
20
497.15880797960085
30
0
10
95.62084424309397
20
497.29699939907647
30
0
0
LINE
5
109
100
AcDbEntity
8
0
100
AcDbLine
10
95.62084424309397
20
497.29699939907647
30
0
11
95.620844155435364
21
498.80687709140545
31
0
0
SPLINE
5
110
100
AcDbEntity
8
0
100
AcDbSpline
70
0
71
3
72
8
73
4
74
0
42
0.000000001
43
0.0000000001
44
0.0000000001
40
11
40
11
40
11
40
11
40
12
40
12
40
12
40
12
10
95.620844155435364
20
498.80687709140545
30
0
10
95.624375378308599
20
498.94799681525433
30
0
10
95.737245319172345
20
499.0608882879655
30
0
10
95.878365043022157
20
499.05735706509017
30
0
0
ELLIPSE
5
111
100
AcDbEntity
8
0
100
AcDbEllipse
10
86.422956681321466
20
440.49296857514264
30
0
11
74.060393572100693
21
14.52816956534064
31
0.0
40
0.76630631423681528
41
1.1938894784256995
42
1.2949989581220742
0
SPLINE
5
112
100
AcDbEntity
8
0
100
AcDbSpline
70
0
71
3
72
8
73
4
74
0
42
0.000000001
43
0.0000000001
44
0.0000000001
40
13
40
13
40
13
40
13
40
14
40
14
40
14
40
14
10
103.32902998714107
20
498.60932239712133
30
0
10
103.46661848811762
20
498.59521903747645
30
0
10
103.59008209760114
20
498.69751684156603
30
0
10
103.60420698909421
20
498.83510534254361
30
0
0
SPLINE
5
113
100
AcDbEntity
8
0
100
AcDbSpline
70
0
71
3
72
8
73
4
74
0
42
0.000000001
43
0.0000000001
44
0.0000000001
40
14
40
14
40
14
40
14
40
15
40
15
40
15
40
15
10
103.60420698909421
20
498.83510534254361
30
0
10
103.60773821196743
20
498.84567747931703
30
0
10
103.60773821196743
20
498.85273992506342
30
0
10
103.60773821196743
20
498.86333359368507
30
0
0
LINE
5
114
100
AcDbEntity
8
0
100
AcDbLine
10
103.60773821196743
20
498.86333359368507
30
0
11
103.60773821196743
21
499.54419212097423
31
0
0
LINE
5
115
100
AcDbEntity
8
0
100
AcDbLine
10
103.54073110476261
20
499.71704978698801
30
0
11
101.68158532568276
21
501.74905323208549
31
0
0
ELLIPSE
5
116
100
AcDbEntity
8
0
100
AcDbEllipse
10
103.22751335979015
20
499.54694139569915
30
0
11
0.38017891729749254
21
-0.0073955602776242888
31
0.0
40
0.79924881373887913
41
0.015288750365557371
42
0.61831399607494308
0
ELLIPSE
5
117
100
AcDbEntity
8
0
100
AcDbEllipse
10
101.54034151872104
20
501.62647697887053
30
0
11
0.16309230422452969
21
-0.15128821021952388
31
0.0
40
0.83923021506590956
41
1.4799117520596055
42
2.3513495189373796
0
SPLINE
5
118
100
AcDbEntity
8
0
100
AcDbSpline
70
0
71
3
72
8
73
4
74
0
42
0.000000001
43
0.0000000001
44
0.0000000001
40
19
40
19
40
19
40
19
40
20
40
20
40
20
40
20
10
101.51579010541363
20
501.83018523078323
30
0
10
98.887569822753051
20
502.03480237081004
30
0
10
96.255818317219195
20
502.1335689520281
30
0
10
93.620578652505642
20
502.11946559238288
30
0
0
ELLIPSE
5
119
100
AcDbEntity
8
0
100
AcDbEllipse
10
75.552491022741123
20
428.67031545991159
30
0
11
77.87884055417004
21
41.711255572385717
31
0.0
40
0.77630560681967398
41
0.96086192826882089
42
1.055848988393592
0
ELLIPSE
5
120
100
AcDbEntity
8
0
100
AcDbEllipse
10
85.694982188890407
20
501.56432171412894
30
0
11
-0.13107709001763101
21
-0.24419406292928772
31
0.0
40
0.80799604707658002
41
3.5989808771674374
42
4.3545431100262704
0
LINE
5
121
100
AcDbEntity
8
0
100
AcDbLine
10
85.556083820148871
20
501.74905323208549
30
0
11
83.700512327635877
21
499.71704978698801
31
0
0
ELLIPSE
5
122
100
AcDbEntity
8
0
100
AcDbEllipse
10
84.014900758232216
20
499.54554376132387
30
0
11
0.381428203968872
21
0.0035274587166464126
31
0.0
40
0.79886043959819442
41
2.5322277230566832
42
3.1344521651389616
0
LINE
5
123
100
AcDbEntity
8
0
100
AcDbLine
10
83.633462156737409
20
499.54419212097423
30
0
11
83.633462156737409
21
498.86333359368507
31
0
0
SPLINE
5
124
100
AcDbEntity
8
0
100
AcDbSpline
70
0
71
3
72
8
73
4
74
0
42
0.000000001
43
0.0000000001
44
0.0000000001
40
25
40
25
40
25
40
25
40
26
40
26
40
26
40
26
10
83.633462156737409
20
498.86333359368507
30
0
10
83.633462156737409
20
498.72221386983261
30
0
10
83.746332097601126
20
498.60932239712133
30
0
10
83.887451821450981
20
498.60932239712133
30
0
0
LINE
5
125
100
AcDbEntity
8
0
100
AcDbLine
10
83.887451821450981
20
498.60932239712133
30
0
11
83.912127317870244
21
498.60932239712133
31
0
0
SPLINE
5
126
100
AcDbEntity
8
0
100
AcDbSpline
70
0
71
3
72
8
73
4
74
0
42
0.000000001
43
0.0000000001
44
0.0000000001
40
27
40
27
40
27
40
27
40
28
40
28
40
28
40
28
10
83.912127317870244
20
498.60932239712133
30
0
10
86.388634208061205
20
498.85980237080992
30
0
10
88.872203543998722
20
499.00796300856092
30
0
10
91.362835325682767
20
499.05735706509017
30
0
0
SPLINE
5
127
100
AcDbEntity
8
0
100
AcDbSpline
70
0
71
3
72
8
73
4
74
0
42
0.000000001
43
0.0000000001
44
0.0000000001
40
107
40
107
40
107
40
107
40
108
40
108
40
108
40
108
10
130.97273454985807
20
481.2138510361745
30
0
10
130.98681637765753
20
481.20678859042766
30
0
10
131.0044294283303
20
481.19621645365476
30
0
10
131.0220855426966
20
481.18562278503674
30
0
0
SPLINE
5
128
100
AcDbEntity
8
0
100
AcDbSpline
70
0
71
3
72
8
73
4
74
0
42
0.000000001
43
0.0000000001
44
0.0000000001
40
108
40
108
40
108
40
108
40
109
40
109
40
109
40
109
10
131.0220855426966
20
481.18562278503674
30
0
10
132.10852447322554
20
480.53660986493861
30
0
10
138.24180828285398
20
476.43480524928236
30
0
10
142.24237446779441
20
464.35941628166677
30
0
0
LINE
5
129
100
AcDbEntity
8
0
100
AcDbLine
10
142.24237446779441
20
464.35941628166677
30
0
11
142.24749884558014
21
464.34048395917847
31
0
0
LINE
5
130
100
AcDbEntity
8
0
100
AcDbLine
10
142.24749884558014
20
464.34048395917847
30
0
11
143.59509071033986
21
457.96227717685429
31
0
0
ELLIPSE
5
131
100
AcDbEntity
8
0
100
AcDbEllipse
10
158.62519168669027
20
461.4557118412007
30
0
11
13.872820568244057
21
6.8374717067186968
31
0.0
40
0.95823183250936117
41
2.9024050301778757
42
3.4519087429002449
0
LINE
5
132
100
AcDbEntity
8
0
100
AcDbLine
10
147.41565854074349
20
450.88555581590708
30
0
11
165.83417253813931
21
432.33649423143254
31
0
0
LINE
5
133
100
AcDbEntity
8
0
100
AcDbLine
10
165.83417253813931
20
432.33649423143254
30
0
11
165.84476620675912
21
432.32590056281452
31
0
0
SPLINE
5
134
100
AcDbEntity
8
0
100
AcDbSpline
70
0
71
3
72
14
73
10
74
0
42
0.000000001
43
0.0000000001
44
0.0000000001
40
114
40
114
40
114
40
114
40
115
40
115
40
115
40
116
40
116
40
116
40
117
40
117
40
117
40
117
10
165.84476620675912
20
432.32590056281452
30
0
10
167.23138423182871
20
430.66811275892127
30
0
10
170.89528086308971
20
425.32554094110884
30
0
10
172.04309563471242
20
414.05334927783179
30
0
10
172.13090048174945
20
413.19105591025846
30
0
10
172.16535609509666
20
412.32082588536923
30
0
10
172.1446308821985
20
411.45432140847845
30
0
10
171.18462464753861
20
371.31723310828067
30
0
10
159.5419475271807
20
332.16084601203772
30
0
10
138.38106788319141
20
298.00225198289786
30
0
0
SPLINE
5
135
100
AcDbEntity
8
0
100
AcDbSpline
70
0
71
3
72
11
73
7
74
0
42
0.000000001
43
0.0000000001
44
0.0000000001
40
117
40
117
40
117
40
117
40
118
40
118
40
118
40
119
40
119
40
119
40
119
10
138.38106788319141
20
298.00225198289786
30
0
10
136.60305410280944
20
295.88205409335791
30
0
10
135.74209288900244
20
293.2009177136747
30
0
10
135.953911985839
20
290.43869556606887
30
0
10
136.16898081270381
20
287.63409538743616
30
0
10
137.46381121001431
20
285.08350995137675
30
0
10
139.59813399104729
20
283.252592423436
30
0
0
SPLINE
5
136
100
AcDbEntity
8
0
100
AcDbSpline
70
0
71
3
72
11
73
7
74
0
42
0.000000001
43
0.0000000001
44
0.0000000001
40
119
40
119
40
119
40
119
40
120
40
120
40
120
40
121
40
121
40
121
40
121
10
139.59813399104729
20
283.252592423436
30
0
10
141.50663076296573
20
281.61925112162419
30
0
10
143.93731788319138
20
280.71965056281351
30
0
10
146.4455196518546
20
280.71965056281351
30
0
10
149.52173153879039
20
280.71965056281351
30
0
10
152.43567942833027
20
282.05669212097342
30
0
10
154.43947615413327
20
284.39207928731423
30
0
0
ELLIPSE
5
137
100
AcDbEntity
8
0
100
AcDbEllipse
10
146.47183352683928
20
291.21754425864322
30
0
11
2.1315219297425632
21
1.2560332578940381
31
0.0
40
0.99611946651568939
41
4.6376360184725325
42
5.3248597881326081
0
ELLIPSE
5
138
100
AcDbEntity
8
0
100
AcDbEllipse
10
129.34186677913462
20
300.67410708898547
30
0
11
26.321142749017589
21
-14.518397787305712
31
0.0
40
0.58879242585426628
41
6.1622488020492732
42
6.4090590335968773
0
SPLINE
5
139
100
AcDbEntity
8
0
100
AcDbSpline
70
0
71
3
72
8
73
4
74
0
42
0.000000001
43
0.0000000001
44
0.0000000001
40
125
40
125
40
125
40
125
40
126
40
126
40
126
40
126
10
147.56030948746661
20
289.00641864956475
30
0
10
146.32558726524437
20
288.38905753845347
30
0
10
144.82275048681552
20
288.89352717685409
30
0
10
144.20892059857769
20
290.13175909010283
30
0
0
SPLINE
5
140
100
AcDbEntity
8
0
100
AcDbSpline
70
0
71
3
72
8
73
4
74
0
42
0.000000001
43
0.0000000001
44
0.0000000001
40
135
40
135
40
135
40
135
40
136
40
136
40
136
40
136
10
149.16542253813935
20
303.45618264696031
30
0
10
168.19427826459332
20
337.4710099513768
30
0
10
178.36131487212373
20
375.72623303487256
30
0
10
178.72115509564804
20
414.70113656541884
30
0
0
ELLIPSE
5
141
100
AcDbEntity
8
0
100
AcDbEllipse
10
114.4438461838353
20
414.8832122588459
30
0
11
-3.4538386233803999
21
-69.375676540768694
31
0.0
40
0.92522190692303141
41
1.6142038063206847
42
1.7735840832864236
0
ELLIPSE
5
142
100
AcDbEntity
8
0
100
AcDbEllipse
10
165.47594466292369
20
423.89549293449392
30
0
11
-4.1304106152953253
21
-12.055418438803764
31
0.0
40
0.99263582737013489
41
2.0428306547776098
42
2.6865350373001951
0
LINE
5
143
100
AcDbEntity
8
0
100
AcDbLine
10
174.44553321522261
20
432.92209586853073
30
0
11
169.74650909955429
21
437.65638914924074
31
0
0
ELLIPSE
5
144
100
AcDbEntity
8
0
100
AcDbEllipse
10
170.12011333098377
20
438.14331712049437
30
0
11
-0.42745680722592638
21
0.65040427430495296
31
0.0
40
0.77111038229772921
41
1.2671243296032859
42
1.8329751140228241
0
SPLINE
5
145
100
AcDbEntity
8
0
100
AcDbSpline
70
0
71
3
72
8
73
4
74
0
42
0.000000001
43
0.0000000001
44
0.0000000001
40
140
40
140
40
140
40
140
40
141
40
141
40
141
40
141
10
169.5137067720803
20
438.02327028666343
30
0
10
169.32672421457167
20
438.54184328470836
30
0
10
169.59483877077818
20
439.11336309400963
30
0
10
170.11694299169832
20
439.30385534254344
30
0
0
SPLINE
5
146
100
AcDbEntity
8
0
100
AcDbSpline
70
0
71
3
72
14
73
10
74
0
42
0.000000001
43
0.0000000001
44
0.0000000001
40
141
40
141
40
141
40
141
40
142
40
142
40
142
40
143
40
143
40
143
40
144
40
144
40
144
40
144
10
170.11694299169832
20
439.30385534254344
30
0
10
172.24420026131642
20
440.0693759881849
30
0
10
174.56894706045702
20
440.10817736748277
30
0
10
176.72092394203366
20
439.40615618702338
30
0
10
177.03213581339435
20
439.3046321756957
30
0
10
177.27046637901549
20
439.04971508393038
30
0
10
177.37026168227703
20
438.73794457345929
30
0
10
177.88959086832224
20
437.11550824485812
30
0
10
178.37041912495795
20
435.47911998857614
30
0
10
178.80934954009248
20
433.82873734124161
30
0
0
SPLINE
5
147
100
AcDbEntity
8
0
100
AcDbSpline
70
0
71
3
72
11
73
7
74
0
42
0.000000001
43
0.0000000001
44
0.0000000001
40
144
40
144
40
144
40
144
40
145
40
145
40
145
40
146
40
146
40
146
40
146
10
178.80934954009248
20
433.82873734124161
30
0
10
179.16565854074352
20
432.49524853780144
30
0
10
180.53447698515407
20
431.70151395592961
30
0
10
181.86794837635549
20
432.05780753845431
30
0
10
183.20145459192577
20
432.41411042578994
30
0
10
183.99520871164196
20
433.78287450758359
30
0
10
183.64243093386409
20
435.116384842868
30
0
0
SPLINE
5
148
100
AcDbEntity
8
0
100
AcDbSpline
70
0
71
3
72
11
73
7
74
0
42
0.000000001
43
0.0000000001
44
0.0000000001
40
86
40
86
40
86
40
86
40
87
40
87
40
87
40
88
40
88
40
88
40
88
10
66.93297421457163
20
485.09440659172992
30
0
10
69.67053321522269
20
485.03444039842361
30
0
10
72.217583812848659
20
483.90908356373643
30
0
10
74.108462156737417
20
481.93000026035173
30
0
10
75.99935125537057
20
479.95090570053935
30
0
10
77.008285154784289
20
477.35446128601046
30
0
10
76.944766206759112
20
474.61690228536133
30
0
0
ELLIPSE
5
149
100
AcDbEntity
8
0
100
AcDbEllipse
10
42.84755675590236
20
475.98518176973977
30
0
11
28.637376063623972
21
-18.883273433689844
31
0.0
40
0.98095134588613442
41
0.26493765204552189
42
0.55138708151234106
0
SPLINE
5
150
100
AcDbEntity
8
0
100
AcDbSpline
70
0
71
3
72
8
73
4
74
0
42
0.000000001
43
0.0000000001
44
0.0000000001
40
99
40
99
40
99
40
99
40
100
40
100
40
100
40
100
10
133.65732520741017
20
446.74041692701837
30
0
10
126.92280948746659
20
448.84295870219199
30
0
10
114.07109609499699
20
458.40324939907646
30
0
10
111.9015472126185
20
465.11659931362777
30
0
0
ELLIPSE
5
151
100
AcDbEntity
8
0
100
AcDbEllipse
10
129.7930469117953
20
473.21217706365695
30
0
11
19.344816857152672
21
-3.4273647752693801
31
0.0
40
0.71565479532564735
41
2.9789440931047357
42
3.2853777715172341
0
SPLINE
5
152
100
AcDbEntity
8
0
100
AcDbSpline
70
0
71
3
72
11
73
7
74
0
42
0.000000001
43
0.0000000001
44
0.0000000001
40
102
40
102
40
102
40
102
40
103
40
103
40
103
40
104
40
104
40
104
40
104
10
111.10073476687204
20
478.83613225904969
30
0
10
112.70589088123829
20
482.6425967298058
30
0
10
116.41358877077823
20
485.10146903747659
30
0
10
120.54460276817406
20
485.10146903747659
30
0
10
121.91333920480601
20
485.10146903747659
30
0
10
123.25391198583895
20
484.82982325839669
30
0
10
124.52394643679386
20
484.29008445495668
30
0
0
ELLIPSE
5
153
100
AcDbEntity
8
0
100
AcDbEllipse
10
119.08719088650081
20
464.8815128471403
30
0
11
36.190696569944045
21
-17.136841439137953
31
0.0
40
0.49796071594756031
41
1.4805034012391525
42
1.6556169395195028
0
SPLINE
5
154
100
AcDbEntity
8
0
100
AcDbSpline
70
0
71
3
72
8
73
4
74
0
42
0.000000001
43
0.0000000001
44
0.0000000001
40
105
40
105
40
105
40
105
40
106
40
106
40
106
40
106
10
130.849227876681
20
481.28441089809911
30
0
10
130.84927261167093
20
481.28438856470092
30
0
10
130.87747765966714
20
481.27030753845429
30
0
10
130.93035987537891
20
481.23854806444109
30
0
0
SPLINE
5
155
100
AcDbEntity
8
0
100
AcDbSpline
70
0
71
3
72
8
73
4
74
0
42
0.000000001
43
0.0000000001
44
0.0000000001
40
106
40
106
40
106
40
106
40
107
40
107
40
107
40
107
10
130.93035987537891
20
481.23854806444109
30
0
10
130.94095354399872
20
481.23148561869465
30
0
10
130.95507843549174
20
481.22444470479644
30
0
10
130.97273454985807
20
481.2138510361745
30
0
0
SPLINE
5
156
100
AcDbEntity
8
0
100
AcDbSpline
70
0
71
3
72
11
73
7
74
0
42
0.000000001
43
0.0000000001
44
0.0000000001
40
31
40
31
40
31
40
31
40
32
40
32
40
32
40
33
40
33
40
33
40
33
10
91.620356126343708
20
497.29699939907647
30
0
10
91.620356118369912
20
497.15880740672867
30
0
10
91.510520772453077
20
497.04656751534924
30
0
10
91.372375884015412
20
497.0429596700825
30
0
10
75.155519233079403
20
496.61943397782244
30
0
10
59.390248427012935
20
491.61706936370615
30
0
10
45.896790539441426
20
482.61439001051247
30
0
0
SPLINE
5
157
100
AcDbEntity
8
0
100
AcDbSpline
70
0
71
3
72
8
73
4
74
0
42
0.000000001
43
0.0000000001
44
0.0000000001
40
33
40
33
40
33
40
33
40
34
40
34
40
34
40
34
10
45.896790539441426
20
482.61439001051247
30
0
10
43.141618488117636
20
480.77287881395227
30
0
10
41.211934378959654
20
477.92949078633876
30
0
10
40.523991874076835
20
474.68393092441408
30
0
0
LINE
5
158
100
AcDbEntity
8
0
100
AcDbLine
10
40.523991874076835
20
474.68393092441408
30
0
11
37.567755437444902
21
460.75273992506339
31
0
0
ELLIPSE
5
159
100
AcDbEntity
8
0
100
AcDbEllipse
10
24.900187326015491
20
463.5439186684269
30
0
11
10.839583918761083
21
-7.1578351271934251
31
0.0
40
0.98923892054933704
41
6.0875297044141243
42
6.6535576769475
0
LINE
5
160
100
AcDbEntity
8
0
100
AcDbLine
10
34.15637882340409
20
454.43800909010338
30
0
11
25.418066377657567
21
445.63622076002355
31
0
0
SPLINE
5
161
100
AcDbEntity
8
0
100
AcDbSpline
70
0
71
3
72
8
73
4
74
0
42
0.000000001
43
0.0000000001
44
0.0000000001
40
37
40
37
40
37
40
37
40
38
40
38
40
38
40
38
10
25.418066377657567
20
445.63622076002355
30
0
10
23.636542906249147
20
443.84410361999693
30
0
10
20.96248132177648
20
443.27613656541871
30
0
10
18.609459572915814
20
444.19335017489942
30
0
0
SPLINE
5
162
100
AcDbEntity
8
0
100
AcDbSpline
70
0
71
3
72
8
73
4
74
0
42
0.000000001
43
0.0000000001
44
0.0000000001
40
38
40
38
40
38
40
38
40
39
40
39
40
39
40
39
10
18.609459572915814
20
444.19335017489942
30
0
10
13.963360736652795
20
445.99957067457467
30
0
10
8.6858189614791854
20
444.7013510361744
30
0
10
5.4120308484149469
20
440.94074939907648
30
0
0
ELLIPSE
5
163
100
AcDbEntity
8
0
100
AcDbEllipse
10
10.407392143895846
20
438.26630476042061
30
0
11
5.1448320128369298
21
-2.4461046715315842
31
0.0
40
0.41745807777865612
41
3.027644418692593
42
3.1962250507900438
0
ELLIPSE
5
164
100
AcDbEntity
8
0
100
AcDbEllipse
10
32.917411566872985
20
434.74359706545852
30
0
11
-19.106392512174043
21
-52.553215021633939
31
0.0
40
0.50259938577398799
41
4.7834386749043052
42
4.8861434708736908
0
SPLINE
5
165
100
AcDbEntity
8
0
100
AcDbSpline
70
0
71
3
72
8
73
4
74
0
42
0.000000001
43
0.0000000001
44
0.0000000001
40
41
40
41
40
41
40
41
40
42
40
42
40
42
40
42
10
3.5987694348407304
20
435.116384842868
30
0
10
3.2424604341896899
20
433.78287450758359
30
0
10
4.0362104341896901
20
432.41409500725894
30
0
10
5.3732304605026222
20
432.05780753845431
30
0
0
SPLINE
5
166
100
AcDbEntity
8
0
100
AcDbSpline
70
0
71
3
72
8
73
4
74
0
42
0.000000001
43
0.0000000001
44
0.0000000001
40
42
40
42
40
42
40
42
40
43
40
43
40
43
40
43
10
5.3732304605026222
20
432.05780753845431
30
0
10
6.706740795789079
20
431.70149853780123
30
0
10
8.0754987642678149
20
432.49524853780144
30
0
10
8.4318077649188545
20
433.82873734124161
30
0
0
SPLINE
5
167
100
AcDbEntity
8
0
100
AcDbSpline
70
0
71
3
72
8
73
4
74
0
42
0.000000001
43
0.0000000001
44
0.0000000001
40
43
40
43
40
43
40
43
40
44
40
44
40
44
40
44
10
8.4318077649188545
20
433.82873734124161
30
0
10
8.8727799871410777
20
435.48679720316613
30
0
10
9.3560838201488892
20
437.13073217359744
30
0
10
9.8782095729158161
20
438.76058531623187
30
0
0
ELLIPSE
5
168
100
AcDbEntity
8
0
100
AcDbEllipse
10
10.858069584271258
20
438.40984178365761
30
0
11
-0.56738203259743303
21
0.88836129791826368
31
0.0
40
0.96723006544216705
41
6.0338433714185449
42
6.9580526851183313
0
ELLIPSE
5
169
100
AcDbEntity
8
0
100
AcDbEllipse
10
15.31251013985996
20
436.42237338395745
30
0
11
2.0839495850588658
21
2.7300813225345903
31
0.0
40
0.55736377993661745
41
6.2180102622370601
42
6.444905742966986
0
SPLINE
5
170
100
AcDbEntity
8
0
100
AcDbSpline
70
0
71
3
72
8
73
4
74
0
42
0.000000001
43
0.0000000001
44
0.0000000001
40
45
40
45
40
45
40
45
40
46
40
46
40
46
40
46
10
10.520267712292988
20
439.4061531466366
30
0
10
12.67220354399872
20
440.10817747931696
30
0
10
14.997018573566853
20
440.06937709140561
30
0
10
17.124257377006529
20
439.30385534254344
30
0
0
SPLINE
5
171
100
AcDbEntity
8
0
100
AcDbSpline
70
0
71
3
72
8
73
4
74
0
42
0.000000001
43
0.0000000001
44
0.0000000001
40
47
40
47
40
47
40
47
40
48
40
48
40
48
40
48
10
17.49113851443057
20
439.07100995137512
30
0
10
17.882738211967467
20
438.68296300856093
30
0
10
17.882738211967467
20
438.04796731492991
30
0
10
17.494669737303834
20
437.65638914924074
30
0
0
LINE
5
172
100
AcDbEntity
8
0
100
AcDbLine
10
17.494669737303834
20
437.65638914924074
30
0
11
12.795667153482221
21
432.92209586853073
31
0
0
ELLIPSE
5
173
100
AcDbEntity
8
0
100
AcDbEllipse
10
73.238706502511576
20
412.84111916919386
30
0
11
14.578099388867303
21
-68.890301042766794
31
0.0
40
0.91539685832952444
41
4.3363874475639284
42
4.4945385427191384
0
ELLIPSE
5
174
100
AcDbEntity
8
0
100
AcDbEllipse
10
21.694481127348975
20
424.01845344935845
30
0
11
-4.3172761269528541
21
-11.867364100159563
31
0.0
40
0.99614313097123619
41
4.2771091269084707
42
4.924411064460803
0
SPLINE
5
175
100
AcDbEntity
8
0
100
AcDbSpline
70
0
71
3
72
8
73
4
74
0
42
0.000000001
43
0.0000000001
44
0.0000000001
40
51
40
51
40
51
40
51
40
52
40
52
40
52
40
52
10
8.5164709864900381
20
414.70113656541884
30
0
10
8.8798424328876067
20
375.72623303487256
30
0
10
19.043369349391511
20
337.47100995137629
30
0
10
38.075734766871989
20
303.45618264696031
30
0
0
SPLINE
5
176
100
AcDbEntity
8
0
100
AcDbSpline
70
0
71
3
72
8
73
4
74
0
42
0.000000001
43
0.0000000001
44
0.0000000001
40
52
40
52
40
52
40
52
40
53
40
53
40
53
40
53
10
38.075734766871989
20
303.45618264696031
30
0
10
38.100453326984841
20
303.41385103617495
30
0
10
38.121597600530819
20
303.37151942538918
30
0
10
38.146273096950111
20
303.32565659173036
30
0
0
LINE
5
177
100
AcDbEntity
8
0
100
AcDbLine
10
30.649745764564081
20
288.47018822557754
30
0
11
30.642991662239091
21
288.45741858502998
31
0
0
SPLINE
5
178
100
AcDbEntity
8
0
100
AcDbSpline
70
0
71
3
72
11
73
7
74
0
42
0.000000001
43
0.0000000001
44
0.0000000001
40
66
40
66
40
66
40
66
40
67
40
67
40
67
40
68
40
68
40
68
40
68
10
30.642991662239091
20
288.45741858502998
30
0
10
31.887454512031141
20
283.91382625662783
30
0
10
36.100213862044754
20
280.71614087178693
30
0
10
40.788575207410176
20
280.71614087178693
30
0
10
41.811639375704445
20
280.71614087178693
30
0
10
42.831172321125464
20
280.86783273240962
30
0
10
43.822498547253929
20
281.16415400790896
30
0
0
ELLIPSE
5
179
100
AcDbEntity
8
0
100
AcDbEllipse
10
26.614247090269728
20
283.98943393786521
30
0
11
23.547610489529003
21
12.050279726349924
31
0.0
40
0.62687057927439982
41
6.1686265924162376
42
6.4247792124011456
0
SPLINE
5
180
100
AcDbEntity
8
0
100
AcDbSpline
70
0
71
3
72
8
73
4
74
0
42
0.000000001
43
0.0000000001
44
0.0000000001
40
68
40
68
40
68
40
68
40
69
40
69
40
69
40
69
10
43.822498547253929
20
281.16415400790896
30
0
10
49.378748547253927
20
282.83631722948041
30
0
10
52.53962365576087
20
288.71713828796504
30
0
10
50.870991657062959
20
294.27338828796502
30
0
0
SPLINE
5
181
100
AcDbEntity
8
0
100
AcDbSpline
70
0
71
3
72
14
73
10
74
0
42
0.000000001
43
0.0000000001
44
0.0000000001
40
70
40
70
40
70
40
70
40
71
40
71
40
71
40
72
40
72
40
72
40
73
40
73
40
73
40
73
10
48.860175549207057
20
298.00225198289786
30
0
10
27.756624234253628
20
332.07048105790648
30
0
10
16.117180950358549
20
371.10957366636256
30
0
10
15.107605854776953
20
411.13163427382199
30
0
10
15.086853698125854
20
411.95430123034259
30
0
10
15.115562290102494
20
412.78027127566588
30
0
10
15.192773214723957
20
413.59956978444222
30
0
10
16.386110335979943
20
426.26227689094753
30
0
10
20.750195119355823
20
431.61159583949916
30
0
10
21.763293767523024
20
432.69633445495674
30
0
0
SPLINE
5
182
100
AcDbEntity
8
0
100
AcDbSpline
70
0
71
3
72
8
73
4
74
0
42
0.000000001
43
0.0000000001
44
0.0000000001
40
73
40
73
40
73
40
73
40
74
40
74
40
74
40
74
10
21.763293767523024
20
432.69633445495674
30
0
10
21.770334681422764
20
432.70337536885893
30
0
10
21.773865904296024
20
432.71043781460537
30
0
10
21.780928350042544
20
432.7175002603517
30
0
0
ELLIPSE
5
183
100
AcDbEntity
8
0
100
AcDbEllipse
10
28.520659190113751
20
461.52927400746472
30
0
11
13.87523892254225
21
-7.0954236759161233
31
0.0
40
0.95385209598689435
41
5.9875359341106238
42
6.5354807326932383
0
LINE
5
184
100
AcDbEntity
8
0
100
AcDbLine
10
21.974951821450972
20
432.91152373175714
30
0
11
39.821967541394521
21
450.88555581590725
31
0
0
LINE
5
185
100
AcDbEntity
8
0
100
AcDbLine
10
43.64610965836502
20
457.96227717685434
30
0
11
45.092489934515186
21
464.80262192376131
31
0
0
SPLINE
5
186
100
AcDbEntity
8
0
100
AcDbSpline
70
0
71
3
72
11
73
7
74
0
42
0.000000001
43
0.0000000001
44
0.0000000001
40
74
40
74
40
74
40
74
40
75
40
75
40
75
40
76
40
76
40
76
40
76
10
21.780928350042544
20
432.7175002603517
30
0
10
21.833832097601142
20
432.77393523078325
30
0
10
21.879694931259998
20
432.81626684156612
30
0
10
21.911454405272586
20
432.8480263155792
30
0
10
21.922026542045593
20
432.85859845235257
30
0
10
21.929088987792113
20
432.86919212097422
30
0
10
21.939682656411907
20
432.87623303487243
30
0
0
LINE
5
187
100
AcDbEntity
8
0
100
AcDbLine
10
21.939682656411907
20
432.87623303487243
30
0
11
21.971421035371911
21
432.90799294597616
31
0
0
LINE
5
188
100
AcDbEntity
8
0
100
AcDbLine
10
21.971421035371911
20
432.90799294597616
30
0
11
21.974951821450972
21
432.91152373175714
31
0
0
SPLINE
5
189
100
AcDbEntity
8
0
100
AcDbSpline
70
0
71
3
72
14
73
10
74
0
42
0.000000001
43
0.0000000001
44
0.0000000001
40
81
40
81
40
81
40
81
40
82
40
82
40
82
40
83
40
83
40
83
40
84
40
84
40
84
40
84
10
45.092489934515186
20
464.80262192376131
30
0
10
46.984454709277976
20
470.35381911338902
30
0
10
49.324446164805948
20
474.17587558089019
30
0
10
51.378738741954812
20
476.73038400966004
30
0
10
53.279436697265496
20
479.09389785447684
30
0
10
55.700680584159208
20
480.97956820732412
30
0
10
58.419590864944126
20
482.32358357070217
30
0
10
59.833927578731689
20
483.02272038509443
30
0
10
61.267609616890823
20
483.6785109736428
30
0
10
62.713722709037789
20
484.29008445495668
30
0
0
SPLINE
5
190
100
AcDbEntity
8
0
100
AcDbSpline
70
0
71
3
72
11
73
7
74
0
42
0.000000001
43
0.0000000001
44
0.0000000001
40
84
40
84
40
84
40
84
40
85
40
85
40
85
40
86
40
86
40
86
40
86
10
62.713722709037789
20
484.29008445495668
30
0
10
63.983714096299032
20
484.82629203552517
30
0
10
65.324286877332057
20
485.09793781460553
30
0
10
66.7001288234041
20
485.09793781460553
30
0
10
66.777729599228749
20
485.09793781460553
30
0
10
66.85537343874698
20
485.09793781460553
30
0
10
66.93297421457163
20
485.09440659172992
30
0
0
SPLINE
5
191
100
AcDbEntity
8
0
100
AcDbSpline
70
0
71
3
72
11
73
7
74
0
42
0.000000001
43
0.0000000001
44
0.0000000001
40
28
40
28
40
28
40
28
40
29
40
29
40
29
40
30
40
30
40
30
40
30
10
91.362835325682767
20
499.05735706509017
30
0
10
91.36288532568274
20
499.05735706509017
30
0
10
91.362935325682756
20
499.05735706509017
30
0
10
91.366366548556002
20
499.05735706509017
30
0
10
91.50744320871226
20
499.05735706509017
30
0
10
91.620356213269531
20
498.94446559238304
30
0
10
91.620356213269531
20
498.80334586853076
30
0
0
LINE
5
192
100
AcDbEntity
8
0
100
AcDbLine
10
91.620356213269531
20
498.80334586853076
30
0
11
91.620356126343708
21
497.29699939907647
31
0
0
SPLINE
5
193
100
AcDbEntity
8
0
100
AcDbSpline
70
0
71
3
72
8
73
4
74
0
42
0.000000001
43
0.0000000001
44
0.0000000001
40
98.96259677029272
40
98.96259677029272
40
98.96259677029272
40
98.96259677029272
40
99
40
99
40
99
40
99
10
133.78106095149894
20
446.69418186223857
30
0
10
133.73961812908763
20
446.70864451407368
30
0
10
133.69836316272676
20
446.72405441547568
30
0
10
133.65732520741017
20
446.74041692701837
30
0
0
SPLINE
5
194
100
AcDbEntity
8
0
100
AcDbSpline
70
0
71
3
72
8
73
4
74
0
42
0.000000001
43
0.0000000001
44
0.0000000001
40
94.078974813519878
40
94.078974813519878
40
94.078974813519878
40
94.078974813519878
40
94.921035741454702
40
94.921035741454702
40
94.921035741454702
40
94.921035741454702
10
55.43376286330151
20
442.09558977842846
30
0
10
79.93571222459839
20
451.92359253595129
30
0
10
107.30648143638724
20
451.92346934341714
30
0
10
131.80835887723475
20
442.09522020082625
30
0
0
ARC
5
195
100
AcDbEntity
8
0
100
AcDbCircle
10
152.71284273597774
20
289.5566996684729
30
0
40
4.0437525663934784
210
0
220
0
230
1
100
AcDbArc
50
-19.360105289746549
51
170.81292776039379
0
SPLINE
5
196
100
AcDbEntity
8
0
100
AcDbSpline
70
0
71
3
72
8
73
4
74
0
42
0.000000001
43
0.0000000001
44
0.0000000001
40
89
40
89
40
89
40
89
40
89.972717875588984
40
89.972717875588984
40
89.972717875588984
40
89.972717875588984
10
75.33612193321315
20
465.11659931362777
30
0
10
73.229155948146442
20
458.58640384666001
30
0
10
60.567710659052892
20
449.22564429457464
30
0
10
53.680195584973156
20
446.7878636834775
30
0
0
ARC
5
197
100
AcDbEntity
8
0
100
AcDbCircle
10
-3.7515409436486813
20
277.97933774983289
30
0
40
48.967976272413964
210
0
220
-0
230
1
100
AcDbArc
50
16.811175738527933
51
31.172077486373507
0
ARC
5
198
100
AcDbEntity
8
0
100
AcDbCircle
10
54.549927538948808
20
444.43909141923541
30
0
40
2.5046286792733512
210
0
220
0
230
1
100
AcDbArc
50
110.31919612731903
51
290.66361812080834
0
SPLINE
5
199
100
AcDbEntity
8
0
100
AcDbSpline
70
0
71
3
72
11
73
7
74
0
42
0.000000001
43
0.0000000001
44
0.0000000001
40
61.03090088218385
40
61.03090088218385
40
61.03090088218385
40
61.03090088218385
40
62
40
62
40
62
40
63
40
63
40
63
40
63
10
43.123695576130785
20
292.14178325547056
30
0
10
43.580242119795159
20
290.95058421042813
30
0
10
43.029679842147679
20
289.54114845932298
30
0
10
41.868312358404943
20
288.98773131333212
30
0
10
40.605059458719708
20
288.38576352605122
30
0
10
39.09713538763156
20
288.93456665133556
30
0
10
38.52023821196746
20
290.20231895202755
30
0
0
ARC
5
200
100
AcDbEntity
8
0
100
AcDbCircle
10
34.628075792110899
20
289.1404884842463
30
0
40
4.0344035798184592
210
0
220
-0
230
1
100
AcDbArc
50
15.25966243682651
51
189.56381788095871
0
SPLINE
5
201
100
AcDbEntity
8
0
100
AcDbSpline
70
0
71
3
72
8
73
4
74
0
42
0.000000001
43
0.0000000001
44
0.0000000001
40
63
40
63
40
63
40
63
40
63.000001194198653
40
63.000001194198653
40
63.000001194198653
40
63.000001194198653
10
38.52023821196746
20
290.20231895202755
30
0
10
38.520237980239173
20
290.20231945335985
30
0
10
38.520237748510525
20
290.2023199546918
30
0
10
38.520237516781506
20
290.20232045602359
30
0
0
ARC
5
202
100
AcDbEntity
8
0
100
AcDbCircle
10
132.69122976606246
20
444.43909141923541
30
0
40
2.5046286792733357
210
0
220
0
230
1
100
AcDbArc
50
-110.66361812080831
51
64.206634457381057
0
SPLINE
5
203
100
AcDbEntity
8
0
100
AcDbSpline
70
0
71
3
72
11
73
7
74
0
42
0.000000001
43
0.0000000001
44
0.0000000001
40
66
40
66
40
66
40
66
40
67
40
67
40
67
40
68
40
68
40
68
40
68
10
156.59816564277219
20
288.45741858502998
30
0
10
155.3537027929801
20
283.91382625662783
30
0
10
151.14094344296655
20
280.71614087178693
30
0
10
146.45258209760109
20
280.71614087178693
30
0
10
145.42951792930683
20
280.71614087178693
30
0
10
144.40998498388581
20
280.86783273240962
30
0
10
143.41865875775736
20
281.16415400790896
30
0
0
SPLINE
5
204
100
AcDbEntity
8
0
100
AcDbSpline
70
0
71
3
72
11
73
7
74
0
42
0.000000001
43
0.0000000001
44
0.0000000001
40
61.03090088218385
40
61.03090088218385
40
61.03090088218385
40
61.03090088218385
40
62
40
62
40
62
40
63
40
63
40
63
40
63
10
144.11746172888053
20
292.14178325547056
30
0
10
143.66091518521614
20
290.95058421042813
30
0
10
144.21147746286363
20
289.54114845932298
30
0
10
145.37284494660634
20
288.98773131333212
30
0
10
146.63609784629156
20
288.38576352605122
30
0
10
148.14402191737972
20
288.93456665133556
30
0
10
148.72091909304385
20
290.20231895202755
30
0
0
ARC
5
205
100
AcDbEntity
8
0
100
AcDbCircle
10
190.25469460174452
20
278.34077031382566
30
0
40
48.157161620889077
210
0
220
0
230
1
100
AcDbArc
50
148.56505214008328
51
163.34651818210219
0
SPLINE
5
206
100
AcDbEntity
8
0
100
AcDbSpline
70
0
71
3
72
8
73
4
74
0
42
0.000000001
43
0.0000000001
44
0.0000000001
40
126
40
126
40
126
40
126
40
126.53450023496742
40
126.53450023496742
40
126.53450023496742
40
126.53450023496742
10
144.20892059857769
20
290.13175909010283
30
0
10
143.88082837908453
20
290.79171840800007
30
0
10
143.87222986327043
20
291.52827550783383
30
0
10
144.12440229419423
20
292.16473604704953
30
0
0
ARC
5
207
100
AcDbEntity
8
0
100
AcDbCircle
10
110.47222435786837
20
471.85961860314279
30
0
40
1.500000462804417
210
0
220
0
230
1
100
AcDbArc
50
94.739948664501156
51
277.33003161492161
0
ELLIPSE
5
208
100
AcDbEntity
8
0
100
AcDbEllipse
10
149.19104556587496
20
475.3040485085188
30
0
11
38.901809308893675
21
-0.25740175467463244
31
0.0
40
0.92226297660232415
41
3.1678215989374237
42
3.2031313617028547
0
ELLIPSE
5
209
100
AcDbEntity
8
0
100
AcDbEllipse
10
149.19104556587496
20
475.3040485085188
30
0
11
38.901809308893675
21
-0.25740175467463244
31
0.0
40
0.92226297660232415
41
3.2866719157886073
42
3.4366697772619315
0
ARC
5
210
100
AcDbEntity
8
0
100
AcDbCircle
10
69.63790270807192
20
484.6729782005616
30
0
40
1.5000000000000122
210
0
220
0
230
1
100
AcDbArc
50
167.67719134383881
51
339.19312597842969
0
ARC
5
211
100
AcDbEntity
8
0
100
AcDbCircle
10
73.534387574781078
20
482.48677463589172
30
0
40
1.4999999999999869
210
0
220
0
230
1
100
AcDbArc
50
142.24023456247221
51
313.96390164794281
0
ARC
5
212
100
AcDbEntity
8
0
100
AcDbCircle
10
76.127438909811133
20
478.88154104466514
30
0
40
1.499999999999984
210
0
220
0
230
1
100
AcDbArc
50
117.43449003379092
51
288.93453557487192
0
ARC
5
213
100
AcDbEntity
8
0
100
AcDbCircle
10
76.944766206759112
20
474.61690228536128
30
0
40
1.4999999999999716
210
0
220
0
230
1
100
AcDbArc
50
92.797572993175052
51
267.40322368413723
0
ARC
5
214
100
AcDbEntity
8
0
100
AcDbCircle
10
76.229874369791474
20
468.46463489184322
30
0
40
1.5000009576751414
210
0
220
-0
230
1
100
AcDbArc
50
79.334798912360498
51
256.75059081500092
0
ARC
5
215
100
AcDbEntity
8
0
100
AcDbCircle
10
74.436576771514481
20
462.6709988063306
30
0
40
1.4999999128021257
210
0
220
-0
230
1
100
AcDbArc
50
70.818615189621397
51
227.07630729822472
0
ARC
5
216
100
AcDbEntity
8
0
100
AcDbCircle
10
70.599047678453303
20
458.29041686820864
30
0
40
1.5000000059168506
210
0
220
-0
230
1
100
AcDbArc
50
46.739370033203926
51
224.5548653827303
0
ARC
5
217
100
AcDbEntity
8
0
100
AcDbCircle
10
66.738187589848479
20
454.77393058478134
30
0
40
1.4999999989926047
210
0
220
-0
230
1
100
AcDbArc
50
40.215947611279852
51
218.72172541634228
0
ARC
5
218
100
AcDbEntity
8
0
100
AcDbCircle
10
62.277816735226146
20
451.43532802762871
30
0
40
1.5000000558772697
210
0
220
-0
230
1
100
AcDbArc
50
34.925517901965939
51
213.51375971980539
0
ARC
5
219
100
AcDbEntity
8
0
100
AcDbCircle
10
57.734834979476602
20
448.64915469279879
30
0
40
1.5000000323344242
210
0
220
-0
230
1
100
AcDbArc
50
29.424105005536678
51
207.40794438115742
0
ENDSEC
0
SECTION
2
OBJECTS
0
DICTIONARY
5
C
100
AcDbDictionary
3
ACAD_GROUP
350
D
3
ACAD_MLINESTYLE
350
17
0
DICTIONARY
5
D
100
AcDbDictionary
0
DICTIONARY
5
1A
330
C
100
AcDbDictionary
0
DICTIONARY
5
17
100
AcDbDictionary
0
ENDSEC
0
EOF
