0
SECTION
2
HEADER
9
$INSUNITS
70
1
9
$ACADVER
1
AC1014
9
$HANDSEED
5
FFFF
0
ENDSEC
0
SECTION
2
TABLES
0
TABLE
2
VPORT
5
8
100
AcDbSymbolTable
0
ENDTAB
0
TABLE
2
LTYPE
5
5
100
AcDbSymbolTable
0
LTYPE
5
14
100
AcDbSymbolTableRecord
100
AcDbLinetypeTableRecord
2
BYBLOCK
70
0
0
LTYPE
5
15
100
AcDbSymbolTableRecord
100
AcDbLinetypeTableRecord
2
BYLAYER
70
0
0
ENDTAB
0
TABLE
2
LAYER
5
2
100
AcDbSymbolTable
70
2
0
LAYER
5
50
100
AcDbSymbolTableRecord
100
AcDbLayerTableRecord
2
0
70
0
6
CONTINUOUS
0
ENDTAB
0
TABLE
2
STYLE
5
3
100
AcDbSymbolTable
70
1
0
STYLE
5
11
100
AcDbSymbolTableRecord
100
AcDbTextStyleTableRecord
2
STANDARD
70
0
0
ENDTAB
0
TABLE
2
VIEW
5
6
100
AcDbSymbolTable
70
0
0
ENDTAB
0
TABLE
2
UCS
5
7
100
AcDbSymbolTable
70
0
0
ENDTAB
0
TABLE
2
APPID
5
9
100
AcDbSymbolTable
70
2
0
APPID
5
12
100
AcDbSymbolTableRecord
100
AcDbRegAppTableRecord
2
ACAD
70
0
0
ENDTAB
0
TABLE
2
DIMSTYLE
5
A
100
AcDbSymbolTable
70
1
0
ENDTAB
0
TABLE
2
BLOCK_RECORD
5
1
100
AcDbSymbolTable
70
1
0
BLOCK_RECORD
5
1F
100
AcDbSymbolTableRecord
100
AcDbBlockTableRecord
2
*MODEL_SPACE
0
BLOCK_RECORD
5
1B
100
AcDbSymbolTableRecord
100
AcDbBlockTableRecord
2
*PAPER_SPACE
0
ENDTAB
0
ENDSEC
0
SECTION
2
BLOCKS
0
BLOCK
5
20
100
AcDbEntity
100
AcDbBlockBegin
2
*MODEL_SPACE
0
ENDBLK
5
21
100
AcDbEntity
100
AcDbBlockEnd
0
BLOCK
5
1C
100
AcDbEntity
100
AcDbBlockBegin
2
*PAPER_SPACE
0
ENDBLK
5
1D
100
AcDbEntity
100
AcDbBlockEnd
0
ENDSEC
0
SECTION
2
ENTITIES
0
ARC
5
100
100
AcDbEntity
8
0
100
AcDbCircle
10
-0.00042774393027906034
20
2.1491677564872704
30
0
40
0.78153230422996045
210
-1.44406699480215e-34
220
3.3150781058090521e-36
230
1
100
AcDbArc
50
268.68491815716419
51
271.31508577536516
0
ARC
5
101
100
AcDbEntity
8
0
100
AcDbCircle
10
-7.1834111514957864e-07
20
-1.2811636723329676
30
0
40
0.079989953339935707
210
0
220
0
230
1
100
AcDbArc
50
252.98913114421651
51
287.01086885583874
0
ARC
5
102
100
AcDbEntity
8
0
100
AcDbCircle
10
-0.00042774393027906034
20
2.1491677564872704
30
0
40
0.83006273777409478
210
-6.0107438146177555e-35
220
-1.5425796730464749e-33
230
1
100
AcDbArc
50
268.6550972946535
51
271.34490270523366
0
ARC
5
103
100
AcDbEntity
8
0
100
AcDbCircle
10
0.029961101500950285
20
-1.3872120491405149
30
4.1754056573408787e-48
40
0.078740157480323078
210
7.3993176652076454e-34
220
1.1301242120836899e-34
230
1
100
AcDbArc
50
98.683879490307831
51
112.36559352572003
0
ARC
5
104
100
AcDbEntity
8
0
100
AcDbCircle
10
-0.029962538183162069
20
-1.3872120491405022
30
-2.9095253635452442e-49
40
0.078740157480306758
210
-3.4610267001367554e-34
220
1.4241014157322227e-34
230
1
100
AcDbArc
50
67.634406474285711
51
81.316120509682349
0
SPLINE
5
105
100
AcDbEntity
8
0
100
AcDbSpline
70
0
71
3
72
113
73
109
74
0
42
0.000000001
43
0.0000000001
44
0.0000000001
40
0.0079339606113907491
40
0.0079339606113907491
40
0.0079339606113907491
40
0.0079339606113907491
40
0.014167047286760119
40
0.014167047286760119
40
0.014167047286760119
40
0.029173376502820807
40
0.029173376502820807
40
0.029173376502820807
40
0.11303824832444967
40
0.11303824832444967
40
0.11303824832444967
40
0.29254296860260148
40
0.29254296860260148
40
0.29254296860260148
40
0.37563468992775012
40
0.37563468992775012
40
0.37563468992775012
40
0.46602409672082112
40
0.46602409672082112
40
0.46602409672082112
40
0.5980567704600448
40
0.5980567704600448
40
0.5980567704600448
40
0.83533551497956315
40
0.83533551497956315
40
0.83533551497956315
40
1.0731965677152306
40
1.0731965677152306
40
1.0731965677152306
40
1.2853973647367263
40
1.2853973647367263
40
1.2853973647367263
40
1.755211456487479
40
1.755211456487479
40
1.755211456487479
40
1.9749256093297753
40
1.9749256093297753
40
1.9749256093297753
40
2.4272991008327227
40
2.4272991008327227
40
2.4272991008327227
40
2.7055067633847338
40
2.7055067633847338
40
2.7055067633847338
40
3.0590565502483313
40
3.0590565502483313
40
3.0590565502483313
40
3.2768526881017253
40
3.2768526881017253
40
3.2768526881017253
40
3.4327399200018931
40
3.4327399200018931
40
3.4327399200018931
40
3.6585147547041461
40
3.6585147547041461
40
3.6585147547041461
40
3.8532436172439866
40
3.8532436172439866
40
3.8532436172439866
40
4.376544923507792
40
4.376544923507792
40
4.376544923507792
40
4.8737577211436074
40
4.8737577211436074
40
4.8737577211436074
40
5.4231475360354029
40
5.4231475360354029
40
5.4231475360354029
40
6.0778514454778172
40
6.0778514454778172
40
6.0778514454778172
40
6.3482060425170577
40
6.3482060425170577
40
6.3482060425170577
40
6.7374763461197951
40
6.7374763461197951
40
6.7374763461197951
40
7.0906307879201176
40
7.0906307879201176
40
7.0906307879201176
40
7.1778691876163325
40
7.1778691876163325
40
7.1778691876163325
40
7.4182308269548765
40
7.4182308269548765
40
7.4182308269548765
40
7.7025981515347794
40
7.7025981515347794
40
7.7025981515347794
40
8.0797445798119156
40
8.0797445798119156
40
8.0797445798119156
40
8.3985437971147423
40
8.3985437971147423
40
8.3985437971147423
40
8.909208224266008
40
8.909208224266008
40
8.909208224266008
40
9.4929675645395886
40
9.4929675645395886
40
9.4929675645395886
40
9.9648628902188321
40
9.9648628902188321
40
9.9648628902188321
40
10.210773624073234
40
10.210773624073234
40
10.210773624073234
40
10.416018331769378
40
10.416018331769378
40
10.416018331769378
40
10.416018331769378
10
0.0038873018340272996
20
1.8401065185364556
30
0
10
0.0054079371702206828
20
1.8401613167213644
30
0
10
0.0068845659913516419
20
1.8402115525596683
30
0
10
0.0084947016475980588
20
1.8402622198449847
30
0
10
0.012371147941154506
20
1.8403842027410275
30
0
10
0.016678634227682381
20
1.8404968208185091
30
0
10
0.021417521638346829
20
1.8405754993876386
30
0
10
0.045293402045867646
20
1.8409719046921713
30
0
10
0.070967839132542551
20
1.8404416888247284
30
0
10
0.098558853860541237
20
1.8383259093331561
30
0
10
0.16026078339329261
20
1.8335943806676542
30
0
10
0.22737394494978325
20
1.8212258489525039
30
0
10
0.2979840127045848
20
1.7946682739561575
30
0
10
0.32945272802517284
20
1.7828323871805303
30
0
10
0.36451201790233323
20
1.7671307026704226
30
0
10
0.40162265411349096
20
1.7452074318310744
30
0
10
0.43491562256653332
20
1.7255394649363853
30
0
10
0.46089873509256968
20
1.7065640919735834
30
0
10
0.48142121424489331
20
1.6905594693795023
30
0
10
0.51504328334973737
20
1.6643390248191186
30
0
10
0.54232232156141258
20
1.638824891040447
30
0
10
0.56439663092566494
20
1.6166676114793284
30
0
10
0.6030265466894853
20
1.5778924983431699
30
0
10
0.63140405113687081
20
1.5441425546607783
30
0
10
0.65307875290194239
20
1.5185222803960248
30
0
10
0.67550891581438766
20
1.4920090239808423
30
0
10
0.69500043117358301
20
1.4684965962253254
30
0
10
0.71206160608243652
20
1.4485711563066019
30
0
10
0.72789705178556874
20
1.4300772235247377
30
0
10
0.74284466899753054
20
1.4130693203533216
30
0
10
0.75697324111633801
20
1.3976567772782489
30
0
10
0.78552364862726509
20
1.366511776787557
30
0
10
0.81548477359956872
20
1.3376866959791585
30
0
10
0.84722425067115459
20
1.3108271484596365
30
0
10
0.86338285185687891
20
1.2971529245454214
30
0
10
0.88096125831000061
20
1.2829646786193154
30
0
10
0.8998774455327796
20
1.2682232359085119
30
0
10
0.93824360143760899
20
1.2383243729588087
30
0
10
0.98522653359221357
20
1.2042072269777417
30
0
10
1.0385727740427537
20
1.1636057052932887
30
0
10
1.0705684168316121
20
1.13925400265167
30
0
10
1.1040356739824846
20
1.1132365525414509
30
0
10
1.1384995531678028
20
1.0849507053264358
30
0
10
1.1833883826112659
20
1.0481086956248822
30
0
10
1.2253630069275985
20
1.0108978376261852
30
0
10
1.2650554233473725
20
0.9740208678416995
30
0
10
1.2898364308225827
20
0.95099761689552731
30
0
10
1.3143903614051262
20
0.92742780395743052
30
0
10
1.338648850519518
20
0.90329587243657528
30
0
10
1.3560119287855494
20
0.88602337810556797
30
0
10
1.3733670770190367
20
0.86832027373938847
30
0
10
1.3906643984147136
20
0.85014277562141016
30
0
10
1.4164228844005025
20
0.82307356531895981
30
0
10
1.446412509260306
20
0.79044340729024076
30
0
10
1.4780952680085961
20
0.75025536442190655
30
0
10
1.5059541930422595
20
0.71491766916583843
30
0
10
1.5331846587821161
20
0.67590900646519958
30
0
10
1.5583790493660767
20
0.63279446780189952
30
0
10
1.6237947249625846
20
0.52085023699017841
30
0
10
1.6581296443418108
20
0.41611557364208523
30
0
10
1.6825042939074972
20
0.32838897011538015
30
0
10
1.7056540888388247
20
0.24507073096727505
30
0
10
1.7220482651764926
20
0.16456151867385838
30
0
10
1.7348002134765252
20
0.087895548940726972
30
0
10
1.7489439882374576
20
0.0028617813766711195
30
0
10
1.7591809772019733
20
-0.081816931892895198
30
0
10
1.7661920527813562
20
-0.16577231111009724
30
0
10
1.7745079710053429
20
-0.26535276208785036
30
0
10
1.778820031396029
20
-0.3684576985294199
30
0
10
1.7762584618193229
20
-0.474760902608383
30
0
10
1.7751925322792315
20
-0.51899617400781139
30
0
10
1.7728736934033849
20
-0.56521230965155911
30
0
10
1.7684975676450592
20
-0.61321473197131005
30
0
10
1.7622967674524104
20
-0.68123229956558251
30
0
10
1.7519504704370981
20
-0.75739345305244343
30
0
10
1.7306192841315808
20
-0.84004997783548907
30
0
10
1.7108087358661153
20
-0.91681416010915417
30
0
10
1.6802687138624632
20
-1.0037917406286732
30
0
10
1.6269853777136838
20
-1.0931440330850519
30
0
10
1.6134007311150114
20
-1.1159245007421792
30
0
10
1.5992829945266056
20
-1.1371531108685462
30
0
10
1.5849155119914602
20
-1.1570140824128998
30
0
10
1.5441118692586728
20
-1.2134192310003105
30
0
10
1.5000307658348344
20
-1.2601568532527243
30
0
10
1.4573956510548134
20
-1.2991209272465709
30
0
10
1.4072244597856352
20
-1.3449721937215886
30
0
10
1.3579017134225462
20
-1.3813625611321576
30
0
10
1.3123580075531176
20
-1.411817333918082
30
0
10
1.2518045318389519
20
-1.4523090398315175
30
0
10
1.1921860083699574
20
-1.4858013071859661
30
0
10
1.1354599174799229
20
-1.5146659899624075
30
0
10
1.0871563720114079
20
-1.5392449181954304
30
0
10
1.0393290762096268
20
-1.561210875861625
30
0
10
0.9923732613585009
20
-1.5812171065512204
30
0
10
0.91749434760292425
20
-1.6131203932289186
30
0
10
0.84260527353107062
20
-1.6410636781625807
30
0
10
0.76838958562313653
20
-1.6659176441176347
30
0
10
0.68358839766828317
20
-1.6943165702448528
30
0
10
0.5988605837023756
20
-1.7189421912405356
30
0
10
0.51434509886952395
20
-1.7404944343988982
30
0
10
0.44596274878030001
20
-1.7579325765308162
30
0
10
0.377532763930502
20
-1.7733957977356689
30
0
10
0.30921099992670964
20
-1.7871056328562398
30
0
10
0.27360161412879624
20
-1.7942512154557624
30
0
10
0.23800569687717935
20
-1.8009228237845862
30
0
10
0.20244384049505623
20
-1.8071462380252279
30
0
10
0.17233857362725902
20
-1.8124147353874058
30
0
10
0.14279995989189734
20
-1.81723040409593
30
0
10
0.11386095217821893
20
-1.8217332028253168
30
0
0
ARC
5
106
100
AcDbEntity
8
0
100
AcDbCircle
10
-7.1834111514957864e-07
20
-1.2811636723329676
30
0
40
0.55243089822182534
210
0
220
0
230
1
100
AcDbArc
50
258.10251379584571
51
281.89449974441561
0
SPLINE
5
107
100
AcDbEntity
8
0
100
AcDbSpline
70
0
71
3
72
95
73
91
74
0
42
0.000000001
43
0.0000000001
44
0.0000000001
40
0.040539764830672835
40
0.040539764830672835
40
0.040539764830672835
40
0.040539764830672835
40
0.30764696799694879
40
0.30764696799694879
40
0.30764696799694879
40
0.61529393599389759
40
0.61529393599389759
40
0.61529393599389759
40
1.3481558282386681
40
1.3481558282386681
40
1.3481558282386681
40
1.892923264424742
40
1.892923264424742
40
1.892923264424742
40
2.2911496002569716
40
2.2911496002569716
40
2.2911496002569716
40
2.7150185509124163
40
2.7150185509124163
40
2.7150185509124163
40
2.9351682144920646
40
2.9351682144920646
40
2.9351682144920646
40
3.3115981549418487
40
3.3115981549418487
40
3.3115981549418487
40
3.5183493636891785
40
3.5183493636891785
40
3.5183493636891785
40
3.5940715285648608
40
3.5940715285648608
40
3.5940715285648608
40
4.0486806208693213
40
4.0486806208693213
40
4.0486806208693213
40
4.4434090070480803
40
4.4434090070480803
40
4.4434090070480803
40
5.0548418836187103
40
5.0548418836187103
40
5.0548418836187103
40
5.5676873330877283
40
5.5676873330877283
40
5.5676873330877283
40
6.0805327825567463
40
6.0805327825567463
40
6.0805327825567463
40
6.5482302196708311
40
6.5482302196708311
40
6.5482302196708311
40
6.798936490070485
40
6.798936490070485
40
6.798936490070485
40
7.0516565623487892
40
7.0516565623487892
40
7.0516565623487892
40
7.4274175669665334
40
7.4274175669665334
40
7.4274175669665334
40
7.7182694306743551
40
7.7182694306743551
40
7.7182694306743551
40
8.2236397086947441
40
8.2236397086947441
40
8.2236397086947441
40
8.6713501985475236
40
8.6713501985475236
40
8.6713501985475236
40
9.294405617202024
40
9.294405617202024
40
9.294405617202024
40
9.5388149107191289
40
9.5388149107191289
40
9.5388149107191289
40
9.7832242042362356
40
9.7832242042362356
40
9.7832242042362356
40
9.9984438048379225
40
9.9984438048379225
40
9.9984438048379225
40
10.213663405439608
40
10.213663405439608
40
10.213663405439608
40
10.393533329801395
40
10.393533329801395
40
10.393533329801395
40
10.441930781281261
40
10.441930781281261
40
10.441930781281261
40
10.446784545261249
40
10.446784545261249
40
10.446784545261249
40
10.446784545261249
10
-0.11389056511164371
20
-1.8217272672158997
30
0
10
-0.1516802655537203
20
-1.8158409121153443
30
0
10
-0.19015681437557228
20
-1.8094579606854897
30
0
10
-0.22926332500027188
20
-1.8023659563299599
30
0
10
-0.27378249850724579
20
-1.7942923602107341
30
0
10
-0.31835072495697564
20
-1.7855053655112638
30
0
10
-0.36292696977655076
20
-1.7759528753561344
30
0
10
-0.46905901529992577
20
-1.7532092520628471
30
0
10
-0.57541337382682156
20
-1.7261099543026521
30
0
10
-0.68143023280056547
20
-1.693733352261096
30
0
10
-0.76008648832969861
20
-1.669712434192052
30
0
10
-0.83981546233489834
20
-1.6424529807446644
30
0
10
-0.91976354369084534
20
-1.6109896452017336
30
0
10
-0.97817795020506082
20
-1.5880008249383042
30
0
10
-1.0374108588314828
20
-1.5624994735110862
30
0
10
-1.0969320635127842
20
-1.5336505225036752
30
0
10
-1.1593589899637908
20
-1.5033932158451266
30
0
10
-1.2253480902688825
20
-1.4681387233184211
30
0
10
-1.2926428867311079
20
-1.4248020512785449
30
0
10
-1.3282178774467421
20
-1.4018923794091831
30
0
10
-1.3654931499296545
20
-1.3758151457914622
30
0
10
-1.4035217935489976
20
-1.3452786864155695
30
0
10
-1.4686611641701925
20
-1.2929726992587316
30
0
10
-1.5393199866951921
20
-1.2250944127223979
30
0
10
-1.6007998580525571
20
-1.1342856222593749
30
0
10
-1.6344276205568287
20
-1.0846157649293153
30
0
10
-1.6625332076832171
20
-1.0322172360327466
30
0
10
-1.6852821727208311
20
-0.97695527338162336
30
0
10
-1.6928150756138929
20
-0.95865628713576123
30
0
10
-1.6993851000168407
20
-0.94109264165834494
30
0
10
-1.7052070954396765
20
-0.92436064354027392
30
0
10
-1.7413365758592079
20
-0.82052710289279129
30
0
10
-1.7564628428950124
20
-0.72580754953479865
30
0
10
-1.7652759032194441
20
-0.64543364976317141
30
0
10
-1.7730952164422833
20
-0.57412258707666974
30
0
10
-1.7760982915577295
20
-0.50650369043896215
30
0
10
-1.7768013419656137
20
-0.44315104289399887
30
0
10
-1.7778890418034057
20
-0.34513721104696804
30
0
10
-1.7734494535603329
20
-0.24924859689425058
30
0
10
-1.765367893283446
20
-0.15594754807927075
30
0
10
-1.7585669632178833
20
-0.077431285588588208
30
0
10
-1.7489127511630236
20
0.0015872444118901975
30
0
10
-1.7359245500516522
20
0.080815593307785399
30
0
10
-1.7230685944304642
20
0.15923724143378246
30
0
10
-1.7064920875329692
20
0.24222894906792264
30
0
10
-1.6824685519929039
20
0.32860117988687926
30
0
10
-1.6607859251599826
20
0.4065571013394495
30
0
10
-1.6309795359687949
20
0.49845615966066198
30
0
10
-1.578049528443136
20
0.59766903159115048
30
0
10
-1.5481594606894735
20
0.65369546352770613
30
0
10
-1.5141176499565214
20
0.70453975625095511
30
0
10
-1.4778533102803477
20
0.75051648573615382
30
0
10
-1.4426931606467392
20
0.79509329873753931
30
0
10
-1.409590612105333
20
0.83054538054010218
30
0
10
-1.3818163304526023
20
0.8594849501530637
30
0
10
-1.3388855049067312
20
0.90421696626641235
30
0
10
-1.2963587915402308
20
0.94497577629537877
30
0
10
-1.255433466056356
20
0.98278636380173279
30
0
10
-1.2215780647836694
20
1.014065103732293
30
0
10
-1.1870673335047361
20
1.0443863660001176
30
0
10
-1.1519198165171887
20
1.0737899393129433
30
0
10
-1.0884293280325794
20
1.126904565688563
30
0
10
-1.0278457427799266
20
1.1721840370249044
30
0
10
-0.97286599445970756
20
1.2130166823764543
30
0
10
-0.92676746012374867
20
1.2472533815479967
30
0
10
-0.88688369791613531
20
1.2774648881252975
30
0
10
-0.85438086970590588
20
1.3046421592432436
30
0
10
-0.81176265461837005
20
1.3402774208427974
30
0
10
-0.77084678488313141
20
1.3805662852638794
30
0
10
-0.73150184830529075
20
1.4255459801675194
30
0
10
-0.71468407348844298
20
1.4447723011637001
30
0
10
-0.69604618350335434
20
1.4669646416203284
30
0
10
-0.67529629934666358
20
1.4917309554303255
30
0
10
-0.65485975005216679
20
1.51612328404281
30
0
10
-0.6301759162307804
20
1.5458991223717171
30
0
10
-0.59949754005020728
20
1.5796025536995171
30
0
10
-0.57076580950062172
20
1.6111673895241729
30
0
10
-0.5315382333874511
20
1.6521953100122591
30
0
10
-0.4759361986736258
20
1.6948601849897715
30
0
10
-0.41298203159979968
20
1.7431665407075483
30
0
10
-0.33440145850698694
20
1.787346093556893
30
0
10
-0.24003726763317407
20
1.8136608267673431
30
0
10
-0.17032572207561603
20
1.8331008358009433
30
0
10
-0.10729722524242233
20
1.8397074610813826
30
0
10
-0.050117079704856855
20
1.8406146408501391
30
0
10
-0.034033086518608605
20
1.8408698181163423
30
0
10
-0.020085776033656452
20
1.8406086195847411
30
0
10
-0.0082738367676796244
20
1.8402260168167066
30
0
10
-0.00708922138835849
20
1.8401876457149782
30
0
10
-0.0059906501504437114
20
1.8401502156884264
30
0
10
-0.0047843104422082014
20
1.8401071010296977
30
0
0
ARC
5
108
100
AcDbEntity
8
0
100
AcDbCircle
10
-0.00042774393027906034
20
2.1491677564872704
30
0
40
0.30909135934806981
210
0
220
0
230
1
100
AcDbArc
50
269.19240337117276
51
270.79989923573106
0
ENDSEC
0
SECTION
2
OBJECTS
0
DICTIONARY
5
C
100
AcDbDictionary
3
ACAD_GROUP
350
D
3
ACAD_MLINESTYLE
350
17
0
DICTIONARY
5
D
100
AcDbDictionary
0
DICTIONARY
5
1A
330
C
100
AcDbDictionary
0
DICTIONARY
5
17
100
AcDbDictionary
0
ENDSEC
0
EOF
