0
SECTION
2
HEADER
9
$INSUNITS
70
4
9
$ACADVER
1
AC1014
9
$HANDSEED
5
FFFF
0
ENDSEC
0
SECTION
2
TABLES
0
TABLE
2
VPORT
5
8
100
AcDbSymbolTable
0
ENDTAB
0
TABLE
2
LTYPE
5
5
100
AcDbSymbolTable
0
LTYPE
5
14
100
AcDbSymbolTableRecord
100
AcDbLinetypeTableRecord
2
BYBLOCK
70
0
0
LTYPE
5
15
100
AcDbSymbolTableRecord
100
AcDbLinetypeTableRecord
2
BYLAYER
70
0
0
ENDTAB
0
TABLE
2
LAYER
5
2
100
AcDbSymbolTable
70
2
0
LAYER
5
50
100
AcDbSymbolTableRecord
100
AcDbLayerTableRecord
2
0
70
0
6
CONTINUOUS
0
ENDTAB
0
TABLE
2
STYLE
5
3
100
AcDbSymbolTable
70
1
0
STYLE
5
11
100
AcDbSymbolTableRecord
100
AcDbTextStyleTableRecord
2
STANDARD
70
0
0
ENDTAB
0
TABLE
2
VIEW
5
6
100
AcDbSymbolTable
70
0
0
ENDTAB
0
TABLE
2
UCS
5
7
100
AcDbSymbolTable
70
0
0
ENDTAB
0
TABLE
2
APPID
5
9
100
AcDbSymbolTable
70
2
0
APPID
5
12
100
AcDbSymbolTableRecord
100
AcDbRegAppTableRecord
2
ACAD
70
0
0
ENDTAB
0
TABLE
2
DIMSTYLE
5
A
100
AcDbSymbolTable
70
1
0
ENDTAB
0
TABLE
2
BLOCK_RECORD
5
1
100
AcDbSymbolTable
70
1
0
BLOCK_RECORD
5
1F
100
AcDbSymbolTableRecord
100
AcDbBlockTableRecord
2
*MODEL_SPACE
0
BLOCK_RECORD
5
1B
100
AcDbSymbolTableRecord
100
AcDbBlockTableRecord
2
*PAPER_SPACE
0
ENDTAB
0
ENDSEC
0
SECTION
2
BLOCKS
0
BLOCK
5
20
100
AcDbEntity
100
AcDbBlockBegin
2
*MODEL_SPACE
0
ENDBLK
5
21
100
AcDbEntity
100
AcDbBlockEnd
0
BLOCK
5
1C
100
AcDbEntity
100
AcDbBlockBegin
2
*PAPER_SPACE
0
ENDBLK
5
1D
100
AcDbEntity
100
AcDbBlockEnd
0
ENDSEC
0
SECTION
2
ENTITIES
0
LWPOLYLINE
5
100
100
AcDbEntity
8
0
100
AcDbPolyline
90
94
70
1
43
0.0
10
-65.012994725431113
20
-200.57091559316999
10
-67.004912255434704
20
-202.75053895931291
42
-0.042421097959510851
10
-83.019190976042381
20
-202.66349534137584
10
-85.009038230666903
20
-200.46222958854315
10
-85.009038230666917
20
-199.39587824424922
42
0.021948465982402181
10
-77.00000000000199
20
-199.9672102436368
10
-77.000000000002231
20
-197.97674028467776
42
-0.15474318456125602
10
-126.16861932015262
20
-181.11808930245274
42
-0.18322453521007578
10
-127.31836425036782
20
-179.32828407779996
10
-131.64480554161739
20
-158.88706519431025
42
0.14429270335978939
10
-132.4508242805752
20
-157.39461152813564
10
-146.00705268801175
20
-143.74017883079495
42
0.3712086410845083
10
-147.30808209189857
20
-143.63833256418451
42
-0.38991188307450475
10
-163.20851797787066
20
-141.8693843775464
42
-0.1011450357441559
10
-163.40571294965076
20
-141.52081467805124
42
-0.013235519617893796
10
-165.02063415158472
20
-136.04447696020347
42
-0.99999999999999989
10
-160.18906151151134
20
-134.75765691696
42
0.012492950262613479
10
-158.74269794892771
20
-139.68938200122741
42
0.2410552615902346
10
-158.09965589317261
20
-140.33506669079375
42
0.16664180206974155
10
-151.49563486531079
20
-140.2301510596765
42
0.54839847488940752
10
-151.12524461667988
20
-138.58490959796507
10
-158.01207486982631
20
-131.64818963697547
42
-0.1504361351669081
10
-158.83218394123782
20
-130.08497284836545
42
-0.04848841596964213
10
-160.10216866818388
20
-115.62824371789648
42
-0.12587046609831121
10
-130.54467049579611
20
-4.3856372290498413
42
0.42878229049161631
10
-131.8291458609537
20
-0.23347399060841489
42
-0.20620180884669395
10
-136.43506319900646
20
5.1967327114000312
42
-0.4514162296451471
10
-135.64935072907519
20
6.4744869579570974
10
-131.13337055479872
20
7.2562829784413356
42
-0.33167926656827701
10
-130.06725784106303
20
6.7159357658246757
42
4.4178733732172777
10
-130.10163492878195
20
8.8688723562071328
42
-0.34485781506781493
10
-131.19662144041013
20
8.3024446015987525
10
-135.67545028008087
20
9.1489017046118271
42
-0.44538154326155716
10
-136.44741186073202
20
10.419392605186795
42
-1.2335561274460705
10
-120.99596464880022
20
1.9703168053010067
42
0.13730095343498921
10
-155.10238389612468
20
-115.67463588406554
42
0.042826741408976944
10
-154.18972452151999
20
-127.60932461189071
42
0.15621885611711683
10
-153.35793003422785
20
-129.23932390595556
10
-127.8643226864434
20
-154.9176125331814
42
-0.14429270335979444
10
-127.05830394748558
20
-156.41006619935601
10
-122.82631033213113
20
-176.40504636468432
42
0.18942977024613619
10
-121.6182220692027
20
-178.23697819219032
42
0.015216208380492929
10
-117.50404273125989
20
-180.94981220787216
42
0.37628480229153888
10
-113.60387809972164
20
-180.29124724441559
42
0.19277607229273155
10
-105.10561065231414
20
-153.0930316669955
42
0.30628782800398524
10
-107.19874901166556
20
-150.46436736433762
42
-0.019338811779877875
10
-115.03561806272955
20
-147.6694684433127
42
0.29545323040789162
10
-118.23567418731676
20
-148.29590882838824
42
-1.8036598248280324
10
-119.99999999999994
20
-140.00000000000003
42
0.23099952346015179
10
-29.999999999999972
20
-139.99999999999997
42
-1.8036598248280307
10
-31.764325812683076
20
-148.29590882838792
42
0.29545323040790727
10
-34.96438193727046
20
-147.66946844331258
42
-0.019338811779877542
10
-42.801250988334303
20
-150.46436736433748
42
0.30628782800398885
10
-44.894389347685589
20
-153.09303166699533
42
0.19277607229273186
10
-36.396121900278125
20
-180.29124724441556
42
0.37628480229153932
10
-32.495957268739858
20
-180.94981220787213
42
0.015216208380492929
10
-28.381777930797064
20
-178.23697819219029
42
0.18942977024612942
10
-27.173689667868683
20
-176.40504636468435
10
-22.941696052514182
20
-156.41006619935604
42
-0.14429270335978808
10
-22.135677313556336
20
-154.91761253318143
10
3.3579300342278797
20
-129.23932390595579
42
0.15621885611711459
10
4.1897245215200307
20
-127.60932461189097
42
0.042826741408982329
10
5.1023838961246781
20
-115.67463588406565
42
0.13730095343498913
10
-29.00403535119958
20
1.9703168053011932
42
-1.2335561274460198
10
-13.552588139267927
20
10.419392605187301
42
-0.44538154326157497
10
-14.324549719919251
20
9.1489017046121894
10
-18.803378559589785
20
8.3024446015991682
42
-0.34485781506778623
10
-19.898365071217942
20
8.8688723562074241
42
4.4178733732167759
10
-19.932742158936676
20
6.7159357658247423
42
-0.33167926656827651
10
-18.86662944520101
20
7.2562829784414156
10
-14.350649270924766
20
6.4744869579572448
42
-0.45141622964513584
10
-13.564936800993522
20
5.1967327114002115
42
-0.20620180884669637
10
-18.170854139046135
20
-0.23347399060817009
42
0.42878229049161404
10
-19.455329504203736
20
-4.385637229049788
42
-0.12587046609831098
10
10.10216866818414
20
-115.62824371789652
42
-0.048488415969648251
10
8.8321839412379504
20
-130.08497284836582
42
-0.15043613516690935
10
8.0120748698263036
20
-131.64818963697581
10
1.125244616679016
20
-138.5849095979662
42
0.54839847488952387
10
1.4956348653102347
20
-140.23015105967775
42
0.16664180206964979
10
8.0996558931686273
20
-140.33506669079375
42
0.24105526159023108
10
8.7426979489237944
20
-139.68938200122744
42
0.012492950262612922
10
10.189061511507287
20
-134.75765691696006
42
-0.99999999999999989
10
15.020634151580872
20
-136.04447696020341
42
-0.013235519617893352
10
13.405712949646798
20
-141.52081467805135
42
-0.10114503574407031
10
13.208517977866695
20
-141.8693843775464
42
-0.38991188307443791
10
-2.6919179081032003
20
-143.63833256418616
42
0.3712086410844353
10
-3.9929473119897962
20
-143.74017883079671
10
-17.549175719424515
20
-157.39461152813564
42
0.14429270335979108
10
-18.355194458382375
20
-158.88706519431025
10
-22.681635749631841
20
-179.32828407779979
42
-0.18322453521008888
10
-23.831380679853122
20
-181.11808930244453
42
-0.15474318456126873
10
-73.00000000000199
20
-197.97674028466781
10
-73.000000000002004
20
-199.98907334167745
42
0.02187206195063772
10
-65.012994725431113
20
-199.50822629349693
0
LWPOLYLINE
5
101
100
AcDbEntity
8
0
100
AcDbPolyline
90
8
70
1
43
0.0
10
-72.499999999999957
20
-158.25814019212771
10
-72.499999999999886
20
-189.80581686963234
42
0.43504147616618899
10
-69.288424379394499
20
-192.79834686225826
42
0.08483282547075445
10
-42.784623968695882
20
-186.31680077377951
42
0.48206501815352509
10
-41.562943762651543
20
-181.78460407328691
42
-0.15953378634634974
10
-50.010908837463163
20
-156.180167956172
42
0.47342575623482608
10
-53.6073487378141
20
-153.24693779592226
42
-0.03761783968436503
10
-69.649185868821178
20
-155.26185189215656
42
0.39971631396585694
0
LWPOLYLINE
5
102
100
AcDbEntity
8
0
100
AcDbPolyline
90
8
70
1
43
0.0
10
-80.35081413117878
20
-155.26185189215676
42
-0.037617839684364253
10
-96.392651262185552
20
-153.24693779592249
42
0.47342575623482291
10
-99.989091162536596
20
-156.18016795617217
42
-0.1595337863463494
10
-108.43705623734823
20
-181.78460407328691
42
0.48206501815352465
10
-107.21537603130393
20
-186.31680077377956
42
0.084832825470754616
10
-80.711575620605288
20
-192.79834686225826
42
0.4350414761661901
10
-77.499999999999886
20
-189.80581686963237
10
-77.499999999999957
20
-158.25814019212788
42
0.39971631396585849
0
CIRCLE
5
103
100
AcDbEntity
8
0
100
AcDbCircle
10
-121.70871486055867
20
-144.69896728285138
30
0
40
1.5000000000000036
210
0
220
-0
230
1
0
CIRCLE
5
104
100
AcDbEntity
8
0
100
AcDbCircle
10
-28.291285139441303
20
-144.69896728285119
30
0
40
1.5000000000000036
210
0
220
-0
230
1
0
ENDSEC
0
SECTION
2
OBJECTS
0
DICTIONARY
5
C
100
AcDbDictionary
3
ACAD_GROUP
350
D
3
ACAD_MLINESTYLE
350
17
0
DICTIONARY
5
D
100
AcDbDictionary
0
DICTIONARY
5
1A
330
C
100
AcDbDictionary
0
DICTIONARY
5
17
100
AcDbDictionary
0
ENDSEC
0
EOF
