0
SECTION
2
HEADER
9
$INSUNITS
70
1
9
$ACADVER
1
AC1014
9
$HANDSEED
5
FFFF
0
ENDSEC
0
SECTION
2
TABLES
0
TABLE
2
VPORT
5
8
100
AcDbSymbolTable
0
ENDTAB
0
TABLE
2
LTYPE
5
5
100
AcDbSymbolTable
0
LTYPE
5
14
100
AcDbSymbolTableRecord
100
AcDbLinetypeTableRecord
2
BYBLOCK
70
0
0
LTYPE
5
15
100
AcDbSymbolTableRecord
100
AcDbLinetypeTableRecord
2
BYLAYER
70
0
0
ENDTAB
0
TABLE
2
LAYER
5
2
100
AcDbSymbolTable
70
2
0
LAYER
5
50
100
AcDbSymbolTableRecord
100
AcDbLayerTableRecord
2
0
70
0
6
CONTINUOUS
0
ENDTAB
0
TABLE
2
STYLE
5
3
100
AcDbSymbolTable
70
1
0
STYLE
5
11
100
AcDbSymbolTableRecord
100
AcDbTextStyleTableRecord
2
STANDARD
70
0
0
ENDTAB
0
TABLE
2
VIEW
5
6
100
AcDbSymbolTable
70
0
0
ENDTAB
0
TABLE
2
UCS
5
7
100
AcDbSymbolTable
70
0
0
ENDTAB
0
TABLE
2
APPID
5
9
100
AcDbSymbolTable
70
2
0
APPID
5
12
100
AcDbSymbolTableRecord
100
AcDbRegAppTableRecord
2
ACAD
70
0
0
ENDTAB
0
TABLE
2
DIMSTYLE
5
A
100
AcDbSymbolTable
70
1
0
ENDTAB
0
TABLE
2
BLOCK_RECORD
5
1
100
AcDbSymbolTable
70
1
0
BLOCK_RECORD
5
1F
100
AcDbSymbolTableRecord
100
AcDbBlockTableRecord
2
*MODEL_SPACE
0
BLOCK_RECORD
5
1B
100
AcDbSymbolTableRecord
100
AcDbBlockTableRecord
2
*PAPER_SPACE
0
ENDTAB
0
ENDSEC
0
SECTION
2
BLOCKS
0
BLOCK
5
20
100
AcDbEntity
100
AcDbBlockBegin
2
*MODEL_SPACE
0
ENDBLK
5
21
100
AcDbEntity
100
AcDbBlockEnd
0
BLOCK
5
1C
100
AcDbEntity
100
AcDbBlockBegin
2
*PAPER_SPACE
0
ENDBLK
5
1D
100
AcDbEntity
100
AcDbBlockEnd
0
ENDSEC
0
SECTION
2
ENTITIES
0
LINE
5
100
100
AcDbEntity
8
0
100
AcDbLine
10
-3.0819341322086347
20
-7.4275299460864268
30
0
11
-3.0819341322086466
21
-7.6716547371860528
31
0
0
ARC
5
101
100
AcDbEntity
8
0
100
AcDbCircle
10
-2.9500000932551007
20
-5.0377405595421463
30
0
40
2.6372164275667953
210
0
220
0
230
1
100
AcDbArc
50
260.36152600542641
51
267.13242330980228
0
LINE
5
102
100
AcDbEntity
8
0
100
AcDbLine
10
-3.3915513582455312
20
-7.6377295914831507
30
0
11
-3.3912095841263326
21
-7.6401029099064983
31
0
0
LINE
5
103
100
AcDbEntity
8
0
100
AcDbLine
10
-3.3889400135705516
20
-7.6558630640396883
30
0
11
-3.1616323055249547
21
-7.8756932792656738
31
0
0
ARC
5
104
100
AcDbEntity
8
0
100
AcDbCircle
10
-2.9500000932551007
20
-5.0377405595421463
30
0
40
2.8458327133997874
210
0
220
0
230
1
100
AcDbArc
50
265.73522480149836
51
273.97678020457772
0
LINE
5
105
100
AcDbEntity
8
0
100
AcDbLine
10
-2.7526353526944036
20
-7.876721185020207
30
0
11
-2.5252202161932624
21
-7.6578905043636931
31
0
0
LINE
5
106
100
AcDbEntity
8
0
100
AcDbLine
10
-2.5252202161932624
20
-7.6578905043636931
30
0
11
-2.5226586802909474
21
-7.6401029099065187
31
0
0
ARC
5
107
100
AcDbEntity
8
0
100
AcDbCircle
10
-2.9500000932551007
20
-5.0377405595421463
30
0
40
2.6372164275667953
210
-0
220
0
230
1
100
AcDbArc
50
272.56594148224394
51
279.32547609649129
0
LINE
5
108
100
AcDbEntity
8
0
100
AcDbLine
10
-2.8319341322086471
20
-7.6723128046457703
30
0
11
-2.8319341322086351
21
-7.427529946086425
31
0
0
ARC
5
109
100
AcDbEntity
8
0
100
AcDbCircle
10
-2.5819341322086355
20
-7.427529946086425
30
0
40
0.2500000000000005
210
0
220
0
230
1
100
AcDbArc
50
92.219561180850832
51
180
0
ARC
5
110
100
AcDbEntity
8
0
100
AcDbCircle
10
-2.9569341322086373
20
2.2478818319863469
30
0
40
9.4326761835387902
210
-0
220
0
230
1
100
AcDbArc
50
272.21956118085075
51
282.45827520612806
0
ARC
5
111
100
AcDbEntity
8
0
100
AcDbCircle
10
-1.0838326968040906
20
-6.2303465631960551
30
0
40
0.75
210
-0
220
0
230
1
100
AcDbArc
50
-77.541724793872106
51
11.30993247402013
0
LINE
5
112
100
AcDbEntity
8
0
100
AcDbLine
10
-0.34839719003589886
20
-6.0832594618424176
30
0
11
-0.43336459774452918
21
-5.6584224232992666
31
0
0
LINE
5
113
100
AcDbEntity
8
0
100
AcDbLine
10
-0.43336459774452918
20
-5.6584224232992666
30
0
11
-0.32921773065755766
21
-5.5152204810544418
31
0
0
ARC
5
114
100
AcDbEntity
8
0
100
AcDbCircle
10
-0.20790731801211329
20
-5.6034462357055332
30
0
40
0.14999999999987521
210
0
220
-0
230
1
100
AcDbArc
50
53.972626614933695
51
143.97262661493991
0
LINE
5
115
100
AcDbEntity
8
0
100
AcDbLine
10
-0.11968156336100894
20
-5.4821358230600987
30
0
11
0.38191135355443839
21
-5.8469306717250831
31
0
0
LINE
5
116
100
AcDbEntity
8
0
100
AcDbLine
10
0.48579249256105761
20
-5.9237925968190712
30
0
11
0.64189215100757346
21
-5.4669298010715206
31
0
0
LINE
5
117
100
AcDbEntity
8
0
100
AcDbLine
10
0.64189215100757346
20
-5.4669298010715206
30
0
11
0.63531845240483742
21
-5.4639283526298073
31
0
0
LINE
5
118
100
AcDbEntity
8
0
100
AcDbLine
10
0.63531845240483742
20
-5.4639283526298073
30
0
11
0.43656755233985672
21
-5.53807738986806
31
0
0
LINE
5
119
100
AcDbEntity
8
0
100
AcDbLine
10
0.43656755233985672
20
-5.53807738986806
30
0
11
0.43383143352433462
21
-5.5440699700452001
31
0
0
LINE
5
120
100
AcDbEntity
8
0
100
AcDbLine
10
0.43383143352433462
20
-5.5440699700452001
30
0
11
0.042343446724955339
21
-5.2593514341918066
31
0
0
ARC
5
121
100
AcDbEntity
8
0
100
AcDbCircle
10
0.13056920137611813
20
-5.1380410215462593
30
0
40
0.14999999999999974
210
0
220
0
230
1
100
AcDbArc
50
143.97262661493383
51
233.97262661494096
0
LINE
5
122
100
AcDbEntity
8
0
100
AcDbLine
10
0.0092587887305824873
20
-5.0498152668950818
30
0
11
0.2754219429262858
21
-4.6838409298754895
31
0
0
ARC
5
123
100
AcDbEntity
8
0
100
AcDbCircle
10
-0.0076356865824892583
20
-4.4779808356931357
30
0
40
0.34999999999984938
210
-0
220
0
230
1
100
AcDbArc
50
-36.027373384329593
51
15.659185308949269
0
LINE
5
124
100
AcDbEntity
8
0
100
AcDbLine
10
0.32937380602134381
20
-4.3835107245743199
30
0
11
-0.91297724192226093
21
0.048410560917399446
31
0
0
ARC
5
125
100
AcDbEntity
8
0
100
AcDbCircle
10
-0.78386213170279595
20
0.057139927530428083
30
0
40
0.12940986642620964
210
0
220
0
230
1
100
AcDbArc
50
-8.707507349982901
51
183.86783449399499
0
ARC
5
126
100
AcDbEntity
8
0
100
AcDbCircle
10
-0.53238457840110198
20
0.018624731529882123
30
0
40
0.12500000000504105
210
0
220
0
230
1
100
AcDbArc
50
171.2924926500171
51
351.2924926500171
0
ARC
5
127
100
AcDbEntity
8
0
100
AcDbCircle
10
-0.78386213170279595
20
0.057139927530428083
30
0
40
0.37940986643629171
210
-0
220
0
230
1
100
AcDbArc
50
-8.707507349982901
51
188.78079044897976
0
LINE
5
128
100
AcDbEntity
8
0
100
AcDbLine
10
-1.1588251693521094
20
-0.00077869761169356414
30
0
11
0.088652739875339559
21
-4.4509893753724121
31
0
0
ARC
5
129
100
AcDbEntity
8
0
100
AcDbCircle
10
-0.0076356865824892583
20
-4.4779808356931357
30
0
40
0.099999999999849265
210
0
220
0
230
1
100
AcDbArc
50
-36.027373384329444
51
15.659185309598378
0
LINE
5
130
100
AcDbEntity
8
0
100
AcDbLine
10
0.073237921848502224
20
-4.5367980054594588
30
0
11
-0.67421946093213625
21
-5.5645519067842431
31
0
0
ARC
5
131
100
AcDbEntity
8
0
100
AcDbCircle
10
-0.59334585250181493
20
-5.6233690765517483
30
0
40
0.100000000000002
210
0
220
0
230
1
100
AcDbArc
50
143.97262661489694
51
191.30993247401963
0
LINE
5
132
100
AcDbEntity
8
0
100
AcDbLine
10
-0.69140392007090878
20
-5.6429806900655661
30
0
11
-0.59354235895862895
21
-6.1322884956269634
31
0
0
ARC
5
133
100
AcDbEntity
8
0
100
AcDbCircle
10
-1.0838326968040906
20
-6.2303465631960551
30
0
40
0.50000000000000155
210
0
220
0
230
1
100
AcDbArc
50
-77.541724793871694
51
11.30993247402013
0
ARC
5
134
100
AcDbEntity
8
0
100
AcDbCircle
10
-2.9569341322086373
20
2.2478818319863469
30
0
40
9.1826761835387902
210
0
220
0
230
1
100
AcDbArc
50
257.54172479387199
51
282.45827520612806
0
ARC
5
135
100
AcDbEntity
8
0
100
AcDbCircle
10
-4.8300355676131765
20
-6.2303465631960551
30
0
40
0.500000000000001
210
0
220
0
230
1
100
AcDbArc
50
168.6900675259798
51
257.54172479387228
0
LINE
5
136
100
AcDbEntity
8
0
100
AcDbLine
10
-5.3203259054586374
20
-6.1322884956269625
30
0
11
-5.2224643443463581
21
-5.6429806900655661
31
0
0
ARC
5
137
100
AcDbEntity
8
0
100
AcDbCircle
10
-5.3205224119154506
20
-5.6233690765517474
30
0
40
0.10000000000000034
210
-0
220
0
230
1
100
AcDbArc
50
-11.309932474020297
51
36.027373385103466
0
LINE
5
138
100
AcDbEntity
8
0
100
AcDbLine
10
-5.2396488034851316
20
-5.5645519067842431
30
0
11
-5.9855938315290294
21
-4.5388774932238807
31
0
0
ARC
5
139
100
AcDbEntity
8
0
100
AcDbCircle
10
-5.904720223097585
20
-4.4800603234555583
30
0
40
0.10000000000139081
210
0
220
0
230
1
100
AcDbArc
50
164.35574977174443
51
216.02737338510326
0
LINE
5
140
100
AcDbEntity
8
0
100
AcDbLine
10
-6.0010156820508334
20
-4.4530939632031732
30
0
11
-5.9633815707139304
21
-4.3187045243035103
31
0
0
ARC
5
141
100
AcDbEntity
8
0
100
AcDbCircle
10
-1.7997261943417255
20
5.2388864871994771
30
0
40
10.425141343711168
210
0
220
0
230
1
100
AcDbArc
50
246.46020076009671
51
275.1924652804102
0
ARC
5
142
100
AcDbEntity
8
0
100
AcDbCircle
10
-0.90000002932038381
20
-5.0000001596231121
30
0
40
0.15000000000000333
210
-0
220
0
230
1
100
AcDbArc
50
-73.035862040209437
51
84.298540940818711
0
ARC
5
143
100
AcDbEntity
8
0
100
AcDbCircle
10
-1.1050456374793414
20
3.6682250010105486
30
0
40
8.5218060925363339
210
0
220
0
230
1
100
AcDbArc
50
237.87822335158148
51
271.47896531993769
0
ARC
5
144
100
AcDbEntity
8
0
100
AcDbCircle
10
-5.5565066453665137
20
-3.4220240881462374
30
0
40
0.14999999999999375
210
0
220
0
230
1
100
AcDbArc
50
164.35574977174028
51
237.87822335158288
0
LINE
5
145
100
AcDbEntity
8
0
100
AcDbLine
10
-5.7009498337943683
20
-3.3815745477682135
30
0
11
-4.7578830390904425
21
-0.013932457044218796
31
0
0
LINE
5
146
100
AcDbEntity
8
0
100
AcDbLine
10
-4.7578830390904425
20
-0.013932457044218796
30
0
11
-4.7550430950651572
21
-0.0007786976116935314
31
0
0
ARC
5
147
100
AcDbEntity
8
0
100
AcDbCircle
10
-5.1300061327144713
20
0.057139927530428153
30
0
40
0.37940986642620977
210
-0
220
0
230
1
100
AcDbArc
50
-8.7807904489798041
51
188.70750734998296
0
ARC
5
148
100
AcDbEntity
8
0
100
AcDbCircle
10
-5.381483686016165
20
0.018624731596477463
30
0
40
0.12500000000504105
210
0
220
0
230
1
100
AcDbArc
50
-171.2924926198439
51
8.7075073801561604
0
ARC
5
149
100
AcDbEntity
8
0
100
AcDbCircle
10
-5.1300061327144713
20
0.057139927530428153
30
0
40
0.12940986642621038
210
0
220
0
230
1
100
AcDbArc
50
-5.7969478480476404
51
188.70750729169291
0
LINE
5
150
100
AcDbEntity
8
0
100
AcDbLine
10
-5.0012580566081635
20
0.044069104014904013
30
0
11
-6.2417543294305213
21
-4.3856780625731231
31
0
0
ARC
5
151
100
AcDbEntity
8
0
100
AcDbCircle
10
-5.904720223097585
20
-4.4800603234555583
30
0
40
0.35000000000131526
210
0
220
0
230
1
100
AcDbArc
50
164.35574977173675
51
216.02737338472525
0
LINE
5
152
100
AcDbEntity
8
0
100
AcDbLine
10
-6.1877778526061249
20
-4.6859204176407294
30
0
11
-5.9231270531478497
21
-5.0498152668950818
31
0
0
ARC
5
153
100
AcDbEntity
8
0
100
AcDbCircle
10
-6.0444374657933526
20
-5.1380410215463019
30
0
40
0.14999999999997637
210
0
220
0
230
1
100
AcDbArc
50
-53.972626614941575
51
36.027373385086726
0
LINE
5
154
100
AcDbEntity
8
0
100
AcDbLine
10
-5.9562117111422053
20
-5.2593514341918306
30
0
11
-6.3476996979416009
21
-5.5440699700452001
31
0
0
LINE
5
155
100
AcDbEntity
8
0
100
AcDbLine
10
-6.3476996979416009
20
-5.5440699700452001
30
0
11
-6.3504358167571233
21
-5.53807738986806
31
0
0
LINE
5
156
100
AcDbEntity
8
0
100
AcDbLine
10
-6.3504358167571233
20
-5.53807738986806
30
0
11
-6.5491867168221019
21
-5.4639283526298064
31
0
0
LINE
5
157
100
AcDbEntity
8
0
100
AcDbLine
10
-6.5491867168221019
20
-5.4639283526298064
30
0
11
-6.5557604154248406
21
-5.4669298010715206
31
0
0
LINE
5
158
100
AcDbEntity
8
0
100
AcDbLine
10
-6.5557604154248406
20
-5.4669298010715206
30
0
11
-6.3996607569783244
21
-5.9237925968190712
31
0
0
LINE
5
159
100
AcDbEntity
8
0
100
AcDbLine
10
-6.2957796179717054
20
-5.8469306717250831
30
0
11
-5.7941867010562582
21
-5.4821358230600987
31
0
0
ARC
5
160
100
AcDbEntity
8
0
100
AcDbCircle
10
-5.7059609464051642
20
-5.6034462357056949
30
0
40
0.15000000000000049
210
0
220
-0
230
1
100
AcDbArc
50
36.027373385107971
51
126.02737338502683
0
LINE
5
161
100
AcDbEntity
8
0
100
AcDbLine
10
-5.5846505337596923
20
-5.5152204810544285
30
0
11
-5.4805036666727371
21
-5.6584224232992666
31
0
0
LINE
5
162
100
AcDbEntity
8
0
100
AcDbLine
10
-5.4805036666727371
20
-5.6584224232992666
30
0
11
-5.5654710743813673
21
-6.0832594618424167
31
0
0
ARC
5
163
100
AcDbEntity
8
0
100
AcDbCircle
10
-4.8300355676131765
20
-6.2303465631960551
30
0
40
0.75000000000000111
210
0
220
0
230
1
100
AcDbArc
50
168.6900675259798
51
257.54172479387188
0
ARC
5
164
100
AcDbEntity
8
0
100
AcDbCircle
10
-2.9569341322086373
20
2.2478818319863469
30
0
40
9.4326761835387902
210
0
220
0
230
1
100
AcDbArc
50
257.54172479387199
51
267.78043881914931
0
ARC
5
165
100
AcDbEntity
8
0
100
AcDbCircle
10
-3.3319341322086355
20
-7.4275299460864268
30
0
40
0.25000000000000061
210
0
220
0
230
1
100
AcDbArc
50
0
51
87.780438819148884
0
LINE
5
166
100
AcDbEntity
8
0
100
AcDbLine
10
0.38191135355443839
20
-5.8469306717250831
30
0
11
0.10000000319142979
21
-6.200000197868647
31
0
0
LINE
5
167
100
AcDbEntity
8
0
100
AcDbLine
10
0.10000000319142979
20
-6.200000197868647
30
0
11
0.13111489509671484
21
-6.2248441465640409
31
0
0
LINE
5
168
100
AcDbEntity
8
0
100
AcDbLine
10
0.13111489509671484
20
-6.2248441465640409
30
0
11
0.48579249256105761
21
-5.9237925968190712
31
0
0
LINE
5
169
100
AcDbEntity
8
0
100
AcDbLine
10
-6.3996607569783244
20
-5.9237925968190712
30
0
11
-6.0449831595139818
21
-6.2248441465640409
31
0
0
LINE
5
170
100
AcDbEntity
8
0
100
AcDbLine
10
-6.0449831595139818
20
-6.2248441465640409
30
0
11
-6.0138682676086965
21
-6.200000197868647
31
0
0
LINE
5
171
100
AcDbEntity
8
0
100
AcDbLine
10
-6.0138682676086965
20
-6.200000197868647
30
0
11
-6.2957796179717054
21
-5.8469306717250831
31
0
0
LINE
5
172
100
AcDbEntity
8
0
100
AcDbLine
10
-3.3912095841263326
20
-7.6401029099064983
30
0
11
-3.3889400135705516
21
-7.6558630640396883
31
0
0
ENDSEC
0
SECTION
2
OBJECTS
0
DICTIONARY
5
C
100
AcDbDictionary
3
ACAD_GROUP
350
D
3
ACAD_MLINESTYLE
350
17
0
DICTIONARY
5
D
100
AcDbDictionary
0
DICTIONARY
5
1A
330
C
100
AcDbDictionary
0
DICTIONARY
5
17
100
AcDbDictionary
0
ENDSEC
0
EOF
