0
SECTION
2
HEADER
9
$INSUNITS
70
1
9
$ACADVER
1
AC1014
9
$HANDSEED
5
FFFF
0
ENDSEC
0
SECTION
2
TABLES
0
TABLE
2
VPORT
5
8
100
AcDbSymbolTable
0
ENDTAB
0
TABLE
2
LTYPE
5
5
100
AcDbSymbolTable
0
LTYPE
5
14
100
AcDbSymbolTableRecord
100
AcDbLinetypeTableRecord
2
BYBLOCK
70
0
0
LTYPE
5
15
100
AcDbSymbolTableRecord
100
AcDbLinetypeTableRecord
2
BYLAYER
70
0
0
ENDTAB
0
TABLE
2
LAYER
5
2
100
AcDbSymbolTable
70
2
0
LAYER
5
50
100
AcDbSymbolTableRecord
100
AcDbLayerTableRecord
2
0
70
0
6
CONTINUOUS
0
ENDTAB
0
TABLE
2
STYLE
5
3
100
AcDbSymbolTable
70
1
0
STYLE
5
11
100
AcDbSymbolTableRecord
100
AcDbTextStyleTableRecord
2
STANDARD
70
0
0
ENDTAB
0
TABLE
2
VIEW
5
6
100
AcDbSymbolTable
70
0
0
ENDTAB
0
TABLE
2
UCS
5
7
100
AcDbSymbolTable
70
0
0
ENDTAB
0
TABLE
2
APPID
5
9
100
AcDbSymbolTable
70
2
0
APPID
5
12
100
AcDbSymbolTableRecord
100
AcDbRegAppTableRecord
2
ACAD
70
0
0
ENDTAB
0
TABLE
2
DIMSTYLE
5
A
100
AcDbSymbolTable
70
1
0
ENDTAB
0
TABLE
2
BLOCK_RECORD
5
1
100
AcDbSymbolTable
70
1
0
BLOCK_RECORD
5
1F
100
AcDbSymbolTableRecord
100
AcDbBlockTableRecord
2
*MODEL_SPACE
0
BLOCK_RECORD
5
1B
100
AcDbSymbolTableRecord
100
AcDbBlockTableRecord
2
*PAPER_SPACE
0
ENDTAB
0
ENDSEC
0
SECTION
2
BLOCKS
0
BLOCK
5
20
100
AcDbEntity
100
AcDbBlockBegin
2
*MODEL_SPACE
0
ENDBLK
5
21
100
AcDbEntity
100
AcDbBlockEnd
0
BLOCK
5
1C
100
AcDbEntity
100
AcDbBlockBegin
2
*PAPER_SPACE
0
ENDBLK
5
1D
100
AcDbEntity
100
AcDbBlockEnd
0
ENDSEC
0
SECTION
2
ENTITIES
0
SPLINE
5
100
100
AcDbEntity
8
0
100
AcDbSpline
70
0
71
3
72
14
73
10
74
0
42
0.000000001
43
0.0000000001
44
0.0000000001
40
7
40
7
40
7
40
7
40
8
40
8
40
8
40
9
40
9
40
9
40
10
40
10
40
10
40
10
10
8.1740664846675273
20
-7.9505444290620018
30
0
10
8.1740664846675273
20
-8.4878017948095295
30
0
10
8.3864301846380389
20
-9.0028910636892121
30
0
10
8.7638976971868221
20
-9.385204749057932
30
0
10
10.634801470091935
20
-11.280128398406958
30
0
10
16.701027890846834
20
-16.272757061659682
30
0
10
23.265306318822439
20
-9.3591367283473534
30
0
10
23.625533187292728
20
-8.9797390794225773
30
0
10
23.826844261255619
20
-8.4767077839603893
30
0
10
23.82684426138702
20
-7.9535386212820507
30
0
0
LINE
5
101
100
AcDbEntity
8
0
100
AcDbLine
10
23.826844261387016
20
-7.9535386212820507
30
0
11
23.826844262144821
21
-4.9360921205282011
31
0
0
SPLINE
5
102
100
AcDbEntity
8
0
100
AcDbSpline
70
0
71
3
72
8
73
4
74
0
42
0.000000001
43
0.0000000001
44
0.0000000001
40
1
40
1
40
1
40
1
40
2
40
2
40
2
40
2
10
23.826844262144821
20
-4.9360921205282011
30
0
10
23.826844262310708
20
-4.2755998526669527
30
0
10
23.290871928408148
20
-3.7404494408755586
30
0
10
22.630380438369322
20
-3.7414630930841066
30
0
0
LINE
5
103
100
AcDbEntity
8
0
100
AcDbLine
10
22.630380438369322
20
-3.7414630930841066
30
0
11
19.832089360484531
21
-3.7457576131105381
31
0
0
LINE
5
104
100
AcDbEntity
8
0
100
AcDbLine
10
19.832089360484531
20
-3.7457576131105381
30
0
11
12.172089360484531
21
-3.7457576131105381
31
0
0
LINE
5
105
100
AcDbEntity
8
0
100
AcDbLine
10
8.1740664846675415
20
-4.9360906193187715
30
0
11
8.1740664846675273
21
-7.9505444290620018
31
0
0
SPLINE
5
106
100
AcDbEntity
8
0
100
AcDbSpline
70
0
71
3
72
8
73
4
74
0
42
0.000000001
43
0.0000000001
44
0.0000000001
40
5
40
5
40
5
40
5
40
6
40
6
40
6
40
6
10
9.3705288098383583
20
-3.7414615898757493
30
0
10
8.7100379040732854
20
-3.7404487671199149
30
0
10
8.1740664846675415
20
-4.2755989370030072
30
0
10
8.1740664846675415
20
-4.9360906193187715
30
0
0
LINE
5
107
100
AcDbEntity
8
0
100
AcDbLine
10
12.172089360484531
20
-3.7457576131105381
30
0
11
9.3705288098383583
21
-3.7414615898757493
31
0
0
LWPOLYLINE
5
108
100
AcDbEntity
8
0
100
AcDbPolyline
90
8
70
1
43
0.0
10
9.5073998180008772
20
-4.9547076827390653
10
9.5073998180008772
20
-4.7813152241817223
42
1.024456507361587
10
9.460858944076767
20
-4.7396268874463177
10
8.8020736152652539
20
-4.7396268874463185
42
1.0360240795459519
10
8.7573998180008736
20
-4.7832802197636815
10
8.7573998180008736
20
-4.9525053574706277
42
1.0150265430020684
10
8.7984478702773394
20
-4.9996268874463219
10
9.4641103905678889
20
-4.9996268874463219
42
1.0629915263459322
0
LWPOLYLINE
5
109
100
AcDbEntity
8
0
100
AcDbPolyline
90
8
70
1
43
0.0
10
12.165739543445669
20
-4.9957576131105386
10
11.65585310512567
20
-4.9957576131105386
42
-1.1323623093690194
10
11.611089360484533
20
-4.9528307654302566
10
11.611089360484533
20
-4.7913363559427191
42
-1.0711504809975614
10
11.653638532147168
20
-4.7457576131105386
10
12.16795411642417
20
-4.7457576131105386
42
-1.0581313310612497
10
12.211089360484527
20
-4.7908481389876458
10
12.211089360484527
20
-4.9533189823853299
42
-1.1185305286018079
0
LWPOLYLINE
5
110
100
AcDbEntity
8
0
100
AcDbPolyline
90
8
70
1
43
0.0
10
16.261109197163162
20
-4.9957576131105386
10
15.744563549591188
20
-4.9957576131105386
42
-1.0216155153203237
10
15.702089360484527
20
-4.9499274116123733
10
15.702089360484527
20
-4.7916660019219828
42
-1.0197751620155904
10
15.744482429764821
20
-4.7457576131105386
10
16.261190316989527
20
-4.7457576131105386
42
-1.0520372355190233
10
16.302089360484533
20
-4.7929114378736495
10
16.302089360484533
20
-4.9486819756607074
42
-1.0539379453819795
0
LWPOLYLINE
5
111
100
AcDbEntity
8
0
100
AcDbPolyline
90
8
70
1
43
0.0
10
20.393089360484531
20
-4.78742219149163
10
20.393089360484531
20
-4.9533828575723975
42
-1.0369344174126773
10
20.347203673759537
20
-4.9957576131105386
10
19.839626574090936
20
-4.9957576131105395
42
-1.021465731772002
10
19.793089360484519
20
-4.9540589769508738
10
19.793089360484522
20
-4.7867460721131536
42
-1.0366917020218553
10
19.840218209228183
20
-4.7457576131105386
10
20.34661203862229
20
-4.7457576131105386
42
-1.0523994257832232
0
LWPOLYLINE
5
112
100
AcDbEntity
8
0
100
AcDbPolyline
90
8
70
1
43
0.0
10
22.489486305146748
20
-5.0002955523501189
10
23.155148825437301
20
-5.0002955523501189
42
1.0629915263459164
10
23.198438252870286
20
-4.9553763476428614
10
23.198438252870286
20
-4.7819838890855193
42
1.0244565073615775
10
23.151897378946177
20
-4.7402955523501156
10
22.493112050134666
20
-4.7402955523501156
42
1.0360240795459355
10
22.448438252870282
20
-4.7839488846674785
10
22.448438252870282
20
-4.9531740223744247
42
1.0150265430020817
0
ENDSEC
0
SECTION
2
OBJECTS
0
DICTIONARY
5
C
100
AcDbDictionary
3
ACAD_GROUP
350
D
3
ACAD_MLINESTYLE
350
17
0
DICTIONARY
5
D
100
AcDbDictionary
0
DICTIONARY
5
1A
330
C
100
AcDbDictionary
0
DICTIONARY
5
17
100
AcDbDictionary
0
ENDSEC
0
EOF
