0
SECTION
2
HEADER
9
$INSUNITS
70
4
9
$ACADVER
1
AC1014
9
$HANDSEED
5
FFFF
0
ENDSEC
0
SECTION
2
TABLES
0
TABLE
2
VPORT
5
8
100
AcDbSymbolTable
0
ENDTAB
0
TABLE
2
LTYPE
5
5
100
AcDbSymbolTable
0
LTYPE
5
14
100
AcDbSymbolTableRecord
100
AcDbLinetypeTableRecord
2
BYBLOCK
70
0
0
LTYPE
5
15
100
AcDbSymbolTableRecord
100
AcDbLinetypeTableRecord
2
BYLAYER
70
0
0
ENDTAB
0
TABLE
2
LAYER
5
2
100
AcDbSymbolTable
70
2
0
LAYER
5
50
100
AcDbSymbolTableRecord
100
AcDbLayerTableRecord
2
0
70
0
6
CONTINUOUS
0
ENDTAB
0
TABLE
2
STYLE
5
3
100
AcDbSymbolTable
70
1
0
STYLE
5
11
100
AcDbSymbolTableRecord
100
AcDbTextStyleTableRecord
2
STANDARD
70
0
0
ENDTAB
0
TABLE
2
VIEW
5
6
100
AcDbSymbolTable
70
0
0
ENDTAB
0
TABLE
2
UCS
5
7
100
AcDbSymbolTable
70
0
0
ENDTAB
0
TABLE
2
APPID
5
9
100
AcDbSymbolTable
70
2
0
APPID
5
12
100
AcDbSymbolTableRecord
100
AcDbRegAppTableRecord
2
ACAD
70
0
0
ENDTAB
0
TABLE
2
DIMSTYLE
5
A
100
AcDbSymbolTable
70
1
0
ENDTAB
0
TABLE
2
BLOCK_RECORD
5
1
100
AcDbSymbolTable
70
1
0
BLOCK_RECORD
5
1F
100
AcDbSymbolTableRecord
100
AcDbBlockTableRecord
2
*MODEL_SPACE
0
BLOCK_RECORD
5
1B
100
AcDbSymbolTableRecord
100
AcDbBlockTableRecord
2
*PAPER_SPACE
0
ENDTAB
0
ENDSEC
0
SECTION
2
BLOCKS
0
BLOCK
5
20
100
AcDbEntity
100
AcDbBlockBegin
2
*MODEL_SPACE
0
ENDBLK
5
21
100
AcDbEntity
100
AcDbBlockEnd
0
BLOCK
5
1C
100
AcDbEntity
100
AcDbBlockBegin
2
*PAPER_SPACE
0
ENDBLK
5
1D
100
AcDbEntity
100
AcDbBlockEnd
0
ENDSEC
0
SECTION
2
ENTITIES
0
ELLIPSE
5
100
100
AcDbEntity
8
0
100
AcDbEllipse
10
-30.693941889661552
20
-447.62950299489501
30
0
11
-44.620009992606271
21
-20.759590163556592
31
0.0
40
0.25902405144368829
41
5.9855953119482717
42
6.0475146575832639
0
ELLIPSE
5
101
100
AcDbEntity
8
0
100
AcDbEllipse
10
-61.670851860115988
20
-455.35436527251568
30
0
11
-12.060980029297205
21
-8.7307790768164555
31
0.0
40
0.23887853122874284
41
4.4885498814291083
42
4.691796845466385
0
ELLIPSE
5
102
100
AcDbEntity
8
0
100
AcDbEllipse
10
-61.452217932291681
20
-455.7214940932879
30
0
11
-12.75850844245044
21
-9.2483978052990903
31
0.0
40
0.25271923003444996
41
4.6903441444214513
42
4.8540906500031689
0
ELLIPSE
5
103
100
AcDbEntity
8
0
100
AcDbEllipse
10
-50.967512473082891
20
-454.55232625542379
30
0
11
-24.261388571754775
21
-13.685419334926168
31
0.0
40
0.31275264612526577
41
5.5324552501138626
42
5.6838729512180119
0
ELLIPSE
5
104
100
AcDbEntity
8
0
100
AcDbEllipse
10
-56.376901389790071
20
-455.81290152552799
30
0
11
-18.751574122242772
21
-11.916181595775102
31
0.0
40
0.31154147450817132
41
5.2757981376961691
42
5.4405555072383986
0
ELLIPSE
5
105
100
AcDbEntity
8
0
100
AcDbEllipse
10
-59.154331749309527
20
-456.13659664393742
30
0
11
-15.797832257148636
21
-10.823122960927909
31
0.0
40
0.29489506796922554
41
5.0854007948682902
42
5.2124697107105593
0
ELLIPSE
5
106
100
AcDbEntity
8
0
100
AcDbEllipse
10
-61.655012990711349
20
-455.13258871804459
30
0
11
-11.77124347251333
21
-8.4784857544957042
31
0.0
40
0.23342073583593884
41
4.3250666877413142
42
4.4931988256474362
0
ELLIPSE
5
107
100
AcDbEntity
8
0
100
AcDbEllipse
10
-62.475042761434779
20
-456.25756370886893
30
0
11
-12.836703744313995
21
-9.5874547717413492
31
0.0
40
0.23836966326395287
41
3.7958788039424429
42
4.0517952563382256
0
ARC
5
108
100
AcDbEntity
8
0
100
AcDbCircle
10
-54.549927538948808
20
-444.43909141923541
30
0
40
2.5046286792735
210
0
220
0
230
1
100
AcDbArc
50
-69.680803872680372
51
110.66361812080906
0
ELLIPSE
5
109
100
AcDbEntity
8
0
100
AcDbEllipse
10
-60.690783327854945
20
-456.04787997836706
30
0
11
-13.966115889906643
21
-9.9704027446703236
31
0.0
40
0.27342950061182703
41
4.8694457459030618
42
5.0495497805736216
0
ELLIPSE
5
110
100
AcDbEntity
8
0
100
AcDbEllipse
10
-61.724055560591111
20
-455.25653552603671
30
0
11
-11.893979602896845
21
-8.6022717862461882
31
0.0
40
0.2348047379357649
41
4.0874129239744192
42
4.3199293699406685
0
ELLIPSE
5
111
100
AcDbEntity
8
0
100
AcDbEllipse
10
-41.424927439543026
20
-451.55487912980396
30
0
11
-33.861983048824619
21
-16.842738612219616
31
0.0
40
0.28856642008072919
41
5.7784777783893535
42
5.937327565324364
0
SPLINE
5
112
100
AcDbEntity
8
0
100
AcDbSpline
70
0
71
3
72
8
73
4
74
0
42
0.000000001
43
0.0000000001
44
0.0000000001
40
99
40
99
40
99
40
99
40
100
40
100
40
100
40
100
10
-133.65732520741017
20
-446.74041692701826
30
0
10
-126.92280948746659
20
-448.84295870219199
30
0
10
-114.07109609499699
20
-458.40324939907646
30
0
10
-111.9015472126185
20
-465.11659931362777
30
0
0
SPLINE
5
113
100
AcDbEntity
8
0
100
AcDbSpline
70
0
71
3
72
8
73
4
74
0
42
0.000000001
43
0.0000000001
44
0.0000000001
40
94.078974813519878
40
94.078974813519878
40
94.078974813519878
40
94.078974813519878
40
94.921035739850552
40
94.921035739850552
40
94.921035739850552
40
94.921035739850552
10
-55.43376286330151
20
-442.09558977842846
30
0
10
-79.9357121779219
20
-451.9235925172286
30
0
10
-107.306481332104
20
-451.92346934341771
30
0
10
-131.80835873720577
20
-442.09522025699499
30
1.6653345369377348e-15
0
ARC
5
114
100
AcDbEntity
8
0
100
AcDbCircle
10
-143.6430884885788
20
-475.3650761309483
30
0
40
33.355010411868818
210
0
220
-0
230
1
100
AcDbArc
50
1.2792195295489872
51
17.893851149259319
0
ELLIPSE
5
115
100
AcDbEntity
8
0
100
AcDbEllipse
10
-129.79304691179527
20
-473.21217706365695
30
0
11
-19.344816857152672
21
3.4273647752693814
31
0.0
40
0.71565479532564735
41
2.9789440931047433
42
3.285377717927433
0
ARC
5
116
100
AcDbEntity
8
0
100
AcDbCircle
10
-132.69122976606243
20
-444.43909141923541
30
0
40
2.5046343602962007
210
-2.3437435300949376e-16
220
-6.22223710182338e-16
230
1
100
AcDbArc
50
69.360004860804963
51
244.20663445738066
0
ELLIPSE
5
117
100
AcDbEntity
8
0
100
AcDbEllipse
10
-134.93382747052274
20
-450.26391817667212
30
0
11
-0.80889456546553673
21
-3.6673053474295254
31
0.0
40
0.89521081841593941
41
2.9960413910572758
42
3.0352578262036221
0
SPLINE
5
118
100
AcDbEntity
8
0
100
AcDbSpline
70
0
71
3
72
8
73
4
74
0
42
0.000000001
43
0.0000000001
44
0.0000000001
40
105
40
105
40
105
40
105
40
106
40
106
40
106
40
106
10
-130.849227876681
20
-481.28441089809911
30
0
10
-130.84927261167093
20
-481.28438856470092
30
0
10
-130.87747765966714
20
-481.27030753845429
30
0
10
-130.93035987537891
20
-481.23854806444109
30
0
0
SPLINE
5
119
100
AcDbEntity
8
0
100
AcDbSpline
70
0
71
3
72
11
73
7
74
0
42
0.000000001
43
0.0000000001
44
0.0000000001
40
102
40
102
40
102
40
102
40
103
40
103
40
103
40
104
40
104
40
104
40
104
10
-111.10073476687204
20
-478.83613225904969
30
0
10
-112.70589088123829
20
-482.6425967298058
30
0
10
-116.41358877077823
20
-485.10146903747659
30
0
10
-120.54460276817403
20
-485.10146903747659
30
0
10
-121.91333920480601
20
-485.10146903747659
30
0
10
-123.25391198583894
20
-484.82982325839669
30
0
10
-124.52394643679386
20
-484.29008445495668
30
0
0
ELLIPSE
5
120
100
AcDbEntity
8
0
100
AcDbEllipse
10
-119.08719088650081
20
-464.8815128471403
30
0
11
-36.190696569944045
21
17.136841439137953
31
0.0
40
0.49796071594756042
41
1.4805034012391525
42
1.6556169395195028
0
ELLIPSE
5
121
100
AcDbEntity
8
0
100
AcDbEllipse
10
-158.62519168669024
20
-461.4557118412007
30
0
11
-13.872820568244057
21
-6.8374717067186968
31
0.0
40
0.95823183250936117
41
2.9024049765880915
42
3.4519087429002666
0
SPLINE
5
122
100
AcDbEntity
8
0
100
AcDbSpline
70
0
71
3
72
8
73
4
74
0
42
0.000000001
43
0.0000000001
44
0.0000000001
40
107
40
107
40
107
40
107
40
108
40
108
40
108
40
108
10
-130.97273454985807
20
-481.2138510361745
30
0
10
-130.98681637765753
20
-481.20678859042766
30
0
10
-131.0044294283303
20
-481.19621645365476
30
0
10
-131.0220855426966
20
-481.18562278503674
30
0
0
SPLINE
5
123
100
AcDbEntity
8
0
100
AcDbSpline
70
0
71
3
72
8
73
4
74
0
42
0.000000001
43
0.0000000001
44
0.0000000001
40
108
40
108
40
108
40
108
40
109
40
109
40
109
40
109
10
-131.0220855426966
20
-481.18562278503674
30
0
10
-132.10852447322554
20
-480.53660986493861
30
0
10
-138.24180828285398
20
-476.43480524928236
30
0
10
-142.24237446779441
20
-464.35941628166677
30
0
0
LINE
5
124
100
AcDbEntity
8
0
100
AcDbLine
10
-142.24237446779441
20
-464.35941628166677
30
0
11
-142.24749884558014
21
-464.34048395917847
31
0
0
LINE
5
125
100
AcDbEntity
8
0
100
AcDbLine
10
-142.24749884558014
20
-464.34048395917847
30
0
11
-143.595090545353
21
-457.96227795577192
31
0
0
LINE
5
126
100
AcDbEntity
8
0
100
AcDbLine
10
-147.41565854074361
20
-450.88555581590708
30
0
11
-165.83417253813928
21
-432.33649423143254
31
0
0
SPLINE
5
127
100
AcDbEntity
8
0
100
AcDbSpline
70
0
71
3
72
8
73
4
74
0
42
0.000000001
43
0.0000000001
44
0.0000000001
40
106
40
106
40
106
40
106
40
107
40
107
40
107
40
107
10
-130.93035987537891
20
-481.23854806444109
30
0
10
-130.94095354399872
20
-481.23148561869465
30
0
10
-130.95507843549174
20
-481.22444470479644
30
0
10
-130.97273454985807
20
-481.2138510361745
30
0
0
LINE
5
128
100
AcDbEntity
8
0
100
AcDbLine
10
-165.83417253813928
20
-432.33649423143254
30
0
11
-165.84476620675906
21
-432.32590056281452
31
0
0
SPLINE
5
129
100
AcDbEntity
8
0
100
AcDbSpline
70
0
71
3
72
14
73
10
74
0
42
0.000000001
43
0.0000000001
44
0.0000000001
40
114
40
114
40
114
40
114
40
115
40
115
40
115
40
116
40
116
40
116
40
117
40
117
40
117
40
117
10
-165.84476620675906
20
-432.32590056281452
30
0
10
-167.23138423182871
20
-430.66811275892127
30
0
10
-170.89528086308971
20
-425.32554094110884
30
0
10
-172.04309563471242
20
-414.05334927783179
30
0
10
-172.13090048174945
20
-413.19105591025846
30
0
10
-172.16535609509666
20
-412.32082588536923
30
0
10
-172.1446308821985
20
-411.45432140847845
30
0
10
-171.18462464753861
20
-371.31723310828067
30
0
10
-159.5419475271807
20
-332.16084601203772
30
0
10
-138.38106788319141
20
-298.00225198289786
30
0
0
SPLINE
5
130
100
AcDbEntity
8
0
100
AcDbSpline
70
0
71
3
72
11
73
7
74
0
42
0.000000001
43
0.0000000001
44
0.0000000001
40
119
40
119
40
119
40
119
40
120
40
120
40
120
40
120.21964238949387
40
120.21964238949387
40
120.21964238949387
40
120.21964238949387
10
-139.59813399104729
20
-283.252592423436
30
0
10
-141.50663076296573
20
-281.61925112162419
30
0
10
-143.93731788319138
20
-280.71965056281351
30
0
10
-146.44551965185457
20
-280.71965056281351
30
0
10
-147.12118618129062
20
-280.71965056281351
30
0
10
-147.78902464451807
20
-280.78415316356876
30
0
10
-148.44111030997414
20
-280.90956948883451
30
0
0
SPLINE
5
131
100
AcDbEntity
8
0
100
AcDbSpline
70
0
71
3
72
8
73
4
74
0
42
0.000000001
43
0.0000000001
44
0.0000000001
40
-66.855986257860451
40
-66.855986257860451
40
-66.855986257860451
40
-66.855986257860451
40
-66.08172649932888
40
-66.08172649932888
40
-66.08172649932888
40
-66.08172649932888
10
-148.44111030998451
20
-280.90956948882422
30
0
10
-151.92502876581062
20
-281.59294312946633
30
5.5511151231257817e-16
10
-154.90863217426295
20
-284.03338960030317
30
5.5511151231257817e-16
10
-156.2349318292473
20
-287.37140255646813
30
0
0
ARC
5
132
100
AcDbEntity
8
0
100
AcDbCircle
10
-152.71284273597777
20
-289.5566996684729
30
0
40
4.0437525663934633
210
0
220
0
230
1
100
AcDbArc
50
160.63989471025346
51
350.81292776039305
0
ELLIPSE
5
133
100
AcDbEntity
8
0
100
AcDbEllipse
10
-146.47183352683925
20
-291.21754425864316
30
0
11
-2.1315219297425632
21
-1.2560332578940381
31
0.0
40
0.99611946651568939
41
5.306257207728704
42
5.3248597881326045
0
ELLIPSE
5
134
100
AcDbEntity
8
0
100
AcDbEllipse
10
-129.34186677913462
20
-300.67410708898547
30
0
11
-26.321142749017589
21
14.518397787305712
31
0.0
40
0.58879242585426628
41
0.075824419781877789
42
0.12587372641729871
0
SPLINE
5
135
100
AcDbEntity
8
0
100
AcDbSpline
70
0
71
3
72
11
73
7
74
0
42
0.000000001
43
0.0000000001
44
0.0000000001
40
117
40
117
40
117
40
117
40
118
40
118
40
118
40
119
40
119
40
119
40
119
10
-138.38106788319141
20
-298.00225198289786
30
0
10
-136.60305410280944
20
-295.88205409335791
30
0
10
-135.74209288900244
20
-293.2009177136747
30
0
10
-135.953911985839
20
-290.43869556606887
30
0
10
-136.16898081270378
20
-287.63409538743616
30
0
10
-137.46381121001431
20
-285.08350995137675
30
0
10
-139.59813399104729
20
-283.252592423436
30
0
0
SPLINE
5
136
100
AcDbEntity
8
0
100
AcDbSpline
70
0
71
3
72
8
73
4
74
0
42
0.000000001
43
0.0000000001
44
0.0000000001
40
135
40
135
40
135
40
135
40
135.9999999681695
40
135.9999999681695
40
135.9999999681695
40
135.9999999681695
10
-149.16542253813935
20
-303.45618264696031
30
0
10
-168.19427765889597
20
-337.47100886866895
30
0
10
-178.36131422488069
20
-375.72623059950922
30
0
10
-178.7211550612864
20
-414.70113284365073
30
0
0
ELLIPSE
5
137
100
AcDbEntity
8
0
100
AcDbEllipse
10
-114.4438461838353
20
-414.8832122588459
30
0
11
3.4538386233804008
21
69.375676540768694
31
0.0
40
0.92522190692303141
41
1.6142037527307909
42
1.6203771701471044
0
SPLINE
5
138
100
AcDbEntity
8
0
100
AcDbSpline
70
0
71
3
72
8
73
4
74
0
42
0.000000001
43
0.0000000001
44
0.0000000001
40
125.20429746739424
40
125.20429746739424
40
125.20429746739424
40
125.20429746739424
40
126
40
126
40
126
40
126
10
-146.77985296923785
20
-288.76520079290316
30
0
10
-145.74864065500185
20
-288.62580664752045
30
0
10
-144.69734659523766
20
-289.14649482077743
30
0
10
-144.20892059857769
20
-290.13175909010283
30
0
0
ARC
5
139
100
AcDbEntity
8
0
100
AcDbCircle
10
-190.25469460174452
20
-278.34077031382566
30
0
40
48.157161620889077
210
0
220
0
230
1
100
AcDbArc
50
328.56505214008331
51
343.31889463365678
0
SPLINE
5
140
100
AcDbEntity
8
0
100
AcDbSpline
70
0
71
3
72
8
73
4
74
0
42
0.000000001
43
0.0000000001
44
0.0000000001
40
-62.988980566480741
40
-62.988980566480741
40
-62.988980566480741
40
-62.988980566480741
40
-62.360626841088411
40
-62.360626841088411
40
-62.360626841088411
40
-62.360626841088411
10
-148.70151026801801
20
-290.16067169474303
30
0
10
-148.32621143334055
20
-289.37406391658561
30
0
10
-147.58843194518943
20
-288.87319645775437
30
0
10
-146.77985296923671
20
-288.76520079291134
30
0
0
SPLINE
5
141
100
AcDbEntity
8
0
100
AcDbSpline
70
0
71
3
72
8
73
4
74
0
42
0.000000001
43
0.0000000001
44
0.0000000001
40
126
40
126
40
126
40
126
40
126.53430131807413
40
126.53430131807413
40
126.53430131807413
40
126.53430131807413
10
-144.20892059857769
20
-290.13175909010283
30
0
10
-143.88095048021893
20
-290.7914728008916
30
0
10
-143.87223630748002
20
-291.52772729174228
30
0
10
-144.12412086091285
20
-292.16402541970149
30
0
0
SPLINE
5
142
100
AcDbEntity
8
0
100
AcDbSpline
70
0
71
3
72
8
73
4
74
0
42
0.000000001
43
0.0000000001
44
0.0000000001
40
143.19813811585155
40
143.19813811585155
40
143.19813811585155
40
143.19813811585155
40
144
40
144
40
144
40
144
10
-177.67439748737638
20
-437.77190160726542
30
0
10
-178.07848682262534
20
-436.46649707127415
30
0
10
-178.45738797040264
20
-435.15211628039913
30
0
10
-178.80934954009248
20
-433.82873734124161
30
0
0
ARC
5
143
100
AcDbEntity
8
0
100
AcDbCircle
10
-172.60111491158054
20
-437.7158851698905
30
0
40
1.5874999999999784
210
0
220
0
230
1
100
AcDbArc
50
-96.629977042675435
51
44.322762945008009
0
ARC
5
144
100
AcDbEntity
8
0
100
AcDbCircle
10
-138.44536304249775
20
-414.85449317833672
30
0
40
40.279615214441549
210
0
220
0
230
1
100
AcDbArc
50
180.39171483905136
51
206.65098073759921
0
SPLINE
5
145
100
AcDbEntity
8
0
100
AcDbSpline
70
0
71
3
72
11
73
7
74
0
42
0.000000001
43
0.0000000001
44
0.0000000001
40
144
40
144
40
144
40
144
40
145
40
145
40
145
40
146
40
146
40
146
40
146
10
-178.80934954009248
20
-433.82873734124161
30
0
10
-179.16565854074352
20
-432.49524853780144
30
0
10
-180.53447698515407
20
-431.7015139559295
30
0
10
-181.86794837635549
20
-432.05780753845431
30
0
10
-183.20145459192577
20
-432.41411042578994
30
0
10
-183.99520871164196
20
-433.78287450758359
30
0
10
-183.64243093386406
20
-435.116384842868
30
0
0
LINE
5
146
100
AcDbEntity
8
0
100
AcDbLine
10
-172.78440268552401
20
-439.29276875529644
30
0
11
-176.34118057579769
21
-438.87934958602295
31
-5.5511151231257817e-16
0
ARC
5
147
100
AcDbEntity
8
0
100
AcDbCircle
10
-153.30830736730158
20
-418.87385305007535
30
0
40
25.379787541477533
210
0
220
0
230
1
100
AcDbArc
50
213.60889959869556
51
224.32276294500682
0
ELLIPSE
5
148
100
AcDbEntity
8
0
100
AcDbEllipse
10
-154.33507134161428
20
-434.74560066650849
30
0
11
-19.103400016331125
21
52.554404658695674
31
0.0
40
0.50239794170915242
41
1.3971068609734647
42
1.499811028710299
0
SPLINE
5
149
100
AcDbEntity
8
0
100
AcDbSpline
70
0
71
3
72
11
73
7
74
0
42
0.000000001
43
0.0000000001
44
0.0000000001
40
0
40
0
40
0
40
0
40
0.25
40
0.5
40
0.75
40
1
40
1
40
1
40
1
10
-177.67439748737638
20
-437.77190160726542
30
0
10
-177.62921879431559
20
-437.91785069749653
30
0
10
-177.49643515241036
20
-438.19659427355157
30
0
10
-177.18644815599697
20
-438.54070691029506
30
0
10
-176.79131165425099
20
-438.78231111079634
30
0
10
-176.49294055839957
20
-438.86170988855753
30
0
10
-176.34118057579769
20
-438.87934958602295
30
0
0
ELLIPSE
5
150
100
AcDbEntity
8
0
100
AcDbEllipse
10
-176.74718187120803
20
-438.20713115238169
30
0
11
-5.2300218991053367
21
-2.5082353095449355
31
0.0
40
0.41397409142659392
41
6.2277191505066885
42
6.394712147443836
0
SPLINE
5
151
100
AcDbEntity
8
0
100
AcDbSpline
70
0
71
3
72
8
73
4
74
0
42
0.000000001
43
0.0000000001
44
0.0000000001
40
8
40
8
40
8
40
8
40
8.6514823821579228
40
8.6514823821579228
40
8.6514823821579228
40
8.6514823821579228
10
-141.34083554269665
20
-482.61439001051247
30
0
10
-132.55007774523455
20
-488.47948214490384
30
0
10
-122.79661127177243
20
-492.64672053979615
30
0
10
-112.58178056271305
20
-494.95613808943398
30
0
0
SPLINE
5
152
100
AcDbEntity
8
0
100
AcDbSpline
70
0
71
3
72
8
73
4
74
0
42
0.000000001
43
0.0000000001
44
0.0000000001
40
2
40
2
40
2
40
2
40
3
40
3
40
3
40
3
10
-181.82914798844314
20
-440.94074939907648
30
0
10
-178.55535987537888
20
-444.7013510361744
30
0
10
-173.27781810020528
20
-445.99957067457467
30
0
10
-168.63176232763581
20
-444.19335017489942
30
0
0
LINE
5
153
100
AcDbEntity
8
0
100
AcDbLine
10
-149.67344493125998
20
-460.75273992506339
30
0
11
-146.71716543093441
21
-474.68393092441408
31
0
0
LINE
5
154
100
AcDbEntity
8
0
100
AcDbLine
10
-161.82313399104729
20
-445.63622076002343
30
0
11
-153.08482154530077
21
-454.43800909010326
31
0
0
SPLINE
5
155
100
AcDbEntity
8
0
100
AcDbSpline
70
0
71
3
72
8
73
4
74
0
42
0.000000001
43
0.0000000001
44
0.0000000001
40
7
40
7
40
7
40
7
40
8
40
8
40
8
40
8
10
-146.71716543093441
20
-474.68393092441408
30
0
10
-146.02926598974526
20
-477.92949078633876
30
0
10
-144.09958188058721
20
-480.77287881395227
30
0
10
-141.34083554269665
20
-482.61439001051247
30
0
0
SPLINE
5
156
100
AcDbEntity
8
0
100
AcDbSpline
70
0
71
3
72
8
73
4
74
0
42
0.000000001
43
0.0000000001
44
0.0000000001
40
3
40
3
40
3
40
3
40
4
40
4
40
4
40
4
10
-168.63176232763581
20
-444.19335017489942
30
0
10
-166.27514476036154
20
-443.27613656541865
30
0
10
-163.60114777142928
20
-443.84410361999693
30
0
10
-161.82313399104729
20
-445.63622076002355
30
0
0
ELLIPSE
5
157
100
AcDbEntity
8
0
100
AcDbEllipse
10
-162.22756695975374
20
-463.35598618485142
30
0
11
-12.823750701732429
21
0.27054147762317116
31
0.0
40
0.99165880173332144
41
3.3689833140047574
42
3.9398271498383979
0
ELLIPSE
5
158
100
AcDbEntity
8
0
100
AcDbEllipse
10
-101.54034151872104
20
-501.62647697887053
30
0
11
-0.16309230422452972
21
0.15128821021952388
31
0.0
40
0.83923021506590978
41
1.4799117520595229
42
2.3513495189373765
0
SPLINE
5
159
100
AcDbEntity
8
0
100
AcDbSpline
70
4
71
5
72
26
73
20
74
0
42
0.000000001
43
0.0000000001
44
0.0000000001
40
3.6378276840801148e-05
40
3.6378276840801148e-05
40
3.6378276840801148e-05
40
3.6378276840801148e-05
40
3.6378276840801148e-05
40
3.6378276840801148e-05
40
0.066666666666666666
40
0.13333333333333333
40
0.20000000000000001
40
0.26666666666666666
40
0.33333333333333331
40
0.40000000000000002
40
0.46666666666666662
40
0.53333333333333333
40
0.59999999999999998
40
0.66666666666666663
40
0.73333333333333306
40
0.79999999999999982
40
0.8666666666666667
40
0.93333333333333324
40
0.95893773936110616
40
0.95893773936110616
40
0.95893773936110616
40
0.95893773936110616
40
0.95893773936110616
40
0.95893773936110616
41
1
41
1
41
1
41
1
41
1
41
1
41
1
41
1
41
1
41
1
41
1
41
1
41
1
41
1
41
1
41
1
41
1
41
1
41
1
41
1
10
-112.58178056271302
20
-494.95613808945609
30
0
10
-112.24261520238692
20
-494.95455155125825
30
2.2204460492503127e-15
10
-111.56763754236752
20
-494.93431793834532
30
0
10
-110.56569770153082
20
-494.85276897607974
30
-1.1102230246251563e-15
10
-109.25111078255098
20
-494.64086437107426
30
0
10
-107.64564945870362
20
-494.20550699924917
30
0
10
-106.08268533425253
20
-493.61173847519984
30
0
10
-104.57089655644617
20
-492.89115045761889
30
0
10
-103.12316878087634
20
-492.10238675445618
30
0
10
-101.75801137234171
20
-491.34441700610375
30
0
10
-100.49753553390292
20
-490.74396512597843
30
0
10
-99.364025754865082
20
-490.43351767172652
30
0
10
-98.377036052560555
20
-490.53408568565095
30
0
10
-97.548961623303796
20
-491.13089503907668
30
0
10
-96.883336097819708
20
-492.26325009463125
30
0
10
-96.44113278823113
20
-493.73647178541694
30
0
10
-96.190131295648641
20
-495.18490830401896
30
0
10
-96.057347313707865
20
-496.35768044046239
30
0
10
-95.995005702141398
20
-497.08957244300103
30
0
10
-95.978840232655855
20
-497.29659086014152
30
0
0
SPLINE
5
160
100
AcDbEntity
8
0
100
AcDbSpline
70
0
71
3
72
8
73
4
74
0
42
0.000000001
43
0.0000000001
44
0.0000000001
40
13
40
13
40
13
40
13
40
14
40
14
40
14
40
14
10
-103.32902998714107
20
-498.60932239712133
30
0
10
-103.46661848811762
20
-498.59521903747645
30
0
10
-103.59008209760114
20
-498.69751684156603
30
0
10
-103.60420698909421
20
-498.83510534254361
30
0
0
ELLIPSE
5
161
100
AcDbEntity
8
0
100
AcDbEllipse
10
-86.448438003168036
20
-440.48084764880008
30
0
11
-74.042608865468679
21
-14.513898358664374
31
0.0
40
0.76670788158071723
41
1.1942141809678917
42
1.2718231421434665
0
SPLINE
5
162
100
AcDbEntity
8
0
100
AcDbSpline
70
0
71
3
72
16
73
12
74
0
42
0.000000001
43
0.0000000001
44
0.0000000001
40
0
40
0
40
0
40
0
40
0.062014810150173801
40
0.062014810150173801
40
0.12402962030034832
40
0.12402962030034832
40
0.18604443045052346
40
0.18604443045052346
40
0.2272941796863987
40
0.2272941796863987
40
0.26854392892226769
40
0.26854392892226769
40
0.26854392892226769
40
0.26854392892226769
10
-97.622601768876237
20
-499.00650246486265
30
5.5511151231257817e-16
10
-97.416038797327943
20
-499.0144559187766
30
5.5511151231257817e-16
10
-97.209897193965219
20
-498.98198699171542
30
-5.5511151231257817e-16
10
-96.821662909056613
20
-498.83985953273032
30
-5.5511151231257817e-16
10
-96.643281958878447
20
-498.73155981677951
30
-5.5511151231257817e-16
10
-96.338073500669168
20
-498.45268014449493
30
-5.5511151231257817e-16
10
-96.214163951850011
20
-498.28476642982912
30
-5.5511151231257817e-16
10
-96.067229645843852
20
-497.97348775689966
30
-5.5511151231257817e-16
10
-96.0249382799648
20
-497.84204503304682
30
-5.5511151231257817e-16
10
-95.975286538442361
20
-497.5715662259322
30
-5.5511151231257817e-16
10
-95.968135906317912
20
-497.43367272448256
30
1.6653345369377348e-15
10
-95.978840232655799
20
-497.29659086014135
30
1.6653345369377348e-15
0
SPLINE
5
163
100
AcDbEntity
8
0
100
AcDbSpline
70
0
71
3
72
8
73
4
74
0
42
0.000000001
43
0.0000000001
44
0.0000000001
40
14
40
14
40
14
40
14
40
15
40
15
40
15
40
15
10
-103.60420698909421
20
-498.83510534254361
30
0
10
-103.60773821196743
20
-498.84567747931703
30
0
10
-103.60773821196743
20
-498.85273992506342
30
0
10
-103.60773821196743
20
-498.86333359368507
30
0
0
LINE
5
164
100
AcDbEntity
8
0
100
AcDbLine
10
-103.60773821196743
20
-498.86333359368507
30
0
11
-103.60773821196743
21
-499.54419212097412
31
0
0
ELLIPSE
5
165
100
AcDbEntity
8
0
100
AcDbEllipse
10
-103.22751335979014
20
-499.54694139569909
30
0
11
-0.38017891729749254
21
0.0073955602776242906
31
0.0
40
0.79924881373887913
41
0.015288750365557371
42
0.61831399607554427
0
LINE
5
166
100
AcDbEntity
8
0
100
AcDbLine
10
-103.54073110476239
20
-499.71704978698801
30
0
11
-101.68158532568273
21
-501.74905323208549
31
0
0
ELLIPSE
5
167
100
AcDbEntity
8
0
100
AcDbEllipse
10
-84.014900758232216
20
-499.54554376132376
30
0
11
-0.381428203968872
21
-0.0035274587166464122
31
0.0
40
0.79886043959819442
41
2.5322276694668382
42
3.1344521651387343
0
ELLIPSE
5
168
100
AcDbEntity
8
0
100
AcDbEllipse
10
-85.694982188890407
20
-501.56432171412894
30
0
11
0.13107709001763101
21
0.24419406292928772
31
0.0
40
0.80799604707657979
41
3.5989808235459613
42
4.3545431100264036
0
SPLINE
5
169
100
AcDbEntity
8
0
100
AcDbSpline
70
0
71
3
72
8
73
4
74
0
42
0.000000001
43
0.0000000001
44
0.0000000001
40
25
40
25
40
25
40
25
40
26
40
26
40
26
40
26
10
-83.633462156737409
20
-498.86333359368507
30
0
10
-83.633462156737409
20
-498.72221386983261
30
0
10
-83.746332097601112
20
-498.60932239712133
30
0
10
-83.887451821450981
20
-498.60932239712133
30
0
0
SPLINE
5
170
100
AcDbEntity
8
0
100
AcDbSpline
70
0
71
3
72
8
73
4
74
0
42
0.000000001
43
0.0000000001
44
0.0000000001
40
27
40
27
40
27
40
27
40
27.766403576908377
40
27.766403576908377
40
27.766403576908377
40
27.766403576908377
10
-83.912127317870244
20
-498.60932239712133
30
0
10
-85.810131056750834
20
-498.80129114490018
30
0
10
-87.712283095765912
20
-498.93316012975538
30
0
10
-89.61858343491545
20
-499.0065286806186
30
0
0
SPLINE
5
171
100
AcDbEntity
8
0
100
AcDbSpline
70
0
71
3
72
8
73
4
74
0
42
0.000000001
43
0.0000000001
44
0.0000000001
40
19
40
19
40
19
40
19
40
20
40
20
40
20
40
20
10
-101.51579010541361
20
-501.83018523078323
30
0
10
-98.887569822753051
20
-502.03480237081004
30
0
10
-96.255818317219195
20
-502.1335689520281
30
0
10
-93.620578652505642
20
-502.11946559238288
30
0
0
LINE
5
172
100
AcDbEntity
8
0
100
AcDbLine
10
-83.887451821450981
20
-498.60932239712133
30
0
11
-83.912127317870244
21
-498.60932239712133
31
0
0
LINE
5
173
100
AcDbEntity
8
0
100
AcDbLine
10
-85.556083820148942
20
-501.74905323208532
30
0
11
-83.700512339211187
21
-499.71704980048617
31
0
0
ELLIPSE
5
174
100
AcDbEntity
8
0
100
AcDbEllipse
10
-75.552491022741123
20
-428.67031545991159
30
0
11
-77.878840554170012
21
-41.711255572385717
31
0.0
40
0.77630560681967398
41
0.96086192826882078
42
1.0558489882427384
0
LINE
5
175
100
AcDbEntity
8
0
100
AcDbLine
10
-83.633462156737409
20
-499.54419212097423
30
0
11
-83.633462156737409
21
-498.86333359368507
31
0
0
ELLIPSE
5
176
100
AcDbEntity
8
0
100
AcDbEllipse
10
-93.704927819770361
20
-410.94731085706024
30
0
11
-44.950809641287947
21
73.493105097227115
31
0.0
40
0.99897672561840323
41
2.8153034718311485
42
3.1809967357361266
0
SPLINE
5
177
100
AcDbEntity
8
0
100
AcDbSpline
70
0
71
3
72
16
73
12
74
0
42
0.000000001
43
0.0000000001
44
0.0000000001
40
0
40
0
40
0
40
0
40
0.062014810150182578
40
0.062014810150182578
40
0.12402962030036535
40
0.12402962030036535
40
0.18604443045054159
40
0.18604443045054159
40
0.22729282071443516
40
0.22729282071443516
40
0.26854121097832329
40
0.26854121097832329
40
0.26854121097832329
40
0.26854121097832329
10
-91.262319128472399
20
-497.29661719133497
30
-1.6653345369377348e-15
10
-91.278411851369896
20
-497.50270586864099
30
-1.6653345369377348e-15
10
-91.254097017656733
20
-497.70996749249582
30
-1.6653345369377348e-15
10
-91.127389455168668
20
-498.10350436266742
30
-1.6653345369377348e-15
10
-91.026208119752212
20
-498.28601718201105
30
-1.6653345369377348e-15
10
-90.759580728516411
20
-498.60198539056842
30
-1.6653345369377348e-15
10
-90.596683775880507
20
-498.7324199514922
30
-1.6653345369377348e-15
10
-90.291445332092223
20
-498.89151261766841
30
-1.6653345369377348e-15
10
-90.161777040926481
20
-498.93895328369001
30
-1.6653345369377348e-15
10
-89.893475894932422
20
-498.99923257372984
30
-1.6653345369377348e-15
10
-89.755976348080381
20
-499.01181657714267
30
2.7755575615628914e-15
10
-89.618583434916331
20
-499.00652868061854
30
2.7755575615628914e-15
0
ELLIPSE
5
178
100
AcDbEntity
8
0
100
AcDbEllipse
10
-24.900187326015491
20
-463.5439186684269
30
0
11
-10.839583918761079
21
7.1578351271934251
31
0.0
40
0.98923892054933671
41
6.087529704414119
42
6.6535576769474982
0
LINE
5
179
100
AcDbEntity
8
0
100
AcDbLine
10
-40.523991874076835
20
-474.68393092441408
30
0
11
-37.567755437444902
21
-460.75273992506345
31
0
0
SPLINE
5
180
100
AcDbEntity
8
0
100
AcDbSpline
70
0
71
3
72
8
73
4
74
0
42
0.000000001
43
0.0000000001
44
0.0000000001
40
38
40
38
40
38
40
38
40
38.999999991222808
40
38.999999991222808
40
38.999999991222808
40
38.999999991222808
10
-18.609459572915814
20
-444.19335017489942
30
0
10
-13.963360777432465
20
-445.99957065872104
30
0
10
-8.6858190541231082
20
-444.70135105896367
30
0
10
-5.4120309346188789
20
-440.94074949809885
30
0
0
SPLINE
5
181
100
AcDbEntity
8
0
100
AcDbSpline
70
0
71
3
72
8
73
4
74
0
42
0.000000001
43
0.0000000001
44
0.0000000001
40
37
40
37
40
37
40
37
40
38
40
38
40
38
40
38
10
-25.418066377657567
20
-445.63622076002355
30
0
10
-23.636542906249147
20
-443.84410361999693
30
0
10
-20.96248132177648
20
-443.27613656541865
30
0
10
-18.609459572915814
20
-444.19335017489942
30
0
0
ELLIPSE
5
182
100
AcDbEntity
8
0
100
AcDbEllipse
10
-10.407392143895846
20
-438.26630476042061
30
0
11
-5.1448320128369298
21
2.4461046715315833
31
0.0
40
0.41745807777865607
41
3.0276443651629457
42
3.1962250507899581
0
ELLIPSE
5
183
100
AcDbEntity
8
0
100
AcDbEllipse
10
-32.917411566872985
20
-434.74359706545852
30
0
11
19.106392512174043
21
52.553215021633939
31
0.0
40
0.50259938577398799
41
4.7834386749042999
42
4.8861434708736891
0
SPLINE
5
184
100
AcDbEntity
8
0
100
AcDbSpline
70
0
71
3
72
8
73
4
74
0
42
0.000000001
43
0.0000000001
44
0.0000000001
40
33
40
33
40
33
40
33
40
34
40
34
40
34
40
34
10
-45.896790539441426
20
-482.61439001051247
30
0
10
-43.141618488117636
20
-480.77287881395227
30
0
10
-41.211934378959654
20
-477.92949078633876
30
0
10
-40.523991874076835
20
-474.68393092441408
30
0
0
LINE
5
185
100
AcDbEntity
8
0
100
AcDbLine
10
-34.156378823404083
20
-454.43800909010338
30
0
11
-25.418066377657567
21
-445.63622076002355
31
0
0
SPLINE
5
186
100
AcDbEntity
8
0
100
AcDbSpline
70
4
71
5
72
26
73
20
74
0
42
0.000000001
43
0.0000000001
44
0.0000000001
40
-0.95893839069824116
40
-0.95893839069824116
40
-0.95893839069824116
40
-0.95893839069824116
40
-0.95893839069824116
40
-0.95893839069824116
40
-0.93333333333333324
40
-0.8666666666666667
40
-0.79999999999999982
40
-0.73333333333333306
40
-0.66666666666666663
40
-0.59999999999999998
40
-0.53333333333333333
40
-0.46666666666666662
40
-0.40000000000000002
40
-0.33333333333333331
40
-0.26666666666666666
40
-0.20000000000000001
40
-0.13333333333333333
40
-0.066666666666666666
40
-0
40
-0
40
-0
40
-0
40
-0
40
-0
41
1
41
1
41
1
41
1
41
1
41
1
41
1
41
1
41
1
41
1
41
1
41
1
41
1
41
1
41
1
41
1
41
1
41
1
41
1
41
1
10
-91.262319128472328
20
-497.29661719133497
30
-5.5511151231257817e-16
10
-91.246153363130773
20
-497.08959310858057
30
-5.5511151231257817e-16
10
-91.183811623772058
20
-496.35769485875863
30
0
10
-91.051027458680608
20
-495.18491666751572
30
0
10
-90.800025502243301
20
-493.73647506854786
30
5.5511151231257817e-16
10
-90.357821207187285
20
-492.26325009463221
30
0
10
-89.692195681704419
20
-491.13089503907713
30
0
10
-88.864121252450019
20
-490.53408568565123
30
0
10
-87.87713155014778
20
-490.43351767172629
30
0
10
-86.743621771111208
20
-490.74396512597809
30
0
10
-85.483145932672429
20
-491.34441700610353
30
0
10
-84.117988524136649
20
-492.10238675445618
30
0
10
-82.670260748564601
20
-492.8911504576194
30
0
10
-81.158471970755528
20
-493.6117384751995
30
0
10
-79.595507846301729
20
-494.20550699924888
30
0
10
-77.989871291581053
20
-494.64091188891297
30
0
10
-76.675100885926184
20
-494.85282679686242
30
0
10
-75.672972928912287
20
-494.93436243791933
30
0
10
-74.997805262699401
20
-494.95457362395257
30
0
10
-74.65845086294776
20
-494.95614239506443
30
0
0
SPLINE
5
187
100
AcDbEntity
8
0
100
AcDbSpline
70
0
71
3
72
8
73
4
74
0
42
0.000000001
43
0.0000000001
44
0.0000000001
40
41
40
41
40
41
40
41
40
42
40
42
40
42
40
42
10
-3.5987694348407304
20
-435.116384842868
30
0
10
-3.2424604341896899
20
-433.78287450758359
30
0
10
-4.0362104341896901
20
-432.41409500725894
30
0
10
-5.3732304605026222
20
-432.05780753845431
30
0
0
SPLINE
5
188
100
AcDbEntity
8
0
100
AcDbSpline
70
0
71
3
72
8
73
4
74
0
42
0.000000001
43
0.0000000001
44
0.0000000001
40
42
40
42
40
42
40
42
40
43
40
43
40
43
40
43
10
-5.3732304605026222
20
-432.05780753845431
30
0
10
-6.706740795789079
20
-431.70149853780123
30
0
10
-8.0754987642678149
20
-432.49524853780144
30
0
10
-8.4318077649188545
20
-433.82873734124161
30
0
0
SPLINE
5
189
100
AcDbEntity
8
0
100
AcDbSpline
70
0
71
3
72
8
73
4
74
0
42
0.000000001
43
0.0000000001
44
0.0000000001
40
43
40
43
40
43
40
43
40
43.798155066834795
40
43.798155066834795
40
43.798155066834795
40
43.798155066834795
10
-8.4318077649188545
20
-433.82873734124161
30
0
10
-8.7837719784189208
20
-435.152126221152
30
0
10
-9.1627036085209035
20
-436.46651681759812
30
0
10
-9.5668180970495076
20
-437.77193102700039
30
0
0
SPLINE
5
190
100
AcDbEntity
8
0
100
AcDbSpline
70
0
71
3
72
11
73
7
74
0
42
0.000000001
43
0.0000000001
44
0.0000000001
40
61.0309008876308
40
61.0309008876308
40
61.0309008876308
40
61.0309008876308
40
62
40
62
40
62
40
63
40
63
40
63
40
63
10
-43.123695583829019
20
-292.14178323538471
30
0
10
-43.58024211360614
20
-290.95058419458422
30
0
10
-43.029679835620065
20
-289.54114845621234
30
0
10
-41.868312358404943
20
-288.98773131333212
30
0
10
-40.605059458719708
20
-288.38576352605122
30
0
10
-39.09713538763156
20
-288.93456665133556
30
0
10
-38.52023821196746
20
-290.20231895202755
30
0
0
LINE
5
191
100
AcDbEntity
8
0
100
AcDbLine
10
-30.649745764564091
20
-288.47018822557749
30
0
11
-30.642991662239091
21
-288.45741858502998
31
0
0
SPLINE
5
192
100
AcDbEntity
8
0
100
AcDbSpline
70
0
71
3
72
8
73
4
74
0
42
0.000000001
43
0.0000000001
44
0.0000000001
40
52
40
52
40
52
40
52
40
53
40
53
40
53
40
53
10
-38.075734766871989
20
-303.45618264696031
30
0
10
-38.100453326984841
20
-303.41385103617495
30
0
10
-38.121597600530819
20
-303.37151942538912
30
0
10
-38.146273096950111
20
-303.32565659173036
30
0
0
ARC
5
193
100
AcDbEntity
8
0
100
AcDbCircle
10
3.7515409436486813
20
-277.97933774983289
30
0
40
48.967976272413949
210
0
220
0
230
1
100
AcDbArc
50
196.81117573016039
51
211.17207748637352
0
ARC
5
194
100
AcDbEntity
8
0
100
AcDbCircle
10
-48.795794262513468
20
-414.85449317833672
30
0
40
40.279615214462119
210
0
220
0
230
1
100
AcDbArc
50
-26.650980737599362
51
0.21814279659538027
0
ARC
5
195
100
AcDbEntity
8
0
100
AcDbCircle
10
-33.932849937709548
20
-418.8738530500757
30
0
40
25.379787541477235
210
0
220
0
230
1
100
AcDbArc
50
315.67723705499316
51
326.39110040131038
0
SPLINE
5
196
100
AcDbEntity
8
0
100
AcDbSpline
70
0
71
3
72
8
73
4
74
0
42
0.000000001
43
0.0000000001
44
0.0000000001
40
51
40
51
40
51
40
51
40
52
40
52
40
52
40
52
10
-8.5164709864900381
20
-414.70113656541884
30
0
10
-8.8798424328876067
20
-375.72623303487256
30
0
10
-19.043369349391511
20
-337.47100995137629
30
0
10
-38.075734766871989
20
-303.45618264696031
30
0
0
LINE
5
197
100
AcDbEntity
8
0
100
AcDbLine
10
-10.900027736792852
20
-438.87935551484713
30
-1.1102230246251563e-15
11
-14.456754619487334
21
-439.29276875529644
31
0
0
ARC
5
198
100
AcDbEntity
8
0
100
AcDbCircle
10
-34.628075792110899
20
-289.14048848424625
30
0
40
4.0344035798184787
210
0
220
0
230
1
100
AcDbArc
50
-164.74033756317269
51
9.5638178809587426
0
ARC
5
199
100
AcDbEntity
8
0
100
AcDbCircle
10
-14.640042393430807
20
-437.7158851698905
30
0
40
1.5875000000000175
210
0
220
0
230
1
100
AcDbArc
50
135.6772370549952
51
276.62997704267531
0
SPLINE
5
200
100
AcDbEntity
8
0
100
AcDbSpline
70
0
71
3
72
12
73
8
74
0
42
0.000000001
43
0.0000000001
44
0.0000000001
40
0
40
0
40
0
40
0
40
0.062014810150174501
40
0.062014810150174501
40
0.12402962030035099
40
0.12402962030035099
40
0.18390019062127894
40
0.18390019062127894
40
0.18390019062127894
40
0.18390019062127894
10
-10.900027736792852
20
-438.87935551484713
30
-1.1102230246251563e-15
10
-10.694694117521715
20
-438.85548872953689
30
-1.1102230246251563e-15
10
-10.495985313455735
20
-438.79174390191844
30
5.5511151231257817e-16
10
-10.134186781210449
20
-438.59167417247073
30
5.5511151231257817e-16
10
-9.974556044194852
20
-438.45726204630171
30
5.5511151231257817e-16
10
-9.7202752739425584
20
-438.14038909486351
30
5.5511151231257817e-16
10
-9.6258349661585942
20
-437.96257368326826
30
0
10
-9.5668180970494774
20
-437.77193102700039
30
0
0
SPLINE
5
201
100
AcDbEntity
8
0
100
AcDbSpline
70
0
71
3
72
14
73
10
74
0
42
0.000000001
43
0.0000000001
44
0.0000000001
40
70
40
70
40
70
40
70
40
71
40
71
40
71
40
72
40
72
40
72
40
73
40
73
40
73
40
73
10
-48.860175549207057
20
-298.00225198289786
30
0
10
-27.756624234253625
20
-332.07048105790648
30
0
10
-16.117180950358549
20
-371.10957366636251
30
0
10
-15.107605854776953
20
-411.13163427382199
30
0
10
-15.08685369812585
20
-411.95430123034259
30
0
10
-15.115562290102494
20
-412.78027127566588
30
0
10
-15.192773214723957
20
-413.59956978444222
30
0
10
-16.386110335979943
20
-426.26227689094753
30
0
10
-20.750195119355823
20
-431.61159583949916
30
0
10
-21.763293767523024
20
-432.69633445495674
30
0
0
ELLIPSE
5
202
100
AcDbEntity
8
0
100
AcDbEllipse
10
-26.614247090269728
20
-283.98943393786521
30
0
11
-23.547610489528999
21
-12.050279726349924
31
0.0
40
0.62687057927439982
41
6.1686265924162358
42
6.4247792124011376
0
SPLINE
5
203
100
AcDbEntity
8
0
100
AcDbSpline
70
0
71
3
72
11
73
7
74
0
42
0.000000001
43
0.0000000001
44
0.0000000001
40
66
40
66
40
66
40
66
40
67
40
67
40
67
40
68
40
68
40
68
40
68
10
-30.642991662239091
20
-288.45741858502998
30
0
10
-31.887454512031141
20
-283.91382625662783
30
0
10
-36.100213862044754
20
-280.71614087178693
30
0
10
-40.788575207410176
20
-280.71614087178693
30
0
10
-41.811639375704445
20
-280.71614087178693
30
0
10
-42.831172321125464
20
-280.86783273240951
30
0
10
-43.822498547253929
20
-281.16415400790896
30
0
0
SPLINE
5
204
100
AcDbEntity
8
0
100
AcDbSpline
70
0
71
3
72
8
73
4
74
0
42
0.000000001
43
0.0000000001
44
0.0000000001
40
68
40
68
40
68
40
68
40
69
40
69
40
69
40
69
10
-43.822498547253929
20
-281.16415400790896
30
0
10
-49.378748547253927
20
-282.83631722948041
30
0
10
-52.53962365576087
20
-288.71713828796504
30
0
10
-50.870991657062959
20
-294.27338828796502
30
0
0
SPLINE
5
205
100
AcDbEntity
8
0
100
AcDbSpline
70
0
71
3
72
11
73
7
74
0
42
0.000000001
43
0.0000000001
44
0.0000000001
40
74
40
74
40
74
40
74
40
75
40
75
40
75
40
76
40
76
40
76
40
76
10
-21.78092835004254
20
-432.7175002603517
30
0
10
-21.833832097601142
20
-432.77393523078325
30
0
10
-21.879694931259998
20
-432.81626684156612
30
0
10
-21.911454405272586
20
-432.8480263155792
30
0
10
-21.922026542045593
20
-432.85859845235257
30
0
10
-21.929088987792113
20
-432.86919212097422
30
0
10
-21.939682656411907
20
-432.87623303487243
30
0
0
ELLIPSE
5
206
100
AcDbEntity
8
0
100
AcDbEllipse
10
-65.883984004648894
20
-472.94181689427199
30
0
11
-4.8513358818303587
21
-11.334776971779306
31
0.0
40
0.9048437114012946
41
6.1187783048440831
42
6.2532545251341212
0
LINE
5
207
100
AcDbEntity
8
0
100
AcDbLine
10
-21.974951821450972
20
-432.91152373175714
30
0
11
-39.821967541394521
21
-450.88555581590708
31
0
0
LINE
5
208
100
AcDbEntity
8
0
100
AcDbLine
10
-43.646109658365035
20
-457.96227717685429
30
0
11
-45.092489934515186
21
-464.80262192376131
31
0
0
ELLIPSE
5
209
100
AcDbEntity
8
0
100
AcDbEllipse
10
-28.520659190113751
20
-461.52927400746472
30
0
11
-13.87523892254225
21
7.0954236759161224
31
0.0
40
0.95385209598689435
41
5.9875359341106238
42
6.5354807326932383
0
SPLINE
5
210
100
AcDbEntity
8
0
100
AcDbSpline
70
0
71
3
72
8
73
4
74
0
42
0.000000001
43
0.0000000001
44
0.0000000001
40
73
40
73
40
73
40
73
40
74
40
74
40
74
40
74
10
-21.763293767523024
20
-432.69633445495674
30
0
10
-21.770334681422764
20
-432.70337536885893
30
0
10
-21.773865904296024
20
-432.71043781460537
30
0
10
-21.78092835004254
20
-432.7175002603517
30
0
0
ELLIPSE
5
211
100
AcDbEntity
8
0
100
AcDbEllipse
10
-65.847832896853078
20
-472.82355065501224
30
0
11
-4.8351020816060188
21
-11.475289172199449
31
0.0
40
0.90036238152910553
41
6.2483270643999544
42
6.5156664802482247
0
LINE
5
212
100
AcDbEntity
8
0
100
AcDbLine
10
-21.939682656411907
20
-432.87623303487243
30
0
11
-21.971421035371907
21
-432.90799294597616
31
0
0
LINE
5
213
100
AcDbEntity
8
0
100
AcDbLine
10
-21.971421035371907
20
-432.90799294597616
30
0
11
-21.974951821450972
21
-432.91152373175714
31
0
0
ELLIPSE
5
214
100
AcDbEntity
8
0
100
AcDbEllipse
10
-65.647312424971346
20
-471.88242774294349
30
0
11
-4.5288374636030273
21
-12.614155843638033
31
0.0
40
0.86949345349319251
41
0.17714913731896686
42
0.28303143732111585
0
SPLINE
5
215
100
AcDbEntity
8
0
100
AcDbSpline
70
0
71
3
72
14
73
10
74
0
42
0.000000001
43
0.0000000001
44
0.0000000001
40
81
40
81
40
81
40
81
40
82
40
82
40
82
40
83
40
83
40
83
40
84
40
84
40
84
40
84
10
-45.092489934515186
20
-464.80262192376131
30
0
10
-46.984454709277976
20
-470.35381911338902
30
0
10
-49.324446164805948
20
-474.17587558089019
30
0
10
-51.378738741954812
20
-476.73038400966004
30
0
10
-53.279436697265496
20
-479.09389785447684
30
0
10
-55.700680584159208
20
-480.97956820732412
30
0
10
-58.419590864944126
20
-482.32358357070217
30
0
10
-59.833927578731689
20
-483.02272038509443
30
0
10
-61.267609616890809
20
-483.6785109736428
30
0
10
-62.713722709037789
20
-484.29008445495668
30
0
0
SPLINE
5
216
100
AcDbEntity
8
0
100
AcDbSpline
70
0
71
3
72
11
73
7
74
0
42
0.000000001
43
0.0000000001
44
0.0000000001
40
84
40
84
40
84
40
84
40
85
40
85
40
85
40
86
40
86
40
86
40
86
10
-62.713722709037789
20
-484.29008445495668
30
0
10
-63.983714096299032
20
-484.82629203552506
30
0
10
-65.324286877332057
20
-485.09793781460559
30
0
10
-66.7001288234041
20
-485.09793781460559
30
0
10
-66.777729599228749
20
-485.09793781460559
30
0
10
-66.85537343874698
20
-485.09793781460559
30
0
10
-66.93297421457163
20
-485.09440659172992
30
0
0
ELLIPSE
5
217
100
AcDbEntity
8
0
100
AcDbEllipse
10
-64.517934198492213
20
-474.0661346446235
30
0
11
-11.827513770962639
21
-4.2620751002272268
31
0.0
40
0.8966936217614071
41
6.0813068998117847
42
6.202789035913991
0
ELLIPSE
5
218
100
AcDbEntity
8
0
100
AcDbEllipse
10
-64.356642397612006
20
-473.88118588915182
30
0
11
-11.828922587350837
21
-4.861940854703902
31
0.0
40
0.88962941322282618
41
0.14502015149390057
42
0.27376116223944119
0
ELLIPSE
5
219
100
AcDbEntity
8
0
100
AcDbEllipse
10
-63.810866256999752
20
-473.9532531442386
30
0
11
-12.668597566819033
21
-3.9776545738843017
31
0.0
40
0.87379656426000252
41
5.9946765082088982
42
6.1230667614806329
0
ELLIPSE
5
220
100
AcDbEntity
8
0
100
AcDbEllipse
10
-42.84755675590236
20
-475.98518176973977
30
0
11
-28.637376063623972
21
18.883273433689844
31
0.0
40
0.98095134588613442
41
0.26493765204552189
42
0.55138708151234106
0
SPLINE
5
221
100
AcDbEntity
8
0
100
AcDbSpline
70
0
71
3
72
11
73
7
74
0
42
0.000000001
43
0.0000000001
44
0.0000000001
40
86.715877232670479
40
86.715877232670479
40
86.715877232670479
40
86.715877232670479
40
87
40
87
40
87
40
87.085822312254507
40
87.085822312254507
40
87.085822312254507
40
87.085822312254507
10
-72.348507884234309
20
-483.40530028036147
30
0
10
-72.98100898595132
20
-482.98568780337149
30
0
10
-73.571220568988295
20
-482.49230288528497
30
0
10
-74.108462156737417
20
-481.93000026035173
30
0
10
-74.270742631398974
20
-481.7601497890584
30
0
10
-74.426527092133696
20
-481.58575224637451
30
0
10
-74.575695121262541
20
-481.4071086709024
30
0
0
ELLIPSE
5
222
100
AcDbEntity
8
0
100
AcDbEllipse
10
-64.837644490832588
20
-474.15332630557123
30
0
11
-11.465087728160903
21
-4.2911661365651605
31
0.0
40
0.90853065654778631
41
6.1905646561780205
42
6.4603231691988636
0
ENDSEC
0
SECTION
2
OBJECTS
0
DICTIONARY
5
C
100
AcDbDictionary
3
ACAD_GROUP
350
D
3
ACAD_MLINESTYLE
350
17
0
DICTIONARY
5
D
100
AcDbDictionary
0
DICTIONARY
5
1A
330
C
100
AcDbDictionary
0
DICTIONARY
5
17
100
AcDbDictionary
0
ENDSEC
0
EOF
